<?xml version="1.0" encoding="UTF-8" standalone="no"?>
<!DOCTYPE svg PUBLIC "-//W3C//DTD SVG 1.0//EN" "http://www.w3.org/TR/2001/REC-SVG-20010904/DTD/svg10.dtd">
<svg xmlns="http://www.w3.org/2000/svg" xmlns:xlink="http://www.w3.org/1999/xlink" id="body_1" width="547" height="548">

  <g transform="matrix(1 0 0 1 0 0)">
    <path d="M0 0L0 340L128 340L126 308L63 309L62 267C 77.7197 267 93.2802 266 109 266C 113.257 266 122.788 267.779 126.258 264.972C 129.486 262.361 128.573 251.965 129.13 248C 131.107 233.937 134.262 218.967 140.178 206C 155.971 171.382 198.573 154.973 233 173.12C 244.655 179.264 251.779 188.298 259 199L259 199L260 199C 267.09 180.509 273.681 162.881 291 151.363C 327.818 126.875 386.281 146.327 407.547 182C 417.787 199.177 422.5 218.482 425.753 238C 426.813 244.361 426.284 260.842 430.742 265.397C 433.943 268.666 442.81 267 447 267L447 267L494 267L494 308L430 309L430 338L547 338L547 0L0 0z" stroke="none" fill="#FF5901" fill-rule="nonzero"/>
    <path d="M317 142L317 143L327 143L317 142z" stroke="none" fill="#FFB693" fill-rule="nonzero"/>
    <path d="M261 201C 250.203 191.105 245.619 178.641 231 172.465C 222.712 168.963 213.987 167.014 205 167C 191.772 166.979 178.733 168.653 167 175.338C 137.218 192.305 128.003 235.149 128 267L128 267L63 268L63 308C 82.142 308 107.677 312.416 126 307L126 307L128 341L0 341L0 381L173 381L173 311C 173 294.616 172.807 276.583 181.454 262C 196.166 237.186 228.591 237.066 243.522 262C 256.18 283.14 255 313.325 255 337L255 337L293 337C 293 306.144 287.282 270.301 303.529 242C 317.437 217.773 349.082 216.478 365.211 239C 375.936 253.975 379.252 274.121 381.166 292C 384.318 321.445 383 351.384 383 381L383 381L547 381L547 339L430 339C 430 331.674 425.823 316.619 430.028 310.318C 432.718 306.286 441.836 308 446 308C 461.601 308 477.52 308.956 493 307L493 307L493 268L447 268C 442.754 268 433.877 269.662 430.603 266.397C 425.748 261.554 426.379 243.781 425.247 237C 421.84 216.599 416.646 196.698 405.535 179C 371.04 124.051 270.591 129.836 261 201z" stroke="none" fill="#FFFEFE" fill-rule="nonzero"/>
    <path d="M334 142L334 143L345 143L334 142zM311 143L311 144L316 144L311 143zM346 143L346 144L351 144L346 143zM307 144L307 145L311 145L307 144zM352 144L352 145L356 145L352 144zM304 145L304 146L307 146L304 145zM357 145L357 146L360 146L357 145zM301.667 146.333L302.333 146.667L301.667 146.333zM361 146L361 147L364 147L361 146zM298.667 147.333L299.333 147.667L298.667 147.333zM365.667 147.333L366.333 147.667L365.667 147.333zM295.667 148.333L296.333 148.667L295.667 148.333zM368.667 148.333L369.333 148.667L368.667 148.333zM293.667 149.333L294.333 149.667L293.667 149.333zM370.667 149.333L371.333 149.667L370.667 149.333zM292 150L293 151L292 150zM373 150L374 151L373 150zM290.667 151.333L291.333 151.667L290.667 151.333zM375 151L376 152L375 151zM289 152L290 153L289 152zM377 152L378 153L377 152zM287.667 153.333L288.333 153.667L287.667 153.333zM378.667 153.333L379.333 153.667L378.667 153.333zM286 154L287 155L286 154zM380 154L381 155L380 154zM285 155L286 156L285 155zM382 155L383 156L382 155zM284 156L285 157L284 156zM383 156L384 157L383 156zM283 157L284 158L283 157zM384.667 157.333L385.333 157.667L384.667 157.333zM281 158L281 160L283 158L281 158zM386 158L387 159L386 158zM387 159L388 160L387 159zM280 160L281 161L280 160zM388 160L389 161L388 160zM279 161L280 162L279 161zM389.667 161.333L390.333 161.667L389.667 161.333zM278 162L279 163L278 162zM391 162L392 163L391 162zM277 163L278 164L277 163zM392 163L393 164L392 163zM276 164L277 165L276 164zM393 164L394 165L393 164zM275.333 165.667L275.667 166.333L275.333 165.667zM394 165L395 166L394 165zM192 166L192 167L213 167L192 166zM395 166L396 167L395 166zM186 167L186 168L191 168L186 167zM213 167L213 168L218 168L213 167zM274 167L275 168L274 167zM396 167L397 168L396 167zM182 168L182 169L186 169L182 168zM219 168L219 169L222 169L219 168zM273.333 168.667L273.667 169.333L273.333 168.667zM397 168L398 169L397 168zM179 169L179 170L182 170L179 169zM222 169L222 170L225 170L222 169zM398 169L399 170L398 169zM176 170L176 171L179 171L176 170zM225 170L225 171L228 171L225 170zM272 170L273 171L272 170zM399 170L401 173L399 170zM174.667 171.333L175.333 171.667L174.667 171.333zM228.667 171.333L229.333 171.667L228.667 171.333zM271.333 171.667L271.667 172.333L271.333 171.667zM171.667 172.333L172.333 172.667L171.667 172.333zM231.667 172.333L232.333 172.667L231.667 172.333zM169.667 173.333L170.333 173.667L169.667 173.333zM233 173L234 174L233 173zM270.333 173.667L270.667 174.333L270.333 173.667zM401 173L402 174L401 173zM167.667 174.333L168.333 174.667L167.667 174.333zM235 174L236 175L235 174zM402 174L403 175L402 174zM165.667 175.333L166.333 175.667L165.667 175.333zM236.667 175.333L237.333 175.667L236.667 175.333zM269.333 175.667L269.667 176.333L269.333 175.667zM403 175L404 176L403 175zM164 176L165 177L164 176zM238 176L239 177L238 176zM163 177L164 178L163 177zM239.667 177.333L240.333 177.667L239.667 177.333zM268.333 177.667L268.667 178.333L268.333 177.667zM404 177L405 178L404 177zM161.667 178.333L162.333 178.667L161.667 178.333zM241 178L242 179L241 178zM405 178L406 179L405 178zM160 179L161 180L160 179zM242.667 179.333L243.333 179.667L242.667 179.333zM267.333 179.667L267.667 180.333L267.333 179.667zM159 180L160 181L159 180zM244 180L245 181L244 180zM406 180L407 181L406 180zM157.667 181.333L158.333 181.667L157.667 181.333zM245 181L246 182L245 181zM266 181L266 184L267 184L266 181zM407.333 181.667L407.667 182.333L407.333 181.667zM156 182L157 183L156 182zM246 182L247 183L246 182zM155 183L156 184L155 183zM247 183L248 184L247 183zM408.333 183.667L408.667 184.333L408.333 183.667zM154 184L155 185L154 184zM248 184L249 185L248 184zM265.333 184.667L265.667 185.333L265.333 184.667zM153 185L154 186L153 185zM249 185L250 186L249 185zM409 185L410 186L409 185zM152 186L153 187L152 186zM250.333 186.667L250.667 187.333L250.333 186.667zM264 186L264 189L265 189L264 186zM151.333 187.667L151.667 188.333L151.333 187.667zM410 187L411 188L410 187zM251 188L252 189L251 188zM150 189L151 190L150 189zM252 189L253 190L252 189zM263.333 189.667L263.667 190.333L263.333 189.667zM411 189L412 190L411 189zM149 190L150 191L149 190zM253.333 190.667L253.667 191.333L253.333 190.667zM148.333 191.667L148.667 192.333L148.333 191.667zM262 191L262 194L263 194L262 191zM412 191L413 192L412 191zM254 192L255 193L254 192zM147 193L148 194L147 193zM255.333 193.667L255.667 194.333L255.333 193.667zM413.333 193.667L413.667 194.333L413.333 193.667zM146 194L147 195L146 194zM261 194L261 198L262 198L261 194zM256 195L257 196L256 195zM414.333 195.667L414.667 196.333L414.333 195.667zM145 196L146 197L145 196zM257.333 196.667L257.667 197.333L257.333 196.667zM144.333 197.667L144.667 198.333L144.333 197.667zM258 198L259 199L258 198zM260 198L259 201L260 198zM415 198L416 199L415 198zM143 199L144 200L143 199zM416.333 200.667L416.667 201.333L416.333 200.667zM142 201L143 202L142 201zM141.333 202.667L141.667 203.333L141.333 202.667zM417.333 203.667L417.667 204.333L417.333 203.667zM140 205L141 206L140 205zM418 206L419 207L418 206zM139.333 207.667L139.667 208.333L139.333 207.667zM138.333 209.667L138.667 210.333L138.333 209.667zM419.333 209.667L419.667 210.333L419.333 209.667zM137.333 212.667L137.667 213.333L137.333 212.667zM420.333 212.667L420.667 213.333L420.333 212.667zM136 215L136 218L137 218L136 215zM421.333 216.667L421.667 217.333L421.333 216.667zM135.333 219.667L135.667 220.333L135.333 219.667zM422 220L422 223L423 223L422 220zM134.333 222.667L134.667 223.333L134.333 222.667zM332 222L332 223L339 223L332 222zM326.667 223.333L327.333 223.667L326.667 223.333z" stroke="none" fill="#FFB693" fill-rule="nonzero"/>
    <path d="M328 223L328 224L333 224L328 223z" stroke="none" fill="#9A9A9A" fill-rule="nonzero"/>
    <path d="M294 338L254 338C 254 313.598 255.552 281.566 241.867 260C 227.779 237.8 195.715 239.116 182.465 261C 173.716 275.449 174 293.71 174 310L174 310L174 382L0 382L0 548L547 548L547 382L382 382C 382 348.2 384.324 313.435 378.753 280C 376.316 265.372 372.756 248.992 363.471 237.001C 347.86 216.84 316.453 219.96 304.313 242C 288.366 270.953 294 306.563 294 338z" stroke="none" fill="#4D4D4D" fill-rule="nonzero"/>
    <path d="M339 223L339 224L344 224L339 223z" stroke="none" fill="#9A9A9A" fill-rule="nonzero"/>
    <path d="M344 223L345 224L344 223zM323 224L324 225L323 224z" stroke="none" fill="#FFB693" fill-rule="nonzero"/>
    <path d="M324 224L324 225L327 225L324 224zM345.667 224.333L346.333 224.667L345.667 224.333z" stroke="none" fill="#9A9A9A" fill-rule="nonzero"/>
    <path d="M347 224L348 225L347 224zM321 225L322 226L321 225z" stroke="none" fill="#FFB693" fill-rule="nonzero"/>
    <path d="M322 225L323 226L322 225zM348 225L349 226L348 225z" stroke="none" fill="#9A9A9A" fill-rule="nonzero"/>
    <path d="M349 225L350 226L349 225zM423 225L423 228L424 228L423 225zM133.333 226.667L133.667 227.333L133.333 226.667z" stroke="none" fill="#FFB693" fill-rule="nonzero"/>
    <path d="M319.667 226.333L320.333 226.667L319.667 226.333zM350.667 226.333L351.333 226.667L350.667 226.333zM317.667 227.333L318.333 227.667L317.667 227.333zM352 227L353 228L352 227z" stroke="none" fill="#9A9A9A" fill-rule="nonzero"/>
    <path d="M353 227L354 228L353 227zM315 228L316 229L315 228z" stroke="none" fill="#FFB693" fill-rule="nonzero"/>
    <path d="M316 228L317 229L316 228zM354 228L357 230L357 229L354 228z" stroke="none" fill="#9A9A9A" fill-rule="nonzero"/>
    <path d="M355 228L356 229L355 228z" stroke="none" fill="#FFB693" fill-rule="nonzero"/>
    <path d="M314 229L315 230L314 229z" stroke="none" fill="#9A9A9A" fill-rule="nonzero"/>
    <path d="M132.333 230.667L132.667 231.333L132.333 230.667zM312 230L309 234L312 230z" stroke="none" fill="#FFB693" fill-rule="nonzero"/>
    <path d="M313 230L314 231L313 230zM357 230L358 231L357 230z" stroke="none" fill="#9A9A9A" fill-rule="nonzero"/>
    <path d="M424 230L424 233L425 233L424 230z" stroke="none" fill="#FFB693" fill-rule="nonzero"/>
    <path d="M312 231L313 232L312 231zM358 231L359 232L358 231zM311 232L312 233L311 232zM359 232L360 233L359 232zM310 233L311 234L310 233zM360 233L361 234L360 233z" stroke="none" fill="#9A9A9A" fill-rule="nonzero"/>
    <path d="M131 234L131 237L132 237L131 234z" stroke="none" fill="#FFB693" fill-rule="nonzero"/>
    <path d="M309 234L310 235L309 234zM361 234L362 235L361 234zM308 235L309 236L308 235zM362 235L363 236L362 235zM307 236L308 237L307 236zM363 236L364 237L363 236z" stroke="none" fill="#9A9A9A" fill-rule="nonzero"/>
    <path d="M425 236L425 239L426 239L425 236z" stroke="none" fill="#FFB693" fill-rule="nonzero"/>
    <path d="M306 237L305 240L306 237z" stroke="none" fill="#9A9A9A" fill-rule="nonzero"/>
    <path d="M364 237L365 238L364 237zM305 238L306 239L305 238z" stroke="none" fill="#FFB693" fill-rule="nonzero"/>
    <path d="M364 238L365 239L364 238z" stroke="none" fill="#9A9A9A" fill-rule="nonzero"/>
    <path d="M130 239L130 242L131 242L130 239z" stroke="none" fill="#FFB693" fill-rule="nonzero"/>
    <path d="M365 239L366 240L365 239zM304 240L302 246L303 246L304 240z" stroke="none" fill="#9A9A9A" fill-rule="nonzero"/>
    <path d="M366 240L367 241L366 240zM303 241L304 242L303 241z" stroke="none" fill="#FFB693" fill-rule="nonzero"/>
    <path d="M366 241L367 242L366 241z" stroke="none" fill="#9A9A9A" fill-rule="nonzero"/>
    <path d="M367 242L368 243L367 242zM426 242L426 245L427 245L426 242zM205.667 243.333L206.333 243.667L205.667 243.333z" stroke="none" fill="#FFB693" fill-rule="nonzero"/>
    <path d="M207 243L207 244L219 244L207 243z" stroke="none" fill="#9A9A9A" fill-rule="nonzero"/>
    <path d="M219 243L220 244L219 243zM302 243L303 244L302 243z" stroke="none" fill="#FFB693" fill-rule="nonzero"/>
    <path d="M367 243L368 244L367 243z" stroke="none" fill="#9A9A9A" fill-rule="nonzero"/>
    <path d="M200 244L201 245L200 244z" stroke="none" fill="#FFB693" fill-rule="nonzero"/>
    <path d="M201 244L201 245L205 245L201 244zM220 244L220 245L223 245L220 244z" stroke="none" fill="#9A9A9A" fill-rule="nonzero"/>
    <path d="M223 244L224 245L223 244zM368 244L369 245L368 244zM129 245L129 249L130 249L129 245z" stroke="none" fill="#FFB693" fill-rule="nonzero"/>
    <path d="M198 245L198 246L201 246L198 245zM224.667 245.333L225.333 245.667L224.667 245.333zM368 245L369 246L368 245zM196.667 246.333L197.333 246.667L196.667 246.333zM226 246L226 247L230 248L230 247L226 246z" stroke="none" fill="#9A9A9A" fill-rule="nonzero"/>
    <path d="M228 246L229 247L228 246z" stroke="none" fill="#FFB693" fill-rule="nonzero"/>
    <path d="M301.333 246.667L301.667 247.333L301.333 246.667z" stroke="none" fill="#9A9A9A" fill-rule="nonzero"/>
    <path d="M369 246L370 247L369 246z" stroke="none" fill="#FFB693" fill-rule="nonzero"/>
    <path d="M194.667 247.333L195.333 247.667L194.667 247.333zM369 247L370 248L369 247z" stroke="none" fill="#9A9A9A" fill-rule="nonzero"/>
    <path d="M192 248L193 249L192 248z" stroke="none" fill="#FFB693" fill-rule="nonzero"/>
    <path d="M193 248L194 249L193 248zM230 248L231 249L230 248z" stroke="none" fill="#9A9A9A" fill-rule="nonzero"/>
    <path d="M231 248L232 249L231 248zM300 248L301 249L300 248zM370 248L371 249L370 248zM427 248L427 252L428 252L427 248z" stroke="none" fill="#FFB693" fill-rule="nonzero"/>
    <path d="M191.667 249.333L192.333 249.667L191.667 249.333zM232 249L233 250L232 249zM300.333 249.667L300.667 250.333L300.333 249.667zM370 249L371 250L370 249zM190 250L191 251L190 250zM233 250L234 251L233 250z" stroke="none" fill="#9A9A9A" fill-rule="nonzero"/>
    <path d="M371 250L372 251L371 250z" stroke="none" fill="#FFB693" fill-rule="nonzero"/>
    <path d="M189 251L190 252L189 251zM234 251L235 252L234 251z" stroke="none" fill="#9A9A9A" fill-rule="nonzero"/>
    <path d="M299 251L300 252L299 251z" stroke="none" fill="#FFB693" fill-rule="nonzero"/>
    <path d="M371 251L372 252L371 251z" stroke="none" fill="#9A9A9A" fill-rule="nonzero"/>
    <path d="M128 252L128 257L129 257L128 252z" stroke="none" fill="#FFB693" fill-rule="nonzero"/>
    <path d="M188 252L189 253L188 252zM235 252L238 255L235 252z" stroke="none" fill="#9A9A9A" fill-rule="nonzero"/>
    <path d="M236 252L237 253L236 252z" stroke="none" fill="#FFB693" fill-rule="nonzero"/>
    <path d="M299.333 252.667L299.667 253.333L299.333 252.667z" stroke="none" fill="#9A9A9A" fill-rule="nonzero"/>
    <path d="M372 252L373 253L372 252z" stroke="none" fill="#FFB693" fill-rule="nonzero"/>
    <path d="M187 253L188 254L187 253z" stroke="none" fill="#9A9A9A" fill-rule="nonzero"/>
    <path d="M237 253L238 254L237 253z" stroke="none" fill="#FFB693" fill-rule="nonzero"/>
    <path d="M372.333 253.667L372.667 254.333L372.333 253.667z" stroke="none" fill="#9A9A9A" fill-rule="nonzero"/>
    <path d="M186 254L185 256L186 254z" stroke="none" fill="#FFB693" fill-rule="nonzero"/>
    <path d="M298 254L298 257L299 257L298 254zM186 255L187 256L186 255zM238 255L239 256L238 255z" stroke="none" fill="#9A9A9A" fill-rule="nonzero"/>
    <path d="M373 255L374 256L373 255zM428 255L428 259L429 259L428 255z" stroke="none" fill="#FFB693" fill-rule="nonzero"/>
    <path d="M185 256L186 257L185 256zM239 256L240 257L239 256zM373.333 256.667L373.667 257.333L373.333 256.667zM184 257L185 258L184 257zM240 257L241 258L240 257z" stroke="none" fill="#9A9A9A" fill-rule="nonzero"/>
    <path d="M297 257L298 258L297 257z" stroke="none" fill="#FFB693" fill-rule="nonzero"/>
    <path d="M183.333 258.667L183.667 259.333L183.333 258.667z" stroke="none" fill="#9A9A9A" fill-rule="nonzero"/>
    <path d="M241 258L242 259L241 258z" stroke="none" fill="#FFB693" fill-rule="nonzero"/>
    <path d="M297 258L297 261L298 261L297 258z" stroke="none" fill="#9A9A9A" fill-rule="nonzero"/>
    <path d="M374 258L375 259L374 258z" stroke="none" fill="#FFB693" fill-rule="nonzero"/>
    <path d="M241 259L242 260L241 259zM374.333 259.667L374.667 260.333L374.333 259.667zM182 260L183 261L182 260zM242 260L243 261L242 260z" stroke="none" fill="#9A9A9A" fill-rule="nonzero"/>
    <path d="M181 261L182 262L181 261zM243 261L244 262L243 261z" stroke="none" fill="#FFB693" fill-rule="nonzero"/>
    <path d="M296 261L296 265L297 265L296 261z" stroke="none" fill="#9A9A9A" fill-rule="nonzero"/>
    <path d="M375.333 261.667L375.667 262.333L375.333 261.667z" stroke="none" fill="#FFB693" fill-rule="nonzero"/>
    <path d="M181 262L182 263L181 262zM243 262L244 263L243 262zM180.333 263.667L180.667 264.333L180.333 263.667z" stroke="none" fill="#9A9A9A" fill-rule="nonzero"/>
    <path d="M244 263L245 264L244 263z" stroke="none" fill="#FFB693" fill-rule="nonzero"/>
    <path d="M375.333 263.667L375.667 264.333L375.333 263.667z" stroke="none" fill="#9A9A9A" fill-rule="nonzero"/>
    <path d="M127 264L108 266L62 267L62 278L63 278L63 268C 79.7227 268 96.2681 267 113 267C 115.957 267 128.773 268.704 127 264z" stroke="none" fill="#FFB693" fill-rule="nonzero"/>
    <path d="M244 264L247 275L248 275L244 264z" stroke="none" fill="#9A9A9A" fill-rule="nonzero"/>
    <path d="M429 264C 430.999 270.024 439.749 268 445 268L445 268L493 268L493 307L489 307L489 308L494 308L494 267L450 267C 442.851 267 435.055 268.372 429 264zM179 265L180 266L179 265zM245 265L246 266L245 265zM295 265L296 266L295 265zM376.333 265.667L376.667 266.333L376.333 265.667z" stroke="none" fill="#FFB693" fill-rule="nonzero"/>
    <path d="M179 266L180 267L179 266zM295 266L295 270L296 270L295 266z" stroke="none" fill="#9A9A9A" fill-rule="nonzero"/>
    <path d="M178 267L179 268L178 267z" stroke="none" fill="#FFB693" fill-rule="nonzero"/>
    <path d="M376.333 267.667L376.667 268.333L376.333 267.667zM178.333 268.667L178.667 269.333L178.333 268.667z" stroke="none" fill="#9A9A9A" fill-rule="nonzero"/>
    <path d="M246 268L247 269L246 268zM377.333 269.667L377.667 270.333L377.333 269.667zM177 270L178 271L177 270zM294 270L295 271L294 270z" stroke="none" fill="#FFB693" fill-rule="nonzero"/>
    <path d="M177.333 271.667L177.667 272.333L177.333 271.667z" stroke="none" fill="#9A9A9A" fill-rule="nonzero"/>
    <path d="M247 271L248 272L247 271z" stroke="none" fill="#FFB693" fill-rule="nonzero"/>
    <path d="M294 271L294 277L295 277L294 271zM377.333 271.667L377.667 272.333L377.333 271.667z" stroke="none" fill="#9A9A9A" fill-rule="nonzero"/>
    <path d="M176.333 273.667L176.667 274.333L176.333 273.667zM378 273L378 276L379 276L378 273z" stroke="none" fill="#FFB693" fill-rule="nonzero"/>
    <path d="M176.333 275.667L176.667 276.333L176.333 275.667zM248 275L248 278L249 278L248 275zM378 276L378 279L379 279L378 276z" stroke="none" fill="#9A9A9A" fill-rule="nonzero"/>
    <path d="M175 277L175 280L176 280L175 277zM293 277L294 278L293 277zM249 278L250 279L249 278z" stroke="none" fill="#FFB693" fill-rule="nonzero"/>
    <path d="M293 278L293 288L294 288L293 278zM249 279L249 282L250 282L249 279z" stroke="none" fill="#9A9A9A" fill-rule="nonzero"/>
    <path d="M379 279L379 282L380 282L379 279z" stroke="none" fill="#FFB693" fill-rule="nonzero"/>
    <path d="M175 280L175 283L176 283L175 280z" stroke="none" fill="#9A9A9A" fill-rule="nonzero"/>
    <path d="M250 282L251 283L250 282z" stroke="none" fill="#FFB693" fill-rule="nonzero"/>
    <path d="M379 282L379 285L380 285L379 282z" stroke="none" fill="#9A9A9A" fill-rule="nonzero"/>
    <path d="M174 283L174 286L175 286L174 283z" stroke="none" fill="#FFB693" fill-rule="nonzero"/>
    <path d="M250 283L251 292L252 292L250 283z" stroke="none" fill="#9A9A9A" fill-rule="nonzero"/>
    <path d="M380 285L380 290L381 290L380 285z" stroke="none" fill="#FFB693" fill-rule="nonzero"/>
    <path d="M174 286L174 290L175 290L174 286z" stroke="none" fill="#9A9A9A" fill-rule="nonzero"/>
    <path d="M251 286L252 287L251 286zM292 286L292 290L293 290L292 286zM173 290L173 302L174 302L173 290z" stroke="none" fill="#FFB693" fill-rule="nonzero"/>
    <path d="M292 290L292 313L293 313L292 290zM380 290L380 294L381 294L380 290z" stroke="none" fill="#9A9A9A" fill-rule="nonzero"/>
    <path d="M252 292L253 293L252 292z" stroke="none" fill="#FFB693" fill-rule="nonzero"/>
    <path d="M252 293L252 299L253 299L252 293z" stroke="none" fill="#9A9A9A" fill-rule="nonzero"/>
    <path d="M381 294L381 301L382 301L381 294zM253 299L254 300L253 299z" stroke="none" fill="#FFB693" fill-rule="nonzero"/>
    <path d="M253 300L253 311L254 311L253 300zM381 301L381 307L382 307L381 301zM173 302L173 319L174 319L173 302z" stroke="none" fill="#9A9A9A" fill-rule="nonzero"/>
    <path d="M125 307L126 308L125 307zM63 308L63 309L124 309L104 308L63 308zM126 308L127 309L126 308zM382 308L382 381L383 381L383 331L382 308zM430 308L430 309L489 309L470 308L430 308zM254 309L254 312L255 312L254 309zM429 309L429 327L430 327L429 309z" stroke="none" fill="#FFB693" fill-rule="nonzero"/>
    <path d="M254 312L254 338L294 338L294 318L293 318L293 337L255 337L254 312z" stroke="none" fill="#9A9A9A" fill-rule="nonzero"/>
    <path d="M292 313L292 321L293 321L292 313zM127 319L127 333L128 333L127 319zM173 319L173 381L174 381L174 339L173 319zM430 338L430 339L547 339L512 338L430 338zM0 340L0 341L128 341C 117.734 336.692 100.158 340 89 340L89 340L0 340z" stroke="none" fill="#FFB693" fill-rule="nonzero"/>
    <path d="M0 381L0 382L174 382L157 381L122 381L0 381zM382 381L382 382L547 382C 534.355 376.694 511.777 381 498 381L498 381L382 381z" stroke="none" fill="#9A9A9A" fill-rule="nonzero"/>
  </g>
</svg>