<svg width="274" height="478" viewBox="0 0 274 478" fill="none" xmlns="http://www.w3.org/2000/svg">
<path d="M0 0H266C270.418 0 274 3.58172 274 8V470C274 474.418 270.418 478 266 478H0V0Z" fill="#212121"/>
<path d="M17.1477 118V106.364H19.2557V111.29H24.6477V106.364H26.7614V118H24.6477V113.057H19.2557V118H17.1477ZM28.9631 118V109.273H31.0199V118H28.9631ZM29.9972 108.034C29.6714 108.034 29.3911 107.926 29.1562 107.71C28.9214 107.491 28.804 107.227 28.804 106.92C28.804 106.61 28.9214 106.347 29.1562 106.131C29.3911 105.911 29.6714 105.801 29.9972 105.801C30.3267 105.801 30.607 105.911 30.8381 106.131C31.0729 106.347 31.1903 106.61 31.1903 106.92C31.1903 107.227 31.0729 107.491 30.8381 107.71C30.607 107.926 30.3267 108.034 29.9972 108.034ZM40.0327 111.58L38.1577 111.784C38.1046 111.595 38.0118 111.417 37.8793 111.25C37.7505 111.083 37.5762 110.949 37.3565 110.847C37.1368 110.744 36.8679 110.693 36.5497 110.693C36.1217 110.693 35.7618 110.786 35.4702 110.972C35.1823 111.157 35.0402 111.398 35.044 111.693C35.0402 111.947 35.133 112.153 35.3224 112.312C35.5156 112.472 35.8338 112.602 36.277 112.705L37.7656 113.023C38.5914 113.201 39.205 113.483 39.6065 113.869C40.0118 114.256 40.2164 114.761 40.2202 115.386C40.2164 115.936 40.0554 116.42 39.7372 116.841C39.4228 117.258 38.9853 117.583 38.4247 117.818C37.8641 118.053 37.2202 118.17 36.4929 118.17C35.4247 118.17 34.5649 117.947 33.9134 117.5C33.2618 117.049 32.8736 116.422 32.7486 115.619L34.7543 115.426C34.8452 115.82 35.0384 116.117 35.3338 116.318C35.6293 116.519 36.0137 116.619 36.4872 116.619C36.9759 116.619 37.3679 116.519 37.6634 116.318C37.9626 116.117 38.1122 115.869 38.1122 115.574C38.1122 115.324 38.0156 115.117 37.8224 114.955C37.633 114.792 37.3376 114.667 36.9361 114.58L35.4474 114.267C34.6103 114.093 33.991 113.799 33.5895 113.386C33.188 112.97 32.9891 112.443 32.9929 111.807C32.9891 111.269 33.1349 110.803 33.4304 110.409C33.7296 110.011 34.1444 109.705 34.6747 109.489C35.2088 109.269 35.8243 109.159 36.5213 109.159C37.544 109.159 38.349 109.377 38.9361 109.812C39.527 110.248 39.8925 110.837 40.0327 111.58ZM46.2741 109.273V110.864H41.2571V109.273H46.2741ZM42.4957 107.182H44.5526V115.375C44.5526 115.652 44.5942 115.864 44.6776 116.011C44.7647 116.155 44.8783 116.254 45.0185 116.307C45.1586 116.36 45.3139 116.386 45.4844 116.386C45.6132 116.386 45.7306 116.377 45.8366 116.358C45.9465 116.339 46.0298 116.322 46.0866 116.307L46.4332 117.915C46.3234 117.953 46.1662 117.994 45.9616 118.04C45.7609 118.085 45.5147 118.112 45.223 118.119C44.7079 118.134 44.2438 118.057 43.831 117.886C43.4181 117.712 43.0904 117.443 42.848 117.08C42.6094 116.716 42.492 116.261 42.4957 115.716V107.182ZM51.7074 118.17C50.8551 118.17 50.1165 117.983 49.4915 117.608C48.8665 117.233 48.3816 116.708 48.0369 116.034C47.696 115.36 47.5256 114.572 47.5256 113.67C47.5256 112.769 47.696 111.979 48.0369 111.301C48.3816 110.623 48.8665 110.097 49.4915 109.722C50.1165 109.347 50.8551 109.159 51.7074 109.159C52.5597 109.159 53.2983 109.347 53.9233 109.722C54.5483 110.097 55.0313 110.623 55.3722 111.301C55.7169 111.979 55.8892 112.769 55.8892 113.67C55.8892 114.572 55.7169 115.36 55.3722 116.034C55.0313 116.708 54.5483 117.233 53.9233 117.608C53.2983 117.983 52.5597 118.17 51.7074 118.17ZM51.7188 116.523C52.1809 116.523 52.5672 116.396 52.8778 116.142C53.1884 115.884 53.4195 115.54 53.571 115.108C53.7263 114.676 53.804 114.195 53.804 113.665C53.804 113.131 53.7263 112.648 53.571 112.216C53.4195 111.78 53.1884 111.434 52.8778 111.176C52.5672 110.919 52.1809 110.79 51.7188 110.79C51.2453 110.79 50.8513 110.919 50.5369 111.176C50.2263 111.434 49.9934 111.78 49.8381 112.216C49.6866 112.648 49.6108 113.131 49.6108 113.665C49.6108 114.195 49.6866 114.676 49.8381 115.108C49.9934 115.54 50.2263 115.884 50.5369 116.142C50.8513 116.396 51.2453 116.523 51.7188 116.523ZM57.6349 118V109.273H59.6293V110.727H59.7202C59.8793 110.223 60.152 109.835 60.5384 109.562C60.9285 109.286 61.3736 109.148 61.8736 109.148C61.9872 109.148 62.1141 109.153 62.2543 109.165C62.3982 109.172 62.5175 109.186 62.6122 109.205V111.097C62.5251 111.066 62.3868 111.04 62.1974 111.017C62.0118 110.991 61.8319 110.977 61.6577 110.977C61.2827 110.977 60.9455 111.059 60.6463 111.222C60.3509 111.381 60.1179 111.602 59.9474 111.886C59.777 112.17 59.6918 112.498 59.6918 112.869V118H57.6349ZM65.5227 121.273C65.2424 121.273 64.983 121.25 64.7443 121.205C64.5095 121.163 64.322 121.114 64.1818 121.057L64.6591 119.455C64.9583 119.542 65.2254 119.583 65.4602 119.58C65.6951 119.576 65.9015 119.502 66.0795 119.358C66.2614 119.218 66.4148 118.983 66.5398 118.653L66.7159 118.182L63.5511 109.273H65.733L67.7443 115.864H67.8352L69.8523 109.273H72.0398L68.5455 119.057C68.3826 119.519 68.1667 119.915 67.8977 120.244C67.6288 120.578 67.2992 120.831 66.9091 121.006C66.5227 121.184 66.0606 121.273 65.5227 121.273Z" fill="#E4E4E4"/>
<rect x="16" y="269" width="242" height="73" rx="8" fill="#323232"/>
<g clip-path="url(#clip0_14_55)">
<path d="M30.25 294.5C30.25 294.898 30.408 295.279 30.6893 295.561C30.9706 295.842 31.3522 296 31.75 296C32.1478 296 32.5294 295.842 32.8107 295.561C33.092 295.279 33.25 294.898 33.25 294.5C33.25 294.102 33.092 293.721 32.8107 293.439C32.5294 293.158 32.1478 293 31.75 293C31.3522 293 30.9706 293.158 30.6893 293.439C30.408 293.721 30.25 294.102 30.25 294.5Z" stroke="#656565" stroke-width="1.5" stroke-linecap="round" stroke-linejoin="round"/>
<path d="M40.75 285.5C40.75 285.898 40.908 286.279 41.1893 286.561C41.4706 286.842 41.8522 287 42.25 287C42.6478 287 43.0294 286.842 43.3107 286.561C43.592 286.279 43.75 285.898 43.75 285.5C43.75 285.102 43.592 284.721 43.3107 284.439C43.0294 284.158 42.6478 284 42.25 284C41.8522 284 41.4706 284.158 41.1893 284.439C40.908 284.721 40.75 285.102 40.75 285.5Z" stroke="#656565" stroke-width="1.5" stroke-linecap="round" stroke-linejoin="round"/>
<path d="M42.25 287V290.75C42.25 291.745 41.8549 292.698 41.1517 293.402C40.4484 294.105 39.4946 294.5 38.5 294.5H36.25M36.25 294.5L38.5 292.25M36.25 294.5L38.5 296.75" stroke="#656565" stroke-width="1.5" stroke-linecap="round" stroke-linejoin="round"/>
<path d="M31.75 293V289.25C31.75 288.255 32.1451 287.302 32.8483 286.598C33.5516 285.895 34.5054 285.5 35.5 285.5H37.75M37.75 285.5L35.5 283.25M37.75 285.5L35.5 287.75" stroke="#656565" stroke-width="1.5" stroke-linecap="round" stroke-linejoin="round"/>
</g>
<path d="M50.2777 295L54.608 286.429V286.359H49.5817V284.818H56.517V286.394L52.1918 295H50.2777ZM62.0094 287.364V288.756H57.4952V287.364H62.0094ZM58.6238 295V286.643C58.6238 286.129 58.7298 285.701 58.9419 285.36C59.1574 285.019 59.4457 284.763 59.807 284.594C60.1683 284.425 60.5693 284.341 61.0101 284.341C61.3217 284.341 61.5984 284.366 61.8404 284.415C62.0823 284.465 62.2613 284.51 62.3773 284.55L62.0194 285.942C61.9431 285.919 61.847 285.895 61.731 285.872C61.615 285.846 61.4857 285.832 61.3432 285.832C61.0085 285.832 60.7715 285.914 60.6323 286.076C60.4964 286.235 60.4284 286.464 60.4284 286.762V295H58.6238ZM63.399 295V293.668L66.9338 290.202C67.2718 289.861 67.5536 289.558 67.7789 289.293C68.0043 289.027 68.1734 288.771 68.286 288.522C68.3987 288.273 68.4551 288.008 68.4551 287.727C68.4551 287.405 68.3822 287.13 68.2363 286.901C68.0905 286.669 67.89 286.49 67.6348 286.364C67.3796 286.238 67.0895 286.175 66.7647 286.175C66.43 286.175 66.1367 286.245 65.8848 286.384C65.6329 286.52 65.4373 286.714 65.2981 286.966C65.1622 287.218 65.0943 287.518 65.0943 287.866H63.3393C63.3393 287.219 63.4868 286.658 63.7818 286.18C64.0768 285.703 64.4828 285.334 64.9998 285.072C65.5202 284.81 66.1168 284.679 66.7896 284.679C67.4724 284.679 68.0723 284.807 68.5893 285.062C69.1064 285.317 69.5074 285.667 69.7924 286.111C70.0808 286.555 70.225 287.062 70.225 287.632C70.225 288.013 70.152 288.388 70.0062 288.756C69.8604 289.124 69.6035 289.531 69.2356 289.979C68.871 290.426 68.359 290.968 67.6994 291.604L65.9444 293.389V293.459H70.3791V295H63.399ZM75.4352 298.023C74.7889 298.023 74.2337 297.935 73.7697 297.759C73.3057 297.587 72.9328 297.355 72.6511 297.063C72.3694 296.772 72.1738 296.448 72.0645 296.094L73.6852 295.701C73.7581 295.85 73.8642 295.998 74.0034 296.143C74.1426 296.293 74.3298 296.415 74.5652 296.511C74.8038 296.611 75.1038 296.661 75.465 296.661C75.9754 296.661 76.398 296.536 76.7328 296.288C77.0675 296.042 77.2349 295.638 77.2349 295.075V293.628H77.1454C77.0526 293.813 76.9167 294.004 76.7377 294.2C76.5621 294.395 76.3284 294.559 76.0368 294.692C75.7484 294.824 75.3855 294.891 74.948 294.891C74.3613 294.891 73.8294 294.753 73.3521 294.478C72.8781 294.2 72.5003 293.785 72.2186 293.235C71.9402 292.682 71.801 291.989 71.801 291.157C71.801 290.318 71.9402 289.611 72.2186 289.034C72.5003 288.454 72.8798 288.015 73.3571 287.717C73.8343 287.415 74.3663 287.264 74.9529 287.264C75.4004 287.264 75.7683 287.34 76.0566 287.493C76.3483 287.642 76.5803 287.823 76.7527 288.035C76.925 288.244 77.0559 288.441 77.1454 288.626H77.2449V287.364H79.0197V295.124C79.0197 295.777 78.8639 296.317 78.5524 296.745C78.2408 297.173 77.8149 297.492 77.2747 297.705C76.7344 297.917 76.1213 298.023 75.4352 298.023ZM75.4501 293.479C75.8313 293.479 76.1561 293.386 76.4245 293.2C76.693 293.015 76.8968 292.748 77.036 292.4C77.1752 292.052 77.2449 291.634 77.2449 291.147C77.2449 290.666 77.1752 290.246 77.036 289.884C76.9002 289.523 76.698 289.243 76.4295 289.044C76.1644 288.842 75.8379 288.741 75.4501 288.741C75.0491 288.741 74.7143 288.845 74.4458 289.054C74.1774 289.263 73.9752 289.549 73.8393 289.914C73.7034 290.275 73.6355 290.686 73.6355 291.147C73.6355 291.614 73.7034 292.024 73.8393 292.375C73.9785 292.723 74.1824 292.995 74.4508 293.19C74.7226 293.383 75.0557 293.479 75.4501 293.479ZM81.9728 295.109C81.6712 295.109 81.4127 295.003 81.1973 294.791C80.9818 294.579 80.8758 294.321 80.8791 294.016C80.8758 293.717 80.9818 293.462 81.1973 293.25C81.4127 293.038 81.6712 292.932 81.9728 292.932C82.2645 292.932 82.5181 293.038 82.7335 293.25C82.9522 293.462 83.0633 293.717 83.0666 294.016C83.0633 294.218 83.0102 294.402 82.9075 294.567C82.8081 294.733 82.6755 294.866 82.5098 294.965C82.3474 295.061 82.1684 295.109 81.9728 295.109ZM86.0334 295.109C85.7318 295.109 85.4732 295.003 85.2578 294.791C85.0424 294.579 84.9363 294.321 84.9396 294.016C84.9363 293.717 85.0424 293.462 85.2578 293.25C85.4732 293.038 85.7318 292.932 86.0334 292.932C86.325 292.932 86.5786 293.038 86.794 293.25C87.0128 293.462 87.1238 293.717 87.1271 294.016C87.1238 294.218 87.0708 294.402 86.968 294.567C86.8686 294.733 86.736 294.866 86.5703 294.965C86.4079 295.061 86.2289 295.109 86.0334 295.109ZM90.0939 295.109C89.7923 295.109 89.5338 295.003 89.3184 294.791C89.1029 294.579 88.9969 294.321 89.0002 294.016C88.9969 293.717 89.1029 293.462 89.3184 293.25C89.5338 293.038 89.7923 292.932 90.0939 292.932C90.3856 292.932 90.6391 293.038 90.8546 293.25C91.0733 293.462 91.1844 293.717 91.1877 294.016C91.1844 294.218 91.1313 294.402 91.0286 294.567C90.9292 294.733 90.7966 294.866 90.6309 294.965C90.4685 295.061 90.2895 295.109 90.0939 295.109ZM95.9094 284.818V295H94.065V286.613H94.0053L91.6239 288.134V286.444L94.1545 284.818H95.9094ZM101.895 295.149C101.13 295.149 100.468 294.99 99.9116 294.672C99.3581 294.35 98.9322 293.896 98.6339 293.31C98.3356 292.72 98.1864 292.025 98.1864 291.227C98.1864 290.441 98.3356 289.752 98.6339 289.158C98.9355 288.562 99.3564 288.098 99.8967 287.766C100.437 287.432 101.072 287.264 101.801 287.264C102.271 287.264 102.716 287.34 103.133 287.493C103.554 287.642 103.925 287.874 104.247 288.189C104.572 288.504 104.827 288.905 105.012 289.392C105.198 289.876 105.291 290.453 105.291 291.122V291.674H99.0316V290.461H103.566C103.562 290.116 103.488 289.81 103.342 289.541C103.196 289.269 102.992 289.056 102.73 288.9C102.472 288.744 102.17 288.666 101.826 288.666C101.458 288.666 101.135 288.756 100.856 288.935C100.578 289.11 100.361 289.342 100.205 289.631C100.052 289.916 99.9746 290.229 99.9712 290.57V291.629C99.9712 292.073 100.052 292.455 100.215 292.773C100.377 293.088 100.604 293.33 100.896 293.499C101.188 293.664 101.529 293.747 101.92 293.747C102.182 293.747 102.419 293.711 102.631 293.638C102.843 293.562 103.027 293.451 103.183 293.305C103.339 293.159 103.456 292.978 103.536 292.763L105.216 292.952C105.11 293.396 104.908 293.784 104.61 294.115C104.315 294.443 103.937 294.698 103.476 294.881C103.016 295.06 102.489 295.149 101.895 295.149ZM112.849 289.382L111.208 289.561C111.162 289.395 111.081 289.24 110.965 289.094C110.852 288.948 110.7 288.83 110.507 288.741C110.315 288.651 110.08 288.607 109.801 288.607C109.427 288.607 109.112 288.688 108.857 288.85C108.605 289.013 108.481 289.223 108.484 289.482C108.481 289.704 108.562 289.884 108.727 290.023C108.896 290.163 109.175 290.277 109.563 290.366L110.865 290.645C111.588 290.801 112.125 291.048 112.476 291.386C112.831 291.724 113.01 292.166 113.013 292.713C113.01 293.194 112.869 293.618 112.59 293.986C112.315 294.35 111.932 294.635 111.442 294.841C110.951 295.046 110.388 295.149 109.752 295.149C108.817 295.149 108.065 294.954 107.494 294.562C106.924 294.168 106.585 293.62 106.475 292.917L108.23 292.748C108.31 293.093 108.479 293.353 108.737 293.528C108.996 293.704 109.332 293.792 109.747 293.792C110.174 293.792 110.517 293.704 110.776 293.528C111.038 293.353 111.169 293.136 111.169 292.877C111.169 292.658 111.084 292.478 110.915 292.335C110.749 292.193 110.491 292.083 110.139 292.007L108.837 291.734C108.104 291.581 107.562 291.324 107.211 290.963C106.86 290.598 106.686 290.138 106.689 289.581C106.686 289.11 106.813 288.703 107.072 288.358C107.334 288.01 107.697 287.741 108.161 287.553C108.628 287.36 109.167 287.264 109.776 287.264C110.671 287.264 111.376 287.455 111.889 287.836C112.406 288.217 112.726 288.732 112.849 289.382ZM118.31 287.364V288.756H113.92V287.364H118.31ZM115.004 285.534H116.804V292.703C116.804 292.945 116.84 293.131 116.913 293.26C116.989 293.386 117.089 293.472 117.211 293.518C117.334 293.565 117.47 293.588 117.619 293.588C117.732 293.588 117.835 293.58 117.927 293.563C118.023 293.547 118.096 293.532 118.146 293.518L118.449 294.925C118.353 294.959 118.216 294.995 118.037 295.035C117.861 295.075 117.646 295.098 117.39 295.104C116.94 295.118 116.534 295.05 116.172 294.901C115.811 294.748 115.524 294.513 115.312 294.195C115.104 293.876 115.001 293.479 115.004 293.001V285.534Z" fill="#CCCCCC"/>
<rect x="27" y="305" width="87" height="3" rx="1.5" fill="#898989"/>
<rect x="25" y="316" width="223" height="20" rx="3" fill="#252525"/>
<rect x="27" y="318" width="145" height="16" rx="1" fill="#14B214"/>
<rect x="174" y="318" width="36" height="16" rx="1" fill="#8E4203"/>
<rect x="212" y="318" width="34" height="16" rx="1" fill="#741B1B"/>
<rect x="82" y="325" width="36" height="3" rx="1.5" fill="#A6F7A6"/>
<rect x="16" y="162" width="242" height="97" rx="8" fill="#FF9800"/>
<path d="M59.5589 188.139C58.843 188.139 58.2067 188.017 57.6499 187.771C57.0964 187.526 56.6589 187.185 56.3374 186.747C56.0159 186.31 55.8452 185.804 55.8253 185.231H57.6946C57.7112 185.506 57.8023 185.746 57.968 185.952C58.1338 186.154 58.3542 186.311 58.6293 186.424C58.9044 186.537 59.2126 186.593 59.554 186.593C59.9186 186.593 60.2417 186.53 60.5234 186.404C60.8052 186.275 61.0256 186.096 61.1847 185.867C61.3438 185.638 61.4216 185.375 61.4183 185.077C61.4216 184.768 61.3421 184.497 61.1797 184.261C61.0173 184.026 60.782 183.842 60.4737 183.71C60.1688 183.577 59.8009 183.511 59.37 183.511H58.4702V182.089H59.37C59.7247 182.089 60.0346 182.027 60.2997 181.905C60.5682 181.782 60.7786 181.61 60.9311 181.388C61.0836 181.162 61.1581 180.902 61.1548 180.607C61.1581 180.319 61.0935 180.069 60.9609 179.857C60.8317 179.641 60.6477 179.474 60.4091 179.354C60.1738 179.235 59.897 179.175 59.5788 179.175C59.2673 179.175 58.9789 179.232 58.7138 179.344C58.4486 179.457 58.2348 179.618 58.0724 179.827C57.91 180.032 57.8239 180.277 57.8139 180.562H56.0391C56.0523 179.992 56.2164 179.492 56.5312 179.061C56.8494 178.627 57.2737 178.289 57.804 178.047C58.3343 177.802 58.9292 177.679 59.5888 177.679C60.2682 177.679 60.8582 177.807 61.3587 178.062C61.8625 178.314 62.2519 178.653 62.527 179.081C62.8021 179.509 62.9396 179.981 62.9396 180.498C62.9429 181.071 62.7739 181.552 62.4325 181.94C62.0945 182.327 61.6503 182.581 61.1001 182.7V182.78C61.8161 182.879 62.3646 183.144 62.7457 183.575C63.1302 184.003 63.3208 184.535 63.3175 185.171C63.3175 185.741 63.1551 186.252 62.8303 186.702C62.5088 187.15 62.0646 187.501 61.4979 187.756C60.9344 188.012 60.2881 188.139 59.5589 188.139ZM64.84 186.111V184.644L69.1603 177.818H70.3833V179.906H69.6376L66.7292 184.515V184.594H72.7598V186.111H64.84ZM69.6973 188V185.663L69.7172 185.007V177.818H71.4572V188H69.6973ZM77.6891 191.023C77.0428 191.023 76.4876 190.935 76.0236 190.759C75.5596 190.587 75.1867 190.355 74.905 190.063C74.6233 189.772 74.4277 189.448 74.3184 189.094L75.9391 188.701C76.012 188.85 76.1181 188.998 76.2573 189.143C76.3965 189.293 76.5837 189.415 76.8191 189.511C77.0577 189.611 77.3577 189.661 77.7189 189.661C78.2293 189.661 78.6519 189.536 78.9867 189.288C79.3214 189.042 79.4888 188.638 79.4888 188.075V186.628H79.3993C79.3065 186.813 79.1706 187.004 78.9917 187.2C78.816 187.395 78.5823 187.559 78.2907 187.692C78.0023 187.824 77.6394 187.891 77.2019 187.891C76.6152 187.891 76.0833 187.753 75.606 187.478C75.132 187.2 74.7542 186.785 74.4725 186.235C74.1941 185.682 74.0549 184.989 74.0549 184.157C74.0549 183.318 74.1941 182.611 74.4725 182.034C74.7542 181.454 75.1337 181.015 75.611 180.717C76.0882 180.415 76.6202 180.264 77.2069 180.264C77.6543 180.264 78.0222 180.34 78.3105 180.493C78.6022 180.642 78.8342 180.823 79.0066 181.035C79.1789 181.244 79.3098 181.441 79.3993 181.626H79.4988V180.364H81.2736V188.124C81.2736 188.777 81.1178 189.317 80.8063 189.745C80.4947 190.173 80.0688 190.492 79.5286 190.705C78.9883 190.917 78.3752 191.023 77.6891 191.023ZM77.704 186.479C78.0852 186.479 78.41 186.386 78.6784 186.2C78.9469 186.015 79.1507 185.748 79.29 185.4C79.4292 185.052 79.4988 184.634 79.4988 184.147C79.4988 183.666 79.4292 183.246 79.29 182.884C79.1541 182.523 78.9519 182.243 78.6834 182.044C78.4183 181.842 78.0918 181.741 77.704 181.741C77.303 181.741 76.9682 181.845 76.6998 182.054C76.4313 182.263 76.2291 182.549 76.0932 182.914C75.9573 183.275 75.8894 183.686 75.8894 184.147C75.8894 184.614 75.9573 185.024 76.0932 185.375C76.2324 185.723 76.4363 185.995 76.7047 186.19C76.9765 186.383 77.3096 186.479 77.704 186.479ZM86.7523 188.139C86.0364 188.139 85.4 188.017 84.8432 187.771C84.2897 187.526 83.8522 187.185 83.5307 186.747C83.2092 186.31 83.0385 185.804 83.0186 185.231H84.888C84.9045 185.506 84.9957 185.746 85.1614 185.952C85.3271 186.154 85.5475 186.311 85.8226 186.424C86.0977 186.537 86.406 186.593 86.7473 186.593C87.1119 186.593 87.4351 186.53 87.7168 186.404C87.9985 186.275 88.2189 186.096 88.378 185.867C88.5371 185.638 88.615 185.375 88.6117 185.077C88.615 184.768 88.5355 184.497 88.373 184.261C88.2106 184.026 87.9753 183.842 87.6671 183.71C87.3622 183.577 86.9943 183.511 86.5634 183.511H85.6635V182.089H86.5634C86.918 182.089 87.2279 182.027 87.4931 181.905C87.7615 181.782 87.972 181.61 88.1245 181.388C88.2769 181.162 88.3515 180.902 88.3482 180.607C88.3515 180.319 88.2869 180.069 88.1543 179.857C88.025 179.641 87.8411 179.474 87.6025 179.354C87.3671 179.235 87.0904 179.175 86.7722 179.175C86.4606 179.175 86.1723 179.232 85.9071 179.344C85.642 179.457 85.4282 179.618 85.2658 179.827C85.1034 180.032 85.0172 180.277 85.0073 180.562H83.2324C83.2457 179.992 83.4097 179.492 83.7246 179.061C84.0428 178.627 84.467 178.289 84.9973 178.047C85.5276 177.802 86.1226 177.679 86.7821 177.679C87.4616 177.679 88.0516 177.807 88.552 178.062C89.0558 178.314 89.4453 178.653 89.7203 179.081C89.9954 179.509 90.133 179.981 90.133 180.498C90.1363 181.071 89.9673 181.552 89.6259 181.94C89.2878 182.327 88.8437 182.581 88.2935 182.7V182.78C89.0094 182.879 89.5579 183.144 89.9391 183.575C90.3236 184.003 90.5141 184.535 90.5108 185.171C90.5108 185.741 90.3484 186.252 90.0236 186.702C89.7021 187.15 89.258 187.501 88.6912 187.756C88.1278 188.012 87.4815 188.139 86.7523 188.139ZM93.0451 188.109C92.7435 188.109 92.485 188.003 92.2695 187.791C92.0541 187.579 91.948 187.321 91.9513 187.016C91.948 186.717 92.0541 186.462 92.2695 186.25C92.485 186.038 92.7435 185.932 93.0451 185.932C93.3368 185.932 93.5903 186.038 93.8058 186.25C94.0245 186.462 94.1355 186.717 94.1388 187.016C94.1355 187.218 94.0825 187.402 93.9798 187.567C93.8803 187.733 93.7478 187.866 93.582 187.965C93.4196 188.061 93.2406 188.109 93.0451 188.109ZM97.1056 188.109C96.804 188.109 96.5455 188.003 96.3301 187.791C96.1146 187.579 96.0086 187.321 96.0119 187.016C96.0086 186.717 96.1146 186.462 96.3301 186.25C96.5455 186.038 96.804 185.932 97.1056 185.932C97.3973 185.932 97.6509 186.038 97.8663 186.25C98.085 186.462 98.1961 186.717 98.1994 187.016C98.1961 187.218 98.1431 187.402 98.0403 187.567C97.9409 187.733 97.8083 187.866 97.6426 187.965C97.4802 188.061 97.3012 188.109 97.1056 188.109ZM101.166 188.109C100.865 188.109 100.606 188.003 100.391 187.791C100.175 187.579 100.069 187.321 100.072 187.016C100.069 186.717 100.175 186.462 100.391 186.25C100.606 186.038 100.865 185.932 101.166 185.932C101.458 185.932 101.711 186.038 101.927 186.25C102.146 186.462 102.257 186.717 102.26 187.016C102.257 187.218 102.204 187.402 102.101 187.567C102.001 187.733 101.869 187.866 101.703 187.965C101.541 188.061 101.362 188.109 101.166 188.109ZM107.931 180.364V181.756H103.541V180.364H107.931ZM104.625 178.534H106.425V185.703C106.425 185.945 106.461 186.131 106.534 186.26C106.61 186.386 106.71 186.472 106.833 186.518C106.955 186.565 107.091 186.588 107.24 186.588C107.353 186.588 107.456 186.58 107.548 186.563C107.645 186.547 107.718 186.532 107.767 186.518L108.07 187.925C107.974 187.959 107.837 187.995 107.658 188.035C107.482 188.075 107.267 188.098 107.012 188.104C106.561 188.118 106.155 188.05 105.794 187.901C105.432 187.748 105.146 187.513 104.933 187.195C104.725 186.876 104.622 186.479 104.625 186.001V178.534ZM113.071 188.139C112.355 188.139 111.718 188.017 111.162 187.771C110.608 187.526 110.171 187.185 109.849 186.747C109.528 186.31 109.357 185.804 109.337 185.231H111.206C111.223 185.506 111.314 185.746 111.48 185.952C111.645 186.154 111.866 186.311 112.141 186.424C112.416 186.537 112.724 186.593 113.066 186.593C113.43 186.593 113.753 186.53 114.035 186.404C114.317 186.275 114.537 186.096 114.696 185.867C114.855 185.638 114.933 185.375 114.93 185.077C114.933 184.768 114.854 184.497 114.691 184.261C114.529 184.026 114.294 183.842 113.985 183.71C113.681 183.577 113.313 183.511 112.882 183.511H111.982V182.089H112.882C113.236 182.089 113.546 182.027 113.811 181.905C114.08 181.782 114.29 181.61 114.443 181.388C114.595 181.162 114.67 180.902 114.667 180.607C114.67 180.319 114.605 180.069 114.473 179.857C114.343 179.641 114.159 179.474 113.921 179.354C113.685 179.235 113.409 179.175 113.091 179.175C112.779 179.175 112.491 179.232 112.225 179.344C111.96 179.457 111.747 179.618 111.584 179.827C111.422 180.032 111.336 180.277 111.326 180.562H109.551C109.564 179.992 109.728 179.492 110.043 179.061C110.361 178.627 110.785 178.289 111.316 178.047C111.846 177.802 112.441 177.679 113.1 177.679C113.78 177.679 114.37 177.807 114.87 178.062C115.374 178.314 115.764 178.653 116.039 179.081C116.314 179.509 116.451 179.981 116.451 180.498C116.455 181.071 116.286 181.552 115.944 181.94C115.606 182.327 115.162 182.581 114.612 182.7V182.78C115.328 182.879 115.876 183.144 116.257 183.575C116.642 184.003 116.833 184.535 116.829 185.171C116.829 185.741 116.667 186.252 116.342 186.702C116.02 187.15 115.576 187.501 115.01 187.756C114.446 188.012 113.8 188.139 113.071 188.139ZM122.075 188.139C121.413 188.139 120.819 188.015 120.296 187.766C119.772 187.514 119.356 187.17 119.048 186.732C118.743 186.295 118.58 185.794 118.561 185.231H120.35C120.383 185.648 120.564 185.99 120.892 186.255C121.22 186.517 121.615 186.648 122.075 186.648C122.437 186.648 122.758 186.565 123.04 186.399C123.322 186.233 123.544 186.003 123.706 185.708C123.869 185.413 123.948 185.077 123.945 184.699C123.948 184.314 123.867 183.973 123.701 183.675C123.535 183.376 123.308 183.143 123.02 182.974C122.732 182.801 122.4 182.715 122.026 182.715C121.721 182.712 121.421 182.768 121.126 182.884C120.831 183 120.597 183.153 120.425 183.342L118.759 183.068L119.291 177.818H125.198V179.359H120.818L120.524 182.059H120.584C120.773 181.837 121.04 181.653 121.384 181.507C121.729 181.358 122.107 181.283 122.518 181.283C123.134 181.283 123.685 181.429 124.169 181.721C124.652 182.009 125.034 182.407 125.312 182.914C125.59 183.421 125.73 184.001 125.73 184.654C125.73 185.327 125.574 185.927 125.262 186.454C124.954 186.978 124.525 187.39 123.975 187.692C123.428 187.99 122.795 188.139 122.075 188.139ZM131.536 177.818V188H129.692V179.613H129.632L127.251 181.134V179.444L129.781 177.818H131.536Z" fill="white"/>
<rect x="55" y="197" width="136" height="3" rx="1.5" fill="#F8C06F"/>
<rect x="55" y="208" width="87" height="3" rx="1.5" fill="#F8C06F"/>
<g clip-path="url(#clip1_14_55)">
<path d="M37 181V185" stroke="white" stroke-width="2" stroke-linecap="round" stroke-linejoin="round"/>
<path d="M35.363 175.591L27.257 189.125C27.0899 189.414 27.0015 189.742 27.0005 190.077C26.9995 190.411 27.0861 190.739 27.2515 191.03C27.417 191.32 27.6556 191.562 27.9435 191.732C28.2315 191.901 28.5588 191.992 28.893 191.996H45.107C45.441 191.992 45.7682 191.901 46.056 191.731C46.3438 191.562 46.5823 191.32 46.7477 191.03C46.9131 190.74 46.9997 190.411 46.9989 190.077C46.9981 189.743 46.9098 189.415 46.743 189.126L38.637 175.59C38.4664 175.309 38.2262 175.076 37.9394 174.914C37.6527 174.753 37.3291 174.668 37 174.668C36.6709 174.668 36.3473 174.753 36.0605 174.914C35.7738 175.076 35.5335 175.309 35.363 175.59V175.591Z" stroke="white" stroke-width="2" stroke-linecap="round" stroke-linejoin="round"/>
<path d="M37 188H37.01" stroke="white" stroke-width="2" stroke-linecap="round" stroke-linejoin="round"/>
</g>
<rect x="25" y="229" width="223" height="20" rx="3" fill="#41331F"/>
<rect x="27" y="231" width="63" height="16" rx="1" fill="#2E592E"/>
<rect x="92" y="231" width="118" height="16" rx="1" fill="#FF7300"/>
<rect x="212" y="231" width="34" height="16" rx="1" fill="#741B1B"/>
<path d="M99.8807 242V234.727H102.338C102.906 234.727 103.373 234.824 103.737 235.018C104.102 235.21 104.372 235.474 104.547 235.81C104.722 236.147 104.81 236.529 104.81 236.957C104.81 237.386 104.722 237.766 104.547 238.097C104.372 238.429 104.103 238.689 103.741 238.879C103.379 239.066 102.916 239.159 102.352 239.159H100.364V238.364H102.324C102.712 238.364 103.025 238.307 103.261 238.193C103.5 238.08 103.673 237.919 103.78 237.71C103.889 237.5 103.943 237.249 103.943 236.957C103.943 236.666 103.889 236.412 103.78 236.194C103.671 235.976 103.497 235.808 103.258 235.69C103.019 235.569 102.703 235.509 102.31 235.509H100.761V242H99.8807ZM103.304 238.733L105.094 242H104.071L102.31 238.733H103.304ZM108.392 242.114C107.866 242.114 107.413 241.998 107.032 241.766C106.653 241.531 106.361 241.205 106.155 240.786C105.951 240.364 105.849 239.874 105.849 239.315C105.849 238.757 105.951 238.264 106.155 237.838C106.361 237.41 106.647 237.076 107.014 236.837C107.383 236.595 107.814 236.474 108.307 236.474C108.591 236.474 108.871 236.522 109.148 236.616C109.425 236.711 109.677 236.865 109.905 237.078C110.132 237.289 110.313 237.568 110.448 237.916C110.583 238.264 110.65 238.693 110.65 239.202V239.557H106.446V238.832H109.798C109.798 238.525 109.737 238.25 109.613 238.009C109.493 237.767 109.32 237.576 109.095 237.437C108.872 237.297 108.61 237.227 108.307 237.227C107.973 237.227 107.684 237.31 107.44 237.476C107.199 237.639 107.013 237.852 106.883 238.115C106.752 238.378 106.687 238.66 106.687 238.96V239.443C106.687 239.855 106.758 240.204 106.9 240.491C107.045 240.775 107.245 240.991 107.501 241.141C107.756 241.287 108.053 241.361 108.392 241.361C108.612 241.361 108.811 241.33 108.988 241.268C109.168 241.205 109.323 241.11 109.454 240.984C109.584 240.857 109.684 240.698 109.756 240.509L110.565 240.736C110.48 241.01 110.337 241.252 110.135 241.46C109.934 241.666 109.686 241.827 109.39 241.943C109.094 242.057 108.761 242.114 108.392 242.114ZM114.354 236.545V237.256H111.414V236.545H114.354ZM112.295 242V235.793C112.295 235.48 112.368 235.22 112.515 235.011C112.662 234.803 112.852 234.647 113.086 234.543C113.321 234.438 113.568 234.386 113.829 234.386C114.035 234.386 114.203 234.403 114.333 234.436C114.463 234.469 114.56 234.5 114.624 234.528L114.383 235.253C114.34 235.239 114.281 235.221 114.205 235.2C114.132 235.178 114.035 235.168 113.914 235.168C113.637 235.168 113.437 235.237 113.314 235.377C113.193 235.517 113.133 235.722 113.133 235.991V242H112.295ZM118.966 239.77V236.545H119.804V242H118.966V241.077H118.909C118.782 241.354 118.583 241.589 118.313 241.783C118.043 241.975 117.702 242.071 117.29 242.071C116.949 242.071 116.646 241.996 116.381 241.847C116.116 241.696 115.908 241.469 115.756 241.165C115.605 240.86 115.529 240.475 115.529 240.011V236.545H116.367V239.955C116.367 240.352 116.478 240.67 116.701 240.906C116.926 241.143 117.212 241.261 117.56 241.261C117.768 241.261 117.98 241.208 118.196 241.102C118.413 240.995 118.596 240.832 118.743 240.612C118.892 240.391 118.966 240.111 118.966 239.77ZM122.177 238.719V242H121.339V236.545H122.149V237.398H122.22C122.348 237.121 122.542 236.898 122.802 236.73C123.063 236.56 123.399 236.474 123.811 236.474C124.18 236.474 124.503 236.55 124.78 236.702C125.057 236.851 125.273 237.078 125.427 237.384C125.581 237.687 125.657 238.07 125.657 238.534V242H124.819V238.591C124.819 238.162 124.708 237.829 124.486 237.589C124.263 237.348 123.958 237.227 123.569 237.227C123.302 237.227 123.063 237.285 122.852 237.401C122.644 237.517 122.479 237.687 122.358 237.909C122.238 238.132 122.177 238.402 122.177 238.719ZM129.249 242.114C128.794 242.114 128.393 241.999 128.045 241.769C127.697 241.537 127.424 241.21 127.228 240.789C127.031 240.365 126.933 239.865 126.933 239.287C126.933 238.714 127.031 238.217 127.228 237.795C127.424 237.374 127.698 237.049 128.048 236.819C128.399 236.589 128.804 236.474 129.263 236.474C129.618 236.474 129.898 236.534 130.104 236.652C130.313 236.768 130.471 236.901 130.58 237.05C130.692 237.196 130.778 237.317 130.839 237.412H130.911V234.727H131.749V242H130.939V241.162H130.839C130.778 241.261 130.69 241.387 130.577 241.538C130.463 241.687 130.301 241.821 130.09 241.94C129.879 242.056 129.599 242.114 129.249 242.114ZM129.362 241.361C129.698 241.361 129.982 241.273 130.214 241.098C130.446 240.92 130.623 240.675 130.744 240.363C130.864 240.048 130.925 239.685 130.925 239.273C130.925 238.866 130.866 238.509 130.747 238.204C130.629 237.896 130.454 237.657 130.222 237.487C129.99 237.314 129.703 237.227 129.362 237.227C129.007 237.227 128.711 237.318 128.474 237.501C128.24 237.681 128.064 237.926 127.945 238.236C127.829 238.544 127.771 238.889 127.771 239.273C127.771 239.661 127.83 240.014 127.949 240.331C128.07 240.646 128.247 240.897 128.482 241.084C128.718 241.268 129.012 241.361 129.362 241.361Z" fill="white"/>
<rect x="41" y="238" width="36" height="3" rx="1.5" fill="#588158"/>
<rect x="82" y="357" width="111" height="18" rx="9" fill="#525151"/>
<g clip-path="url(#clip2_14_55)">
<path d="M175 364L179 368L183 364" stroke="#898989" stroke-width="1.25" stroke-linecap="round" stroke-linejoin="round"/>
</g>
<path d="M92.6818 361.153C93.0398 361.156 93.3977 361.224 93.7557 361.358C94.1136 361.491 94.4403 361.713 94.7358 362.023C95.0313 362.33 95.2685 362.749 95.4474 363.28C95.6264 363.811 95.7159 364.477 95.7159 365.278C95.7159 366.054 95.642 366.743 95.4943 367.345C95.3494 367.945 95.1392 368.45 94.8636 368.862C94.5909 369.274 94.2585 369.587 93.8665 369.8C93.4773 370.013 93.0369 370.119 92.5455 370.119C92.0568 370.119 91.6207 370.023 91.2372 369.83C90.8565 369.634 90.544 369.362 90.2997 369.016C90.0582 368.666 89.9034 368.261 89.8352 367.801H90.875C90.9688 368.202 91.1548 368.533 91.4332 368.794C91.7145 369.053 92.0852 369.182 92.5455 369.182C93.2188 369.182 93.75 368.888 94.1392 368.3C94.5313 367.712 94.7273 366.881 94.7273 365.807H94.6591C94.5 366.045 94.3111 366.251 94.0923 366.425C93.8736 366.598 93.6307 366.732 93.3636 366.825C93.0966 366.919 92.8125 366.966 92.5114 366.966C92.0114 366.966 91.5526 366.842 91.1349 366.595C90.7202 366.345 90.3878 366.003 90.1378 365.568C89.8906 365.131 89.767 364.631 89.767 364.068C89.767 363.534 89.8864 363.045 90.125 362.602C90.3665 362.156 90.7045 361.801 91.1392 361.537C91.5767 361.273 92.0909 361.145 92.6818 361.153ZM92.6818 362.091C92.3239 362.091 92.0014 362.18 91.7145 362.359C91.4304 362.536 91.2045 362.774 91.0369 363.075C90.8722 363.374 90.7898 363.705 90.7898 364.068C90.7898 364.432 90.8693 364.763 91.0284 365.061C91.1903 365.357 91.4105 365.592 91.6889 365.768C91.9702 365.942 92.2898 366.028 92.6477 366.028C92.9176 366.028 93.169 365.976 93.402 365.871C93.6349 365.763 93.8381 365.616 94.0114 365.432C94.1875 365.244 94.3253 365.033 94.4247 364.797C94.5241 364.558 94.5739 364.31 94.5739 364.051C94.5739 363.71 94.4915 363.391 94.3267 363.092C94.1648 362.794 93.9403 362.553 93.6534 362.368C93.3693 362.183 93.0455 362.091 92.6818 362.091ZM99.9656 368.466V362.841H100.92V368.466H99.9656ZM97.6303 366.131V365.176H103.255V366.131H97.6303ZM115.853 364H114.796C114.734 363.696 114.624 363.429 114.468 363.199C114.315 362.969 114.127 362.776 113.906 362.619C113.687 362.46 113.444 362.341 113.177 362.261C112.91 362.182 112.631 362.142 112.342 362.142C111.813 362.142 111.335 362.276 110.906 362.543C110.479 362.81 110.14 363.203 109.887 363.723C109.637 364.243 109.512 364.881 109.512 365.636C109.512 366.392 109.637 367.03 109.887 367.55C110.14 368.07 110.479 368.463 110.906 368.73C111.335 368.997 111.813 369.131 112.342 369.131C112.631 369.131 112.91 369.091 113.177 369.011C113.444 368.932 113.687 368.814 113.906 368.658C114.127 368.499 114.315 368.304 114.468 368.074C114.624 367.841 114.734 367.574 114.796 367.273H115.853C115.773 367.719 115.629 368.118 115.418 368.47C115.208 368.822 114.947 369.122 114.634 369.369C114.322 369.614 113.971 369.8 113.582 369.928C113.195 370.055 112.782 370.119 112.342 370.119C111.597 370.119 110.935 369.938 110.356 369.574C109.776 369.21 109.32 368.693 108.988 368.023C108.656 367.352 108.489 366.557 108.489 365.636C108.489 364.716 108.656 363.92 108.988 363.25C109.32 362.58 109.776 362.062 110.356 361.699C110.935 361.335 111.597 361.153 112.342 361.153C112.782 361.153 113.195 361.217 113.582 361.345C113.971 361.473 114.322 361.661 114.634 361.908C114.947 362.152 115.208 362.45 115.418 362.803C115.629 363.152 115.773 363.551 115.853 364ZM120.083 370.136C119.493 370.136 118.974 369.996 118.528 369.714C118.085 369.433 117.738 369.04 117.488 368.534C117.241 368.028 117.118 367.437 117.118 366.761C117.118 366.08 117.241 365.484 117.488 364.976C117.738 364.467 118.085 364.072 118.528 363.791C118.974 363.51 119.493 363.369 120.083 363.369C120.674 363.369 121.191 363.51 121.635 363.791C122.081 364.072 122.427 364.467 122.674 364.976C122.924 365.484 123.049 366.08 123.049 366.761C123.049 367.437 122.924 368.028 122.674 368.534C122.427 369.04 122.081 369.433 121.635 369.714C121.191 369.996 120.674 370.136 120.083 370.136ZM120.083 369.233C120.532 369.233 120.902 369.118 121.191 368.888C121.481 368.658 121.696 368.355 121.835 367.98C121.974 367.605 122.044 367.199 122.044 366.761C122.044 366.324 121.974 365.916 121.835 365.538C121.696 365.161 121.481 364.855 121.191 364.622C120.902 364.389 120.532 364.273 120.083 364.273C119.635 364.273 119.265 364.389 118.975 364.622C118.686 364.855 118.471 365.161 118.332 365.538C118.193 365.916 118.123 366.324 118.123 366.761C118.123 367.199 118.193 367.605 118.332 367.98C118.471 368.355 118.686 368.658 118.975 368.888C119.265 369.118 119.635 369.233 120.083 369.233ZM124.585 370V363.455H125.556V364.477H125.641C125.778 364.128 125.998 363.857 126.302 363.663C126.606 363.467 126.971 363.369 127.397 363.369C127.829 363.369 128.188 363.467 128.475 363.663C128.765 363.857 128.991 364.128 129.153 364.477H129.221C129.388 364.139 129.64 363.871 129.975 363.672C130.31 363.47 130.712 363.369 131.181 363.369C131.766 363.369 132.245 363.553 132.617 363.919C132.989 364.283 133.175 364.849 133.175 365.619V370H132.17V365.619C132.17 365.136 132.038 364.791 131.773 364.584C131.509 364.376 131.198 364.273 130.84 364.273C130.38 364.273 130.023 364.412 129.771 364.69C129.518 364.966 129.391 365.315 129.391 365.739V370H128.369V365.517C128.369 365.145 128.248 364.845 128.006 364.618C127.765 364.388 127.454 364.273 127.073 364.273C126.812 364.273 126.567 364.342 126.34 364.482C126.116 364.621 125.934 364.814 125.795 365.061C125.658 365.305 125.59 365.588 125.59 365.909V370H124.585ZM135.014 372.455V363.455H135.986V364.494H136.105C136.179 364.381 136.281 364.236 136.412 364.06C136.545 363.881 136.736 363.722 136.983 363.582C137.233 363.44 137.571 363.369 137.997 363.369C138.548 363.369 139.034 363.507 139.455 363.783C139.875 364.058 140.203 364.449 140.439 364.955C140.675 365.46 140.793 366.057 140.793 366.744C140.793 367.438 140.675 368.038 140.439 368.547C140.203 369.053 139.876 369.445 139.459 369.723C139.041 369.999 138.56 370.136 138.014 370.136C137.594 370.136 137.257 370.067 137.004 369.928C136.751 369.786 136.557 369.625 136.42 369.446C136.284 369.264 136.179 369.114 136.105 368.994H136.02V372.455H135.014ZM136.003 366.727C136.003 367.222 136.075 367.658 136.22 368.036C136.365 368.411 136.577 368.705 136.855 368.918C137.134 369.128 137.474 369.233 137.878 369.233C138.298 369.233 138.649 369.122 138.93 368.901C139.214 368.676 139.428 368.375 139.57 367.997C139.714 367.616 139.787 367.193 139.787 366.727C139.787 366.267 139.716 365.852 139.574 365.483C139.435 365.111 139.223 364.817 138.939 364.601C138.658 364.382 138.304 364.273 137.878 364.273C137.469 364.273 137.125 364.376 136.847 364.584C136.568 364.788 136.358 365.075 136.216 365.445C136.074 365.811 136.003 366.239 136.003 366.727ZM143.332 361.273V370H142.327V361.273H143.332ZM147.919 370.136C147.288 370.136 146.744 369.997 146.287 369.719C145.832 369.438 145.481 369.045 145.234 368.543C144.99 368.037 144.868 367.449 144.868 366.778C144.868 366.108 144.99 365.517 145.234 365.006C145.481 364.491 145.825 364.091 146.265 363.804C146.708 363.514 147.225 363.369 147.816 363.369C148.157 363.369 148.494 363.426 148.826 363.54C149.159 363.653 149.461 363.838 149.734 364.094C150.007 364.347 150.224 364.682 150.386 365.099C150.548 365.517 150.629 366.031 150.629 366.642V367.068H145.583V366.199H149.606C149.606 365.83 149.532 365.5 149.385 365.21C149.24 364.92 149.032 364.692 148.762 364.524C148.495 364.357 148.18 364.273 147.816 364.273C147.416 364.273 147.069 364.372 146.777 364.571C146.487 364.767 146.264 365.023 146.108 365.338C145.951 365.653 145.873 365.991 145.873 366.352V366.932C145.873 367.426 145.958 367.845 146.129 368.189C146.302 368.53 146.542 368.79 146.849 368.969C147.156 369.145 147.512 369.233 147.919 369.233C148.183 369.233 148.422 369.196 148.635 369.122C148.85 369.045 149.037 368.932 149.193 368.781C149.349 368.628 149.47 368.437 149.555 368.21L150.527 368.483C150.424 368.812 150.252 369.102 150.011 369.352C149.77 369.599 149.471 369.793 149.116 369.932C148.761 370.068 148.362 370.136 147.919 370.136ZM155.005 363.455V364.307H151.613V363.455H155.005ZM152.602 361.886H153.608V368.125C153.608 368.409 153.649 368.622 153.731 368.764C153.816 368.903 153.924 368.997 154.055 369.045C154.189 369.091 154.329 369.114 154.477 369.114C154.588 369.114 154.679 369.108 154.75 369.097C154.821 369.082 154.877 369.071 154.92 369.062L155.125 369.966C155.056 369.991 154.961 370.017 154.839 370.043C154.717 370.071 154.562 370.085 154.375 370.085C154.091 370.085 153.812 370.024 153.539 369.902C153.27 369.78 153.045 369.594 152.866 369.344C152.69 369.094 152.602 368.778 152.602 368.398V361.886ZM159.192 370.136C158.561 370.136 158.017 369.997 157.56 369.719C157.105 369.438 156.755 369.045 156.507 368.543C156.263 368.037 156.141 367.449 156.141 366.778C156.141 366.108 156.263 365.517 156.507 365.006C156.755 364.491 157.098 364.091 157.539 363.804C157.982 363.514 158.499 363.369 159.09 363.369C159.431 363.369 159.767 363.426 160.1 363.54C160.432 363.653 160.735 363.838 161.007 364.094C161.28 364.347 161.498 364.682 161.659 365.099C161.821 365.517 161.902 366.031 161.902 366.642V367.068H156.857V366.199H160.88C160.88 365.83 160.806 365.5 160.658 365.21C160.513 364.92 160.306 364.692 160.036 364.524C159.769 364.357 159.453 364.273 159.09 364.273C158.689 364.273 158.343 364.372 158.05 364.571C157.76 364.767 157.537 365.023 157.381 365.338C157.225 365.653 157.147 365.991 157.147 366.352V366.932C157.147 367.426 157.232 367.845 157.402 368.189C157.576 368.53 157.816 368.79 158.123 368.969C158.429 369.145 158.786 369.233 159.192 369.233C159.456 369.233 159.695 369.196 159.908 369.122C160.124 369.045 160.31 368.932 160.466 368.781C160.623 368.628 160.743 368.437 160.828 368.21L161.8 368.483C161.698 368.812 161.526 369.102 161.284 369.352C161.043 369.599 160.745 369.793 160.39 369.932C160.034 370.068 159.635 370.136 159.192 370.136ZM165.904 370.136C165.358 370.136 164.877 369.999 164.459 369.723C164.042 369.445 163.715 369.053 163.479 368.547C163.243 368.038 163.125 367.438 163.125 366.744C163.125 366.057 163.243 365.46 163.479 364.955C163.715 364.449 164.043 364.058 164.463 363.783C164.884 363.507 165.37 363.369 165.921 363.369C166.347 363.369 166.684 363.44 166.931 363.582C167.181 363.722 167.371 363.881 167.502 364.06C167.635 364.236 167.739 364.381 167.813 364.494H167.898V361.273H168.904V370H167.932V368.994H167.813C167.739 369.114 167.634 369.264 167.498 369.446C167.361 369.625 167.167 369.786 166.914 369.928C166.661 370.067 166.324 370.136 165.904 370.136ZM166.04 369.233C166.444 369.233 166.784 369.128 167.063 368.918C167.341 368.705 167.553 368.411 167.698 368.036C167.843 367.658 167.915 367.222 167.915 366.727C167.915 366.239 167.844 365.811 167.702 365.445C167.56 365.075 167.35 364.788 167.071 364.584C166.793 364.376 166.449 364.273 166.04 364.273C165.614 364.273 165.259 364.382 164.975 364.601C164.694 364.817 164.482 365.111 164.34 365.483C164.201 365.852 164.131 366.267 164.131 366.727C164.131 367.193 164.202 367.616 164.344 367.997C164.489 368.375 164.702 368.676 164.983 368.901C165.267 369.122 165.62 369.233 166.04 369.233Z" fill="#898989"/>
<path d="M23.017 140.364C23.017 141.131 22.8786 141.794 22.6016 142.352C22.3246 142.911 21.9446 143.342 21.4616 143.645C20.9787 143.948 20.4271 144.099 19.8068 144.099C19.1866 144.099 18.6349 143.948 18.152 143.645C17.669 143.342 17.2891 142.911 17.0121 142.352C16.7351 141.794 16.5966 141.131 16.5966 140.364C16.5966 139.597 16.7351 138.934 17.0121 138.375C17.2891 137.816 17.669 137.385 18.152 137.082C18.6349 136.779 19.1866 136.628 19.8068 136.628C20.4271 136.628 20.9787 136.779 21.4616 137.082C21.9446 137.385 22.3246 137.816 22.6016 138.375C22.8786 138.934 23.017 139.597 23.017 140.364ZM22.1648 140.364C22.1648 139.734 22.0594 139.202 21.8487 138.769C21.6404 138.336 21.3575 138.008 21 137.786C20.6449 137.563 20.2472 137.452 19.8068 137.452C19.3665 137.452 18.9676 137.563 18.6101 137.786C18.255 138.008 17.9721 138.336 17.7614 138.769C17.553 139.202 17.4489 139.734 17.4489 140.364C17.4489 140.993 17.553 141.525 17.7614 141.958C17.9721 142.391 18.255 142.719 18.6101 142.942C18.9676 143.164 19.3665 143.276 19.8068 143.276C20.2472 143.276 20.6449 143.164 21 142.942C21.3575 142.719 21.6404 142.391 21.8487 141.958C22.0594 141.525 22.1648 140.993 22.1648 140.364ZM24.4979 144V136.727H26.9553C27.5258 136.727 27.9922 136.83 28.3544 137.036C28.719 137.24 28.9889 137.516 29.1641 137.864C29.3393 138.212 29.4268 138.6 29.4268 139.028C29.4268 139.457 29.3393 139.846 29.1641 140.197C28.9912 140.547 28.7237 140.826 28.3615 141.035C27.9993 141.241 27.5353 141.344 26.9695 141.344H25.2081V140.562H26.9411C27.3317 140.562 27.6454 140.495 27.8821 140.36C28.1188 140.225 28.2905 140.043 28.397 139.813C28.5059 139.581 28.5604 139.32 28.5604 139.028C28.5604 138.737 28.5059 138.477 28.397 138.247C28.2905 138.018 28.1177 137.838 27.8786 137.707C27.6394 137.575 27.3222 137.509 26.9268 137.509H25.3786V144H24.4979ZM30.8455 144V136.727H35.2347V137.509H31.7262V139.966H35.0075V140.747H31.7262V143.219H35.2915V144H30.8455ZM42.5891 136.727V144H41.7369L37.7738 138.29H37.7028V144H36.8221V136.727H37.6744L41.6516 142.452H41.7227V136.727H42.5891ZM47.3485 140.364C47.3485 139.469 47.4645 138.646 47.6966 137.896C47.9309 137.143 48.2647 136.45 48.698 135.818H49.4366C49.2662 136.053 49.1064 136.341 48.9572 136.685C48.8104 137.026 48.6814 137.401 48.5701 137.81C48.4589 138.218 48.3713 138.639 48.3074 139.075C48.2458 139.51 48.215 139.94 48.215 140.364C48.215 140.927 48.2695 141.499 48.3784 142.079C48.4873 142.659 48.6341 143.197 48.8187 143.695C49.0034 144.192 49.2093 144.597 49.4366 144.909H48.698C48.2647 144.277 47.9309 143.586 47.6966 142.835C47.4645 142.082 47.3485 141.259 47.3485 140.364ZM50.6591 144V143.361L53.0597 140.733C53.3414 140.425 53.5734 140.158 53.7557 139.93C53.938 139.701 54.0729 139.485 54.1605 139.284C54.2505 139.08 54.2955 138.867 54.2955 138.645C54.2955 138.389 54.2339 138.168 54.1108 137.981C53.9901 137.794 53.8243 137.649 53.6136 137.548C53.4029 137.446 53.1662 137.395 52.9034 137.395C52.6241 137.395 52.3802 137.453 52.1719 137.569C51.9659 137.683 51.8061 137.842 51.6925 138.048C51.5812 138.254 51.5256 138.496 51.5256 138.773H50.6875C50.6875 138.347 50.7857 137.973 50.9822 137.651C51.1787 137.329 51.4463 137.078 51.7848 136.898C52.1257 136.718 52.508 136.628 52.9318 136.628C53.358 136.628 53.7356 136.718 54.0646 136.898C54.3937 137.078 54.6518 137.32 54.8388 137.626C55.0258 137.931 55.1193 138.271 55.1193 138.645C55.1193 138.912 55.0708 139.174 54.9737 139.43C54.879 139.683 54.7133 139.966 54.4766 140.278C54.2422 140.589 53.9167 140.967 53.5 141.415L51.8665 143.162V143.219H55.2472V144H50.6591ZM58.5178 140.364C58.5178 141.259 58.4006 142.082 58.1662 142.835C57.9342 143.586 57.6016 144.277 57.1683 144.909H56.4297C56.6001 144.675 56.7588 144.386 56.9055 144.043C57.0547 143.702 57.1849 143.328 57.2962 142.92C57.4074 142.511 57.4938 142.088 57.5554 141.653C57.6193 141.215 57.6513 140.785 57.6513 140.364C57.6513 139.8 57.5968 139.228 57.4879 138.648C57.379 138.068 57.2322 137.53 57.0476 137.033C56.8629 136.536 56.657 136.131 56.4297 135.818H57.1683C57.6016 136.45 57.9342 137.143 58.1662 137.896C58.4006 138.646 58.5178 139.469 58.5178 140.364Z" fill="#8F8484"/>
<line x1="16" y1="149.5" x2="258" y2="149.5" stroke="#8F8484"/>
<defs>
<clipPath id="clip0_14_55">
<rect width="18" height="18" fill="white" transform="translate(28 281)"/>
</clipPath>
<clipPath id="clip1_14_55">
<rect width="24" height="24" fill="white" transform="translate(25 172)"/>
</clipPath>
<clipPath id="clip2_14_55">
<rect width="16" height="16" fill="white" transform="translate(171 358)"/>
</clipPath>
</defs>
</svg>
