<svg width="274" height="478" viewBox="0 0 274 478" fill="none" xmlns="http://www.w3.org/2000/svg">
<path d="M0 0H266C270.418 0 274 3.58172 274 8V470C274 474.418 270.418 478 266 478H0V0Z" fill="#212121"/>
<path d="M24.4716 97.5625C24.4186 97.0663 24.1951 96.6799 23.8011 96.4034C23.411 96.1269 22.9034 95.9886 22.2784 95.9886C21.839 95.9886 21.4621 96.0549 21.1477 96.1875C20.8333 96.3201 20.5928 96.5 20.4261 96.7273C20.2595 96.9545 20.1742 97.214 20.1705 97.5057C20.1705 97.7481 20.2254 97.9583 20.3352 98.1364C20.4489 98.3144 20.6023 98.4659 20.7955 98.5909C20.9886 98.7121 21.2027 98.8144 21.4375 98.8977C21.6723 98.9811 21.9091 99.0511 22.1477 99.108L23.2386 99.3807C23.678 99.483 24.1004 99.6212 24.5057 99.7955C24.9148 99.9697 25.2803 100.189 25.6023 100.455C25.928 100.72 26.1856 101.04 26.375 101.415C26.5644 101.79 26.6591 102.229 26.6591 102.733C26.6591 103.415 26.4848 104.015 26.1364 104.534C25.7879 105.049 25.2841 105.453 24.625 105.744C23.9697 106.032 23.1761 106.176 22.2443 106.176C21.339 106.176 20.553 106.036 19.8864 105.756C19.2235 105.475 18.7045 105.066 18.3295 104.528C17.9583 103.991 17.7576 103.335 17.7273 102.562H19.8011C19.8314 102.968 19.9564 103.305 20.1761 103.574C20.3958 103.843 20.6818 104.044 21.0341 104.176C21.3902 104.309 21.7879 104.375 22.2273 104.375C22.6856 104.375 23.0871 104.307 23.4318 104.17C23.7803 104.03 24.053 103.837 24.25 103.591C24.447 103.341 24.5473 103.049 24.5511 102.716C24.5473 102.413 24.4583 102.163 24.2841 101.966C24.1098 101.765 23.8655 101.598 23.5511 101.466C23.2405 101.33 22.8769 101.208 22.4602 101.102L21.1364 100.761C20.178 100.515 19.4205 100.142 18.8636 99.642C18.3106 99.1383 18.0341 98.4697 18.0341 97.6364C18.0341 96.9508 18.2197 96.3504 18.5909 95.8352C18.9659 95.3201 19.4754 94.9205 20.1193 94.6364C20.7633 94.3485 21.4924 94.2045 22.3068 94.2045C23.1326 94.2045 23.8561 94.3485 24.4773 94.6364C25.1023 94.9205 25.5928 95.3163 25.9489 95.8239C26.3049 96.3277 26.4886 96.9072 26.5 97.5625H24.4716ZM30.2486 106L27.7827 97.2727H29.8793L31.4134 103.409H31.4929L33.0611 97.2727H35.1349L36.7031 103.375H36.7884L38.2997 97.2727H40.402L37.9304 106H35.7884L34.152 100.102H34.0327L32.3963 106H30.2486ZM44.3494 106.176C43.7964 106.176 43.2983 106.078 42.8551 105.881C42.4157 105.68 42.0672 105.384 41.8097 104.994C41.5559 104.604 41.429 104.123 41.429 103.551C41.429 103.059 41.5199 102.652 41.7017 102.33C41.8835 102.008 42.1316 101.75 42.446 101.557C42.7604 101.364 43.1146 101.218 43.5085 101.119C43.9063 101.017 44.3172 100.943 44.7415 100.898C45.2528 100.845 45.6676 100.797 45.9858 100.756C46.304 100.71 46.535 100.642 46.679 100.551C46.8267 100.456 46.9006 100.311 46.9006 100.114V100.08C46.9006 99.6515 46.7737 99.3201 46.5199 99.0852C46.2661 98.8504 45.9006 98.733 45.4233 98.733C44.9195 98.733 44.5199 98.8428 44.2244 99.0625C43.9328 99.2822 43.7358 99.5417 43.6335 99.8409L41.7131 99.5682C41.8646 99.0379 42.1146 98.5947 42.4631 98.2386C42.8116 97.8788 43.2377 97.6098 43.7415 97.4318C44.2453 97.25 44.8021 97.1591 45.4119 97.1591C45.8324 97.1591 46.2509 97.2083 46.6676 97.3068C47.0843 97.4053 47.465 97.5682 47.8097 97.7955C48.1544 98.0189 48.4309 98.3239 48.6392 98.7102C48.8513 99.0966 48.9574 99.5795 48.9574 100.159V106H46.9801V104.801H46.9119C46.7869 105.044 46.6108 105.271 46.3835 105.483C46.16 105.691 45.8778 105.86 45.5369 105.989C45.1998 106.114 44.804 106.176 44.3494 106.176ZM44.8835 104.665C45.2964 104.665 45.6544 104.583 45.9574 104.42C46.2604 104.254 46.4934 104.034 46.6562 103.761C46.8229 103.489 46.9062 103.191 46.9062 102.869V101.841C46.8419 101.894 46.732 101.943 46.5767 101.989C46.4252 102.034 46.2547 102.074 46.0653 102.108C45.8759 102.142 45.6884 102.172 45.5028 102.199C45.3172 102.225 45.1563 102.248 45.0199 102.267C44.7131 102.309 44.4384 102.377 44.196 102.472C43.9536 102.566 43.7623 102.699 43.6222 102.869C43.482 103.036 43.4119 103.252 43.4119 103.517C43.4119 103.896 43.5502 104.182 43.8267 104.375C44.1032 104.568 44.4555 104.665 44.8835 104.665ZM51.0256 109.273V97.2727H53.0483V98.7159H53.1676C53.2737 98.5038 53.4233 98.2784 53.6165 98.0398C53.8097 97.7973 54.071 97.5909 54.4006 97.4205C54.7301 97.2462 55.1506 97.1591 55.6619 97.1591C56.3362 97.1591 56.9441 97.3314 57.4858 97.6761C58.0313 98.017 58.4631 98.5227 58.7812 99.1932C59.1032 99.8598 59.2642 100.678 59.2642 101.648C59.2642 102.606 59.107 103.42 58.7926 104.091C58.4782 104.761 58.0502 105.273 57.5085 105.625C56.9669 105.977 56.3532 106.153 55.6676 106.153C55.1676 106.153 54.7528 106.07 54.4233 105.903C54.0938 105.737 53.8286 105.536 53.6278 105.301C53.4309 105.062 53.2775 104.837 53.1676 104.625H53.0824V109.273H51.0256ZM53.0426 101.636C53.0426 102.201 53.1222 102.695 53.2812 103.119C53.4441 103.544 53.6771 103.875 53.9801 104.114C54.2869 104.348 54.6581 104.466 55.0938 104.466C55.5483 104.466 55.929 104.345 56.2358 104.102C56.5426 103.856 56.7737 103.521 56.929 103.097C57.0881 102.669 57.1676 102.182 57.1676 101.636C57.1676 101.095 57.09 100.614 56.9347 100.193C56.7794 99.7727 56.5483 99.4432 56.2415 99.2045C55.9347 98.9659 55.5521 98.8466 55.0938 98.8466C54.6544 98.8466 54.2812 98.9621 53.9744 99.1932C53.6676 99.4242 53.4347 99.7481 53.2756 100.165C53.1203 100.581 53.0426 101.072 53.0426 101.636ZM65.0852 106V94.3636H69.5398C70.3807 94.3636 71.0795 94.4962 71.6364 94.7614C72.197 95.0227 72.6155 95.3807 72.892 95.8352C73.1723 96.2898 73.3125 96.8049 73.3125 97.3807C73.3125 97.8542 73.2216 98.2595 73.0398 98.5966C72.858 98.9299 72.6136 99.2008 72.3068 99.4091C72 99.6174 71.6572 99.767 71.2784 99.858V99.9716C71.6913 99.9943 72.0871 100.121 72.4659 100.352C72.8485 100.58 73.161 100.902 73.4034 101.318C73.6458 101.735 73.767 102.239 73.767 102.83C73.767 103.432 73.6212 103.973 73.3295 104.455C73.0379 104.932 72.5985 105.309 72.0114 105.585C71.4242 105.862 70.6856 106 69.7955 106H65.0852ZM67.1932 104.239H69.4602C70.2254 104.239 70.7765 104.093 71.1136 103.801C71.4545 103.506 71.625 103.127 71.625 102.665C71.625 102.32 71.5398 102.009 71.3693 101.733C71.1989 101.453 70.9564 101.233 70.642 101.074C70.3277 100.911 69.9527 100.83 69.517 100.83H67.1932V104.239ZM67.1932 99.3125H69.2784C69.642 99.3125 69.9697 99.2462 70.2614 99.1136C70.553 98.9773 70.7822 98.786 70.9489 98.5398C71.1193 98.2898 71.2045 97.9943 71.2045 97.6534C71.2045 97.2027 71.0455 96.8314 70.7273 96.5398C70.4129 96.2481 69.9451 96.1023 69.3239 96.1023H67.1932V99.3125ZM75.5099 106V97.2727H77.5668V106H75.5099ZM76.544 96.0341C76.2183 96.0341 75.938 95.9261 75.7031 95.7102C75.4683 95.4905 75.3509 95.2273 75.3509 94.9205C75.3509 94.6098 75.4683 94.3466 75.7031 94.1307C75.938 93.911 76.2183 93.8011 76.544 93.8011C76.8736 93.8011 77.1539 93.911 77.3849 94.1307C77.6198 94.3466 77.7372 94.6098 77.7372 94.9205C77.7372 95.2273 77.6198 95.4905 77.3849 95.7102C77.1539 95.9261 76.8736 96.0341 76.544 96.0341ZM84.0398 97.2727V98.8636H79.0227V97.2727H84.0398ZM80.2614 95.1818H82.3182V103.375C82.3182 103.652 82.3598 103.864 82.4432 104.011C82.5303 104.155 82.6439 104.254 82.7841 104.307C82.9242 104.36 83.0795 104.386 83.25 104.386C83.3788 104.386 83.4962 104.377 83.6023 104.358C83.7121 104.339 83.7955 104.322 83.8523 104.307L84.1989 105.915C84.089 105.953 83.9318 105.994 83.7273 106.04C83.5265 106.085 83.2803 106.112 82.9886 106.119C82.4735 106.134 82.0095 106.057 81.5966 105.886C81.1837 105.712 80.8561 105.443 80.6136 105.08C80.375 104.716 80.2576 104.261 80.2614 103.716V95.1818ZM89.473 106.17C88.6018 106.17 87.8537 105.979 87.2287 105.597C86.6075 105.214 86.1283 104.686 85.7912 104.011C85.4579 103.333 85.2912 102.553 85.2912 101.67C85.2912 100.784 85.4616 100.002 85.8026 99.3239C86.1435 98.642 86.6245 98.1117 87.2457 97.733C87.8707 97.3504 88.6094 97.1591 89.4616 97.1591C90.17 97.1591 90.7969 97.2898 91.3423 97.5511C91.8916 97.8087 92.3291 98.1742 92.6548 98.6477C92.9806 99.1174 93.1662 99.6667 93.2116 100.295H91.2457C91.1662 99.875 90.9768 99.5246 90.6776 99.2443C90.3821 98.9602 89.9863 98.8182 89.4901 98.8182C89.0696 98.8182 88.7003 98.9318 88.3821 99.1591C88.0639 99.3826 87.8158 99.7045 87.6378 100.125C87.4635 100.545 87.3764 101.049 87.3764 101.636C87.3764 102.231 87.4635 102.742 87.6378 103.17C87.812 103.595 88.0563 103.922 88.3707 104.153C88.6889 104.381 89.062 104.494 89.4901 104.494C89.7931 104.494 90.0639 104.437 90.3026 104.324C90.545 104.206 90.7476 104.038 90.9105 103.818C91.0734 103.598 91.1851 103.331 91.2457 103.017H93.2116C93.1624 103.634 92.9806 104.182 92.6662 104.659C92.3518 105.133 91.9238 105.504 91.3821 105.773C90.8404 106.038 90.2041 106.17 89.473 106.17ZM98.7074 106.17C97.8551 106.17 97.1165 105.983 96.4915 105.608C95.8665 105.233 95.3816 104.708 95.0369 104.034C94.696 103.36 94.5256 102.572 94.5256 101.67C94.5256 100.769 94.696 99.9792 95.0369 99.3011C95.3816 98.6231 95.8665 98.0966 96.4915 97.7216C97.1165 97.3466 97.8551 97.1591 98.7074 97.1591C99.5597 97.1591 100.298 97.3466 100.923 97.7216C101.548 98.0966 102.031 98.6231 102.372 99.3011C102.717 99.9792 102.889 100.769 102.889 101.67C102.889 102.572 102.717 103.36 102.372 104.034C102.031 104.708 101.548 105.233 100.923 105.608C100.298 105.983 99.5597 106.17 98.7074 106.17ZM98.7188 104.523C99.1809 104.523 99.5672 104.396 99.8778 104.142C100.188 103.884 100.42 103.54 100.571 103.108C100.726 102.676 100.804 102.195 100.804 101.665C100.804 101.131 100.726 100.648 100.571 100.216C100.42 99.7803 100.188 99.4337 99.8778 99.1761C99.5672 98.9186 99.1809 98.7898 98.7188 98.7898C98.2453 98.7898 97.8513 98.9186 97.5369 99.1761C97.2263 99.4337 96.9934 99.7803 96.8381 100.216C96.6866 100.648 96.6108 101.131 96.6108 101.665C96.6108 102.195 96.6866 102.676 96.8381 103.108C96.9934 103.54 97.2263 103.884 97.5369 104.142C97.8513 104.396 98.2453 104.523 98.7188 104.523ZM104.635 106V97.2727H106.692V106H104.635ZM105.669 96.0341C105.343 96.0341 105.063 95.9261 104.828 95.7102C104.593 95.4905 104.476 95.2273 104.476 94.9205C104.476 94.6098 104.593 94.3466 104.828 94.1307C105.063 93.911 105.343 93.8011 105.669 93.8011C105.999 93.8011 106.279 93.911 106.51 94.1307C106.745 94.3466 106.862 94.6098 106.862 94.9205C106.862 95.2273 106.745 95.4905 106.51 95.7102C106.279 95.9261 105.999 96.0341 105.669 96.0341ZM110.864 100.886V106H108.807V97.2727H110.773V98.7557H110.875C111.076 98.267 111.396 97.8788 111.835 97.5909C112.278 97.303 112.826 97.1591 113.477 97.1591C114.08 97.1591 114.604 97.2879 115.051 97.5455C115.502 97.803 115.85 98.1761 116.097 98.6648C116.347 99.1534 116.47 99.7462 116.466 100.443V106H114.409V100.761C114.409 100.178 114.258 99.7216 113.955 99.392C113.655 99.0625 113.241 98.8977 112.71 98.8977C112.35 98.8977 112.03 98.9773 111.75 99.1364C111.473 99.2917 111.256 99.517 111.097 99.8125C110.941 100.108 110.864 100.466 110.864 100.886ZM126.946 97.2727V98.8636H121.787V97.2727H126.946ZM123.077 106V96.4489C123.077 95.8617 123.198 95.3731 123.44 94.983C123.687 94.5928 124.016 94.3011 124.429 94.108C124.842 93.9148 125.3 93.8182 125.804 93.8182C126.16 93.8182 126.476 93.8466 126.753 93.9034C127.029 93.9602 127.234 94.0114 127.366 94.0568L126.957 95.6477C126.87 95.6212 126.76 95.5947 126.628 95.5682C126.495 95.5379 126.348 95.5227 126.185 95.5227C125.802 95.5227 125.531 95.6155 125.372 95.8011C125.217 95.983 125.139 96.2443 125.139 96.5852V106H123.077ZM132.036 106.17C131.183 106.17 130.445 105.983 129.82 105.608C129.195 105.233 128.71 104.708 128.365 104.034C128.024 103.36 127.854 102.572 127.854 101.67C127.854 100.769 128.024 99.9792 128.365 99.3011C128.71 98.6231 129.195 98.0966 129.82 97.7216C130.445 97.3466 131.183 97.1591 132.036 97.1591C132.888 97.1591 133.626 97.3466 134.251 97.7216C134.876 98.0966 135.359 98.6231 135.7 99.3011C136.045 99.9792 136.217 100.769 136.217 101.67C136.217 102.572 136.045 103.36 135.7 104.034C135.359 104.708 134.876 105.233 134.251 105.608C133.626 105.983 132.888 106.17 132.036 106.17ZM132.047 104.523C132.509 104.523 132.895 104.396 133.206 104.142C133.517 103.884 133.748 103.54 133.899 103.108C134.054 102.676 134.132 102.195 134.132 101.665C134.132 101.131 134.054 100.648 133.899 100.216C133.748 99.7803 133.517 99.4337 133.206 99.1761C132.895 98.9186 132.509 98.7898 132.047 98.7898C131.573 98.7898 131.179 98.9186 130.865 99.1761C130.554 99.4337 130.321 99.7803 130.166 100.216C130.015 100.648 129.939 101.131 129.939 101.665C129.939 102.195 130.015 102.676 130.166 103.108C130.321 103.54 130.554 103.884 130.865 104.142C131.179 104.396 131.573 104.523 132.047 104.523ZM137.963 106V97.2727H139.957V98.7273H140.048C140.207 98.2235 140.48 97.8352 140.866 97.5625C141.257 97.286 141.702 97.1477 142.202 97.1477C142.315 97.1477 142.442 97.1534 142.582 97.1648C142.726 97.1723 142.846 97.1856 142.94 97.2045V99.0966C142.853 99.0663 142.715 99.0398 142.526 99.017C142.34 98.9905 142.16 98.9773 141.986 98.9773C141.611 98.9773 141.274 99.0587 140.974 99.2216C140.679 99.3807 140.446 99.6023 140.276 99.8864C140.105 100.17 140.02 100.498 140.02 100.869V106H137.963ZM148.366 94.3636H150.946L154.401 102.795H154.537L157.991 94.3636H160.571V106H158.548V98.0057H158.44L155.224 105.966H153.713L150.497 97.9886H150.389V106H148.366V94.3636ZM166.582 106.17C165.73 106.17 164.991 105.983 164.366 105.608C163.741 105.233 163.257 104.708 162.912 104.034C162.571 103.36 162.401 102.572 162.401 101.67C162.401 100.769 162.571 99.9792 162.912 99.3011C163.257 98.6231 163.741 98.0966 164.366 97.7216C164.991 97.3466 165.73 97.1591 166.582 97.1591C167.435 97.1591 168.173 97.3466 168.798 97.7216C169.423 98.0966 169.906 98.6231 170.247 99.3011C170.592 99.9792 170.764 100.769 170.764 101.67C170.764 102.572 170.592 103.36 170.247 104.034C169.906 104.708 169.423 105.233 168.798 105.608C168.173 105.983 167.435 106.17 166.582 106.17ZM166.594 104.523C167.056 104.523 167.442 104.396 167.753 104.142C168.063 103.884 168.295 103.54 168.446 103.108C168.601 102.676 168.679 102.195 168.679 101.665C168.679 101.131 168.601 100.648 168.446 100.216C168.295 99.7803 168.063 99.4337 167.753 99.1761C167.442 98.9186 167.056 98.7898 166.594 98.7898C166.12 98.7898 165.726 98.9186 165.412 99.1761C165.101 99.4337 164.868 99.7803 164.713 100.216C164.562 100.648 164.486 101.131 164.486 101.665C164.486 102.195 164.562 102.676 164.713 103.108C164.868 103.54 165.101 103.884 165.412 104.142C165.726 104.396 166.12 104.523 166.594 104.523ZM174.567 100.886V106H172.51V97.2727H174.476V98.7557H174.578C174.779 98.267 175.099 97.8788 175.538 97.5909C175.982 97.303 176.529 97.1591 177.18 97.1591C177.783 97.1591 178.307 97.2879 178.754 97.5455C179.205 97.803 179.554 98.1761 179.8 98.6648C180.05 99.1534 180.173 99.7462 180.169 100.443V106H178.112V100.761C178.112 100.178 177.961 99.7216 177.658 99.392C177.358 99.0625 176.944 98.8977 176.413 98.8977C176.054 98.8977 175.733 98.9773 175.453 99.1364C175.177 99.2917 174.959 99.517 174.8 99.8125C174.644 100.108 174.567 100.466 174.567 100.886ZM186.124 106.17C185.249 106.17 184.493 105.989 183.857 105.625C183.224 105.258 182.737 104.739 182.396 104.068C182.055 103.394 181.885 102.6 181.885 101.688C181.885 100.79 182.055 100.002 182.396 99.3239C182.741 98.642 183.222 98.1117 183.839 97.733C184.457 97.3504 185.182 97.1591 186.016 97.1591C186.554 97.1591 187.061 97.2462 187.538 97.4205C188.019 97.5909 188.444 97.8561 188.811 98.2159C189.182 98.5758 189.474 99.0341 189.686 99.5909C189.898 100.144 190.004 100.803 190.004 101.568V102.199H182.851V100.812H188.033C188.029 100.419 187.944 100.068 187.777 99.7614C187.61 99.4508 187.377 99.2064 187.078 99.0284C186.783 98.8504 186.438 98.7614 186.044 98.7614C185.624 98.7614 185.254 98.8636 184.936 99.0682C184.618 99.2689 184.37 99.5341 184.192 99.8636C184.018 100.189 183.929 100.547 183.925 100.938V102.148C183.925 102.655 184.018 103.091 184.203 103.455C184.389 103.814 184.648 104.091 184.982 104.284C185.315 104.473 185.705 104.568 186.152 104.568C186.451 104.568 186.722 104.527 186.964 104.443C187.207 104.356 187.417 104.229 187.595 104.062C187.773 103.896 187.908 103.689 187.999 103.443L189.919 103.659C189.798 104.167 189.567 104.61 189.226 104.989C188.889 105.364 188.457 105.655 187.93 105.864C187.404 106.068 186.802 106.17 186.124 106.17ZM191.744 106V97.2727H193.739V98.7273H193.83C193.989 98.2235 194.261 97.8352 194.648 97.5625C195.038 97.286 195.483 97.1477 195.983 97.1477C196.097 97.1477 196.223 97.1534 196.364 97.1648C196.508 97.1723 196.627 97.1856 196.722 97.2045V99.0966C196.634 99.0663 196.496 99.0398 196.307 99.017C196.121 98.9905 195.941 98.9773 195.767 98.9773C195.392 98.9773 195.055 99.0587 194.756 99.2216C194.46 99.3807 194.227 99.6023 194.057 99.8864C193.886 100.17 193.801 100.498 193.801 100.869V106H191.744ZM201.536 106.17C200.683 106.17 199.945 105.983 199.32 105.608C198.695 105.233 198.21 104.708 197.865 104.034C197.524 103.36 197.354 102.572 197.354 101.67C197.354 100.769 197.524 99.9792 197.865 99.3011C198.21 98.6231 198.695 98.0966 199.32 97.7216C199.945 97.3466 200.683 97.1591 201.536 97.1591C202.388 97.1591 203.126 97.3466 203.751 97.7216C204.376 98.0966 204.859 98.6231 205.2 99.3011C205.545 99.9792 205.717 100.769 205.717 101.67C205.717 102.572 205.545 103.36 205.2 104.034C204.859 104.708 204.376 105.233 203.751 105.608C203.126 105.983 202.388 106.17 201.536 106.17ZM201.547 104.523C202.009 104.523 202.395 104.396 202.706 104.142C203.017 103.884 203.248 103.54 203.399 103.108C203.554 102.676 203.632 102.195 203.632 101.665C203.632 101.131 203.554 100.648 203.399 100.216C203.248 99.7803 203.017 99.4337 202.706 99.1761C202.395 98.9186 202.009 98.7898 201.547 98.7898C201.073 98.7898 200.679 98.9186 200.365 99.1761C200.054 99.4337 199.821 99.7803 199.666 100.216C199.515 100.648 199.439 101.131 199.439 101.665C199.439 102.195 199.515 102.676 199.666 103.108C199.821 103.54 200.054 103.884 200.365 104.142C200.679 104.396 201.073 104.523 201.547 104.523Z" fill="#8F8484"/>
<path d="M67.7209 149.111V147.644L72.0412 140.818H73.2642V142.906H72.5185L69.6101 147.515V147.594H75.6406V149.111H67.7209ZM72.5781 151V148.663L72.598 148.007V140.818H74.3381V151H72.5781ZM80.8484 151.139C80.1093 151.139 79.453 151.015 78.8796 150.766C78.3095 150.518 77.8621 150.178 77.5373 149.747C77.2158 149.313 77.0567 148.821 77.06 148.271C77.0567 147.843 77.1495 147.45 77.3384 147.092C77.5273 146.734 77.7826 146.436 78.104 146.197C78.4289 145.955 78.7901 145.801 79.1879 145.735V145.665C78.6642 145.549 78.2399 145.283 77.9151 144.865C77.5936 144.444 77.4345 143.959 77.4379 143.408C77.4345 142.885 77.5804 142.417 77.8754 142.006C78.1703 141.595 78.5747 141.272 79.0884 141.037C79.6022 140.798 80.1888 140.679 80.8484 140.679C81.5013 140.679 82.083 140.798 82.5934 141.037C83.1071 141.272 83.5115 141.595 83.8065 142.006C84.1048 142.417 84.2539 142.885 84.2539 143.408C84.2539 143.959 84.0898 144.444 83.7617 144.865C83.4369 145.283 83.0176 145.549 82.5039 145.665V145.735C82.9016 145.801 83.2596 145.955 83.5778 146.197C83.8993 146.436 84.1545 146.734 84.3434 147.092C84.5356 147.45 84.6317 147.843 84.6317 148.271C84.6317 148.821 84.4693 149.313 84.1445 149.747C83.8197 150.178 83.3723 150.518 82.8022 150.766C82.2354 151.015 81.5842 151.139 80.8484 151.139ZM80.8484 149.717C81.2295 149.717 81.561 149.653 81.8427 149.523C82.1244 149.391 82.3432 149.205 82.4989 148.967C82.6547 148.728 82.7343 148.453 82.7376 148.141C82.7343 147.817 82.6497 147.53 82.484 147.281C82.3216 147.029 82.0979 146.832 81.8129 146.69C81.5311 146.547 81.2096 146.476 80.8484 146.476C80.4838 146.476 80.159 146.547 79.8739 146.69C79.5889 146.832 79.3635 147.029 79.1978 147.281C79.0354 147.53 78.9558 147.817 78.9592 148.141C78.9558 148.453 79.0321 148.728 79.1879 148.967C79.3436 149.202 79.5624 149.386 79.8441 149.518C80.1291 149.651 80.4639 149.717 80.8484 149.717ZM80.8484 145.079C81.1599 145.079 81.435 145.016 81.6737 144.89C81.9156 144.764 82.1062 144.588 82.2454 144.363C82.3846 144.138 82.4558 143.877 82.4592 143.582C82.4558 143.291 82.3862 143.036 82.2504 142.817C82.1145 142.595 81.9255 142.424 81.6836 142.305C81.4416 142.182 81.1632 142.121 80.8484 142.121C80.5269 142.121 80.2435 142.182 79.9982 142.305C79.7563 142.424 79.5674 142.595 79.4315 142.817C79.2989 143.036 79.2343 143.291 79.2376 143.582C79.2343 143.877 79.3005 144.138 79.4364 144.363C79.5756 144.585 79.7662 144.761 80.0082 144.89C80.2534 145.016 80.5335 145.079 80.8484 145.079ZM86.286 143.364H88.0858V151.438C88.0858 151.988 87.9814 152.442 87.7725 152.8C87.5637 153.158 87.2621 153.424 86.8677 153.6C86.4733 153.776 85.9944 153.864 85.4309 153.864C85.3646 153.864 85.3033 153.862 85.247 153.859C85.1906 153.859 85.1293 153.857 85.063 153.854V152.387C85.1127 152.39 85.1575 152.392 85.1973 152.392C85.237 152.395 85.2785 152.397 85.3216 152.397C85.6663 152.397 85.9132 152.313 86.0623 152.143C86.2115 151.978 86.286 151.734 86.286 151.413V143.364ZM87.1809 142.28C86.8926 142.28 86.6457 142.185 86.4402 141.996C86.238 141.804 86.1369 141.574 86.1369 141.305C86.1369 141.034 86.238 140.803 86.4402 140.614C86.6457 140.422 86.8926 140.326 87.1809 140.326C87.466 140.326 87.7096 140.422 87.9118 140.614C88.1172 140.803 88.22 141.034 88.22 141.305C88.22 141.574 88.1172 141.804 87.9118 141.996C87.7096 142.185 87.466 142.28 87.1809 142.28ZM93.5707 151.139C92.8548 151.139 92.2184 151.017 91.6616 150.771C91.1081 150.526 90.6706 150.185 90.3491 149.747C90.0276 149.31 89.8569 148.804 89.837 148.231H91.7063C91.7229 148.506 91.814 148.746 91.9798 148.952C92.1455 149.154 92.3659 149.311 92.641 149.424C92.9161 149.537 93.2243 149.593 93.5657 149.593C93.9303 149.593 94.2534 149.53 94.5352 149.404C94.8169 149.275 95.0373 149.096 95.1964 148.867C95.3555 148.638 95.4334 148.375 95.43 148.077C95.4334 147.768 95.3538 147.497 95.1914 147.261C95.029 147.026 94.7937 146.842 94.4854 146.71C94.1805 146.577 93.8126 146.511 93.3817 146.511H92.4819V145.089H93.3817C93.7364 145.089 94.0463 145.027 94.3114 144.905C94.5799 144.782 94.7904 144.61 94.9428 144.388C95.0953 144.162 95.1699 143.902 95.1665 143.607C95.1699 143.319 95.1052 143.069 94.9727 142.857C94.8434 142.641 94.6594 142.474 94.4208 142.354C94.1855 142.235 93.9087 142.175 93.5906 142.175C93.279 142.175 92.9906 142.232 92.7255 142.344C92.4603 142.457 92.2466 142.618 92.0842 142.827C91.9218 143.032 91.8356 143.277 91.8256 143.562H90.0508C90.064 142.992 90.2281 142.492 90.543 142.061C90.8612 141.627 91.2854 141.289 91.8157 141.047C92.346 140.802 92.9409 140.679 93.6005 140.679C94.2799 140.679 94.8699 140.807 95.3704 141.062C95.8742 141.314 96.2636 141.653 96.5387 142.081C96.8138 142.509 96.9513 142.981 96.9513 143.498C96.9547 144.071 96.7856 144.552 96.4442 144.94C96.1062 145.327 95.6621 145.581 95.1119 145.7V145.78C95.8278 145.879 96.3763 146.144 96.7575 146.575C97.1419 147.003 97.3325 147.535 97.3292 148.171C97.3292 148.741 97.1668 149.252 96.842 149.702C96.5205 150.15 96.0763 150.501 95.5096 150.756C94.9461 151.012 94.2998 151.139 93.5707 151.139ZM100.855 140.818V151H99.0556V140.818H100.855ZM103.815 151.109C103.513 151.109 103.254 151.003 103.039 150.791C102.824 150.579 102.718 150.321 102.721 150.016C102.718 149.717 102.824 149.462 103.039 149.25C103.254 149.038 103.513 148.932 103.815 148.932C104.106 148.932 104.36 149.038 104.575 149.25C104.794 149.462 104.905 149.717 104.908 150.016C104.905 150.218 104.852 150.402 104.749 150.567C104.65 150.733 104.517 150.866 104.352 150.965C104.189 151.061 104.01 151.109 103.815 151.109ZM107.875 151.109C107.574 151.109 107.315 151.003 107.1 150.791C106.884 150.579 106.778 150.321 106.781 150.016C106.778 149.717 106.884 149.462 107.1 149.25C107.315 149.038 107.574 148.932 107.875 148.932C108.167 148.932 108.42 149.038 108.636 149.25C108.855 149.462 108.966 149.717 108.969 150.016C108.966 150.218 108.913 150.402 108.81 150.567C108.71 150.733 108.578 150.866 108.412 150.965C108.25 151.061 108.071 151.109 107.875 151.109ZM111.936 151.109C111.634 151.109 111.376 151.003 111.16 150.791C110.945 150.579 110.839 150.321 110.842 150.016C110.839 149.717 110.945 149.462 111.16 149.25C111.376 149.038 111.634 148.932 111.936 148.932C112.227 148.932 112.481 149.038 112.696 149.25C112.915 149.462 113.026 149.717 113.029 150.016C113.026 150.218 112.973 150.402 112.87 150.567C112.771 150.733 112.638 150.866 112.473 150.965C112.31 151.061 112.131 151.109 111.936 151.109ZM116.687 146.526V151H114.888V140.818H116.648V144.661H116.737C116.916 144.23 117.193 143.891 117.567 143.642C117.945 143.39 118.426 143.264 119.009 143.264C119.539 143.264 120.002 143.375 120.396 143.597C120.791 143.819 121.095 144.144 121.311 144.572C121.53 144.999 121.639 145.521 121.639 146.138V151H119.839V146.416C119.839 145.902 119.707 145.503 119.442 145.218C119.18 144.93 118.812 144.786 118.338 144.786C118.02 144.786 117.735 144.855 117.483 144.994C117.234 145.13 117.039 145.327 116.896 145.586C116.757 145.844 116.687 146.158 116.687 146.526ZM126.988 140.679C127.476 140.682 127.95 140.768 128.41 140.938C128.874 141.103 129.292 141.375 129.663 141.753C130.034 142.127 130.329 142.629 130.548 143.259C130.767 143.889 130.876 144.668 130.876 145.596C130.88 146.471 130.787 147.253 130.598 147.942C130.412 148.629 130.145 149.209 129.797 149.683C129.449 150.156 129.03 150.518 128.54 150.766C128.049 151.015 127.497 151.139 126.884 151.139C126.241 151.139 125.671 151.013 125.174 150.761C124.68 150.509 124.281 150.165 123.976 149.727C123.671 149.29 123.483 148.789 123.414 148.226H125.229C125.321 148.63 125.51 148.952 125.795 149.19C126.084 149.426 126.447 149.543 126.884 149.543C127.59 149.543 128.134 149.237 128.515 148.624C128.896 148.01 129.086 147.159 129.086 146.068H129.017C128.854 146.36 128.644 146.612 128.385 146.824C128.127 147.033 127.834 147.193 127.506 147.306C127.181 147.419 126.836 147.475 126.471 147.475C125.875 147.475 125.338 147.333 124.861 147.048C124.387 146.763 124.01 146.371 123.732 145.874C123.457 145.377 123.318 144.809 123.314 144.169C123.314 143.506 123.467 142.911 123.772 142.384C124.08 141.854 124.509 141.436 125.059 141.131C125.61 140.823 126.253 140.672 126.988 140.679ZM126.993 142.17C126.635 142.17 126.312 142.258 126.024 142.434C125.739 142.606 125.514 142.842 125.348 143.14C125.185 143.435 125.104 143.765 125.104 144.129C125.108 144.491 125.189 144.819 125.348 145.114C125.51 145.409 125.731 145.642 126.009 145.815C126.291 145.987 126.612 146.073 126.974 146.073C127.242 146.073 127.492 146.022 127.724 145.919C127.956 145.816 128.158 145.674 128.331 145.491C128.506 145.306 128.642 145.095 128.738 144.86C128.838 144.625 128.886 144.376 128.883 144.114C128.883 143.766 128.8 143.445 128.634 143.15C128.472 142.855 128.248 142.618 127.963 142.439C127.681 142.26 127.358 142.17 126.993 142.17ZM135.932 151.149C135.167 151.149 134.506 150.99 133.949 150.672C133.395 150.35 132.969 149.896 132.671 149.31C132.373 148.72 132.224 148.025 132.224 147.227C132.224 146.441 132.373 145.752 132.671 145.158C132.973 144.562 133.394 144.098 133.934 143.766C134.474 143.432 135.109 143.264 135.838 143.264C136.309 143.264 136.753 143.34 137.17 143.493C137.591 143.642 137.962 143.874 138.284 144.189C138.609 144.504 138.864 144.905 139.05 145.392C139.235 145.876 139.328 146.453 139.328 147.122V147.674H133.069V146.461H137.603C137.599 146.116 137.525 145.81 137.379 145.541C137.233 145.269 137.029 145.056 136.768 144.9C136.509 144.744 136.207 144.666 135.863 144.666C135.495 144.666 135.172 144.756 134.893 144.935C134.615 145.11 134.398 145.342 134.242 145.631C134.09 145.916 134.012 146.229 134.008 146.57V147.629C134.008 148.073 134.09 148.455 134.252 148.773C134.414 149.088 134.641 149.33 134.933 149.499C135.225 149.664 135.566 149.747 135.957 149.747C136.219 149.747 136.456 149.711 136.668 149.638C136.88 149.562 137.064 149.451 137.22 149.305C137.376 149.159 137.493 148.978 137.573 148.763L139.253 148.952C139.147 149.396 138.945 149.784 138.647 150.115C138.352 150.443 137.974 150.698 137.513 150.881C137.053 151.06 136.526 151.149 135.932 151.149ZM142.491 148.604L142.486 146.431H142.775L145.519 143.364H147.622L144.246 147.122H143.873L142.491 148.604ZM140.85 151V140.818H142.65V151H140.85ZM145.643 151L143.157 147.525L144.37 146.257L147.796 151H145.643ZM152.421 151.139C151.682 151.139 151.025 151.015 150.452 150.766C149.882 150.518 149.434 150.178 149.11 149.747C148.788 149.313 148.629 148.821 148.632 148.271C148.629 147.843 148.722 147.45 148.911 147.092C149.1 146.734 149.355 146.436 149.676 146.197C150.001 145.955 150.362 145.801 150.76 145.735V145.665C150.236 145.549 149.812 145.283 149.487 144.865C149.166 144.444 149.007 143.959 149.01 143.408C149.007 142.885 149.153 142.417 149.448 142.006C149.743 141.595 150.147 141.272 150.661 141.037C151.174 140.798 151.761 140.679 152.421 140.679C153.074 140.679 153.655 140.798 154.166 141.037C154.679 141.272 155.084 141.595 155.379 142.006C155.677 142.417 155.826 142.885 155.826 143.408C155.826 143.959 155.662 144.444 155.334 144.865C155.009 145.283 154.59 145.549 154.076 145.665V145.735C154.474 145.801 154.832 145.955 155.15 146.197C155.472 146.436 155.727 146.734 155.916 147.092C156.108 147.45 156.204 147.843 156.204 148.271C156.204 148.821 156.042 149.313 155.717 149.747C155.392 150.178 154.945 150.518 154.374 150.766C153.808 151.015 153.156 151.139 152.421 151.139ZM152.421 149.717C152.802 149.717 153.133 149.653 153.415 149.523C153.697 149.391 153.915 149.205 154.071 148.967C154.227 148.728 154.307 148.453 154.31 148.141C154.307 147.817 154.222 147.53 154.056 147.281C153.894 147.029 153.67 146.832 153.385 146.69C153.103 146.547 152.782 146.476 152.421 146.476C152.056 146.476 151.731 146.547 151.446 146.69C151.161 146.832 150.936 147.029 150.77 147.281C150.608 147.53 150.528 147.817 150.531 148.141C150.528 148.453 150.604 148.728 150.76 148.967C150.916 149.202 151.135 149.386 151.416 149.518C151.701 149.651 152.036 149.717 152.421 149.717ZM152.421 145.079C152.732 145.079 153.007 145.016 153.246 144.89C153.488 144.764 153.678 144.588 153.818 144.363C153.957 144.138 154.028 143.877 154.031 143.582C154.028 143.291 153.959 143.036 153.823 142.817C153.687 142.595 153.498 142.424 153.256 142.305C153.014 142.182 152.735 142.121 152.421 142.121C152.099 142.121 151.816 142.182 151.57 142.305C151.329 142.424 151.14 142.595 151.004 142.817C150.871 143.036 150.807 143.291 150.81 143.582C150.807 143.877 150.873 144.138 151.009 144.363C151.148 144.585 151.338 144.761 151.58 144.89C151.826 145.016 152.106 145.079 152.421 145.079ZM161.458 151.139C160.719 151.139 160.062 151.015 159.489 150.766C158.919 150.518 158.471 150.178 158.147 149.747C157.825 149.313 157.666 148.821 157.669 148.271C157.666 147.843 157.759 147.45 157.948 147.092C158.137 146.734 158.392 146.436 158.713 146.197C159.038 145.955 159.4 145.801 159.797 145.735V145.665C159.274 145.549 158.849 145.283 158.525 144.865C158.203 144.444 158.044 143.959 158.047 143.408C158.044 142.885 158.19 142.417 158.485 142.006C158.78 141.595 159.184 141.272 159.698 141.037C160.212 140.798 160.798 140.679 161.458 140.679C162.111 140.679 162.692 140.798 163.203 141.037C163.717 141.272 164.121 141.595 164.416 142.006C164.714 142.417 164.863 142.885 164.863 143.408C164.863 143.959 164.699 144.444 164.371 144.865C164.046 145.283 163.627 145.549 163.113 145.665V145.735C163.511 145.801 163.869 145.955 164.187 146.197C164.509 146.436 164.764 146.734 164.953 147.092C165.145 147.45 165.241 147.843 165.241 148.271C165.241 148.821 165.079 149.313 164.754 149.747C164.429 150.178 163.982 150.518 163.412 150.766C162.845 151.015 162.194 151.139 161.458 151.139ZM161.458 149.717C161.839 149.717 162.17 149.653 162.452 149.523C162.734 149.391 162.953 149.205 163.108 148.967C163.264 148.728 163.344 148.453 163.347 148.141C163.344 147.817 163.259 147.53 163.093 147.281C162.931 147.029 162.707 146.832 162.422 146.69C162.141 146.547 161.819 146.476 161.458 146.476C161.093 146.476 160.768 146.547 160.483 146.69C160.198 146.832 159.973 147.029 159.807 147.281C159.645 147.53 159.565 147.817 159.569 148.141C159.565 148.453 159.641 148.728 159.797 148.967C159.953 149.202 160.172 149.386 160.453 149.518C160.739 149.651 161.073 149.717 161.458 149.717ZM161.458 145.079C161.769 145.079 162.044 145.016 162.283 144.89C162.525 144.764 162.716 144.588 162.855 144.363C162.994 144.138 163.065 143.877 163.069 143.582C163.065 143.291 162.996 143.036 162.86 142.817C162.724 142.595 162.535 142.424 162.293 142.305C162.051 142.182 161.773 142.121 161.458 142.121C161.136 142.121 160.853 142.182 160.608 142.305C160.366 142.424 160.177 142.595 160.041 142.817C159.908 143.036 159.844 143.291 159.847 143.582C159.844 143.877 159.91 144.138 160.046 144.363C160.185 144.585 160.376 144.761 160.618 144.89C160.863 145.016 161.143 145.079 161.458 145.079Z" fill="white"/>
<g clip-path="url(#clip0_14_53)">
<path d="M21.5 146C21.5 147.773 21.8492 149.528 22.5276 151.166C23.2061 152.804 24.2005 154.292 25.4541 155.546C26.7076 156.8 28.1959 157.794 29.8338 158.472C31.4717 159.151 33.2272 159.5 35 159.5C36.7728 159.5 38.5283 159.151 40.1662 158.472C41.8041 157.794 43.2923 156.8 44.5459 155.546C45.7995 154.292 46.7939 152.804 47.4724 151.166C48.1508 149.528 48.5 147.773 48.5 146C48.5 144.227 48.1508 142.472 47.4724 140.834C46.7939 139.196 45.7995 137.708 44.5459 136.454C43.2923 135.2 41.8041 134.206 40.1662 133.528C38.5283 132.849 36.7728 132.5 35 132.5C33.2272 132.5 31.4717 132.849 29.8338 133.528C28.1959 134.206 26.7076 135.2 25.4541 136.454C24.2005 137.708 23.2061 139.196 22.5276 140.834C21.8492 142.472 21.5 144.227 21.5 146Z" stroke="#A9A9A9" stroke-width="2" stroke-linecap="round" stroke-linejoin="round"/>
<path d="M23 152H29V141.5L35 147.5L41 141.5V152H47" stroke="#A9A9A9" stroke-width="2" stroke-linecap="round" stroke-linejoin="round"/>
</g>
<rect x="59.5" y="129.5" width="197" height="32" rx="3.5" stroke="#4D4D4D"/>
<path d="M18 199H138" stroke="#F4511E"/>
<path d="M54.0739 192V184.364H55.2472V192H54.0739ZM54.6705 183.091C54.4418 183.091 54.2446 183.013 54.0788 182.857C53.9164 182.701 53.8352 182.514 53.8352 182.295C53.8352 182.077 53.9164 181.889 54.0788 181.734C54.2446 181.578 54.4418 181.5 54.6705 181.5C54.8991 181.5 55.0947 181.578 55.2571 181.734C55.4228 181.889 55.5057 182.077 55.5057 182.295C55.5057 182.514 55.4228 182.701 55.2571 182.857C55.0947 183.013 54.8991 183.091 54.6705 183.091ZM58.5694 187.406V192H57.3961V184.364H58.5297V185.557H58.6291C58.8081 185.169 59.0798 184.857 59.4444 184.622C59.809 184.384 60.2797 184.264 60.8564 184.264C61.3734 184.264 61.8258 184.37 62.2136 184.582C62.6014 184.791 62.903 185.109 63.1184 185.537C63.3339 185.961 63.4416 186.498 63.4416 187.148V192H62.2683V187.227C62.2683 186.627 62.1125 186.16 61.801 185.825C61.4894 185.487 61.0618 185.318 60.5183 185.318C60.1438 185.318 59.809 185.399 59.514 185.562C59.2224 185.724 58.992 185.961 58.823 186.273C58.6539 186.584 58.5694 186.962 58.5694 187.406ZM68.9066 184.364V185.358H64.9492V184.364H68.9066ZM66.1026 182.534H67.2759V189.812C67.2759 190.144 67.324 190.393 67.4201 190.558C67.5195 190.721 67.6455 190.83 67.7979 190.886C67.9537 190.939 68.1178 190.966 68.2901 190.966C68.4194 190.966 68.5255 190.959 68.6083 190.946C68.6912 190.929 68.7575 190.916 68.8072 190.906L69.0458 191.96C68.9663 191.99 68.8552 192.02 68.7127 192.05C68.5702 192.083 68.3896 192.099 68.1708 192.099C67.8394 192.099 67.5146 192.028 67.1964 191.886C66.8815 191.743 66.6197 191.526 66.4109 191.234C66.2054 190.943 66.1026 190.575 66.1026 190.131V182.534ZM73.7912 192.159C73.0554 192.159 72.4207 191.997 71.8871 191.672C71.3568 191.344 70.9474 190.886 70.6591 190.3C70.3741 189.71 70.2315 189.024 70.2315 188.241C70.2315 187.459 70.3741 186.77 70.6591 186.173C70.9474 185.573 71.3485 185.106 71.8622 184.771C72.3793 184.433 72.9825 184.264 73.6719 184.264C74.0696 184.264 74.4624 184.33 74.8501 184.463C75.2379 184.596 75.5909 184.811 75.9091 185.109C76.2273 185.404 76.4808 185.795 76.6697 186.283C76.8587 186.77 76.9531 187.37 76.9531 188.082V188.58H71.0668V187.565H75.7599C75.7599 187.134 75.6738 186.75 75.5014 186.412C75.3324 186.074 75.0904 185.807 74.7756 185.612C74.464 185.416 74.0961 185.318 73.6719 185.318C73.2045 185.318 72.8002 185.434 72.4588 185.666C72.1207 185.895 71.8606 186.193 71.6783 186.561C71.496 186.929 71.4048 187.323 71.4048 187.744V188.42C71.4048 188.997 71.5043 189.486 71.7031 189.887C71.9053 190.285 72.1854 190.588 72.5433 190.797C72.9013 191.002 73.3172 191.105 73.7912 191.105C74.0994 191.105 74.3778 191.062 74.6264 190.976C74.8783 190.886 75.0954 190.754 75.2777 190.578C75.46 190.399 75.6009 190.177 75.7003 189.912L76.8338 190.23C76.7145 190.615 76.514 190.953 76.2322 191.244C75.9505 191.533 75.6025 191.758 75.1882 191.92C74.7739 192.08 74.3082 192.159 73.7912 192.159ZM78.7379 192V184.364H79.8714V185.517H79.951C80.0902 185.139 80.3421 184.833 80.7067 184.597C81.0713 184.362 81.4822 184.244 81.9396 184.244C82.0258 184.244 82.1335 184.246 82.2628 184.249C82.392 184.253 82.4898 184.258 82.5561 184.264V185.457C82.5163 185.447 82.4252 185.433 82.2827 185.413C82.1435 185.389 81.996 185.378 81.8402 185.378C81.469 185.378 81.1375 185.456 80.8459 185.612C80.5575 185.764 80.3288 185.976 80.1598 186.248C79.9941 186.516 79.9112 186.823 79.9112 187.168V192H78.7379ZM85.1202 187.406V192H83.9469V184.364H85.0804V185.557H85.1799C85.3588 185.169 85.6306 184.857 85.9952 184.622C86.3598 184.384 86.8304 184.264 87.4071 184.264C87.9242 184.264 88.3766 184.37 88.7644 184.582C89.1522 184.791 89.4538 185.109 89.6692 185.537C89.8846 185.961 89.9924 186.498 89.9924 187.148V192H88.8191V187.227C88.8191 186.627 88.6633 186.16 88.3517 185.825C88.0402 185.487 87.6126 185.318 87.0691 185.318C86.6945 185.318 86.3598 185.399 86.0648 185.562C85.7731 185.724 85.5428 185.961 85.3738 186.273C85.2047 186.584 85.1202 186.962 85.1202 187.406ZM94.3835 192.179C93.8996 192.179 93.4605 192.088 93.0661 191.906C92.6716 191.72 92.3584 191.453 92.1264 191.105C91.8944 190.754 91.7784 190.33 91.7784 189.832C91.7784 189.395 91.8646 189.04 92.0369 188.768C92.2093 188.493 92.4396 188.278 92.728 188.122C93.0163 187.966 93.3345 187.85 93.6825 187.774C94.0339 187.695 94.3868 187.632 94.7415 187.585C95.2055 187.526 95.5817 187.481 95.87 187.451C96.1617 187.418 96.3738 187.363 96.5064 187.287C96.6423 187.211 96.7102 187.078 96.7102 186.889V186.849C96.7102 186.359 96.576 185.978 96.3075 185.706C96.0424 185.434 95.6397 185.298 95.0994 185.298C94.5393 185.298 94.1001 185.421 93.782 185.666C93.4638 185.911 93.2401 186.173 93.1108 186.452L91.9972 186.054C92.196 185.59 92.4612 185.229 92.7926 184.97C93.1274 184.708 93.492 184.526 93.8864 184.423C94.2841 184.317 94.6752 184.264 95.0597 184.264C95.3049 184.264 95.5866 184.294 95.9048 184.354C96.2263 184.41 96.5362 184.528 96.8345 184.707C97.1361 184.886 97.3864 185.156 97.5852 185.517C97.7841 185.878 97.8835 186.362 97.8835 186.969V192H96.7102V190.966H96.6506C96.571 191.132 96.4384 191.309 96.2528 191.498C96.0672 191.687 95.8203 191.848 95.5121 191.98C95.2038 192.113 94.8277 192.179 94.3835 192.179ZM94.5625 191.125C95.0265 191.125 95.4176 191.034 95.7358 190.852C96.0573 190.669 96.2992 190.434 96.4616 190.146C96.6274 189.857 96.7102 189.554 96.7102 189.236V188.162C96.6605 188.222 96.5511 188.276 96.3821 188.326C96.2164 188.372 96.0241 188.414 95.8054 188.45C95.59 188.483 95.3795 188.513 95.174 188.54C94.9718 188.563 94.8078 188.583 94.6818 188.599C94.3769 188.639 94.0919 188.704 93.8267 188.793C93.5649 188.879 93.3527 189.01 93.1903 189.186C93.0313 189.358 92.9517 189.594 92.9517 189.892C92.9517 190.3 93.1025 190.608 93.4041 190.817C93.709 191.022 94.0952 191.125 94.5625 191.125ZM101.198 181.818V192H100.025V181.818H101.198Z" fill="white"/>
<path d="M175.276 194.159C174.54 194.159 173.905 193.997 173.371 193.672C172.841 193.344 172.432 192.886 172.143 192.3C171.858 191.71 171.716 191.024 171.716 190.241C171.716 189.459 171.858 188.77 172.143 188.173C172.432 187.573 172.833 187.106 173.347 186.771C173.864 186.433 174.467 186.264 175.156 186.264C175.554 186.264 175.947 186.33 176.335 186.463C176.722 186.596 177.075 186.811 177.393 187.109C177.712 187.404 177.965 187.795 178.154 188.283C178.343 188.77 178.438 189.37 178.438 190.082V190.58H172.551V189.565H177.244C177.244 189.134 177.158 188.75 176.986 188.412C176.817 188.074 176.575 187.807 176.26 187.612C175.948 187.416 175.58 187.318 175.156 187.318C174.689 187.318 174.285 187.434 173.943 187.666C173.605 187.895 173.345 188.193 173.163 188.561C172.98 188.929 172.889 189.323 172.889 189.744V190.42C172.889 190.997 172.989 191.486 173.188 191.887C173.39 192.285 173.67 192.588 174.028 192.797C174.386 193.002 174.802 193.105 175.276 193.105C175.584 193.105 175.862 193.062 176.111 192.976C176.363 192.886 176.58 192.754 176.762 192.578C176.944 192.399 177.085 192.177 177.185 191.912L178.318 192.23C178.199 192.615 177.998 192.953 177.717 193.244C177.435 193.533 177.087 193.758 176.673 193.92C176.258 194.08 175.793 194.159 175.276 194.159ZM180.892 186.364L182.722 189.486L184.551 186.364H185.904L183.438 190.182L185.904 194H184.551L182.722 191.037L180.892 194H179.54L181.966 190.182L179.54 186.364H180.892ZM190.899 186.364V187.358H186.941V186.364H190.899ZM188.095 184.534H189.268V191.812C189.268 192.144 189.316 192.393 189.412 192.558C189.512 192.721 189.638 192.83 189.79 192.886C189.946 192.939 190.11 192.966 190.282 192.966C190.412 192.966 190.518 192.959 190.6 192.946C190.683 192.929 190.75 192.916 190.799 192.906L191.038 193.96C190.958 193.99 190.847 194.02 190.705 194.05C190.562 194.083 190.382 194.099 190.163 194.099C189.832 194.099 189.507 194.028 189.189 193.886C188.874 193.743 188.612 193.526 188.403 193.234C188.198 192.943 188.095 192.575 188.095 192.131V184.534ZM195.783 194.159C195.048 194.159 194.413 193.997 193.879 193.672C193.349 193.344 192.94 192.886 192.651 192.3C192.366 191.71 192.224 191.024 192.224 190.241C192.224 189.459 192.366 188.77 192.651 188.173C192.94 187.573 193.341 187.106 193.854 186.771C194.371 186.433 194.975 186.264 195.664 186.264C196.062 186.264 196.455 186.33 196.842 186.463C197.23 186.596 197.583 186.811 197.901 187.109C198.219 187.404 198.473 187.795 198.662 188.283C198.851 188.77 198.945 189.37 198.945 190.082V190.58H193.059V189.565H197.752C197.752 189.134 197.666 188.75 197.494 188.412C197.325 188.074 197.083 187.807 196.768 187.612C196.456 187.416 196.088 187.318 195.664 187.318C195.197 187.318 194.792 187.434 194.451 187.666C194.113 187.895 193.853 188.193 193.67 188.561C193.488 188.929 193.397 189.323 193.397 189.744V190.42C193.397 190.997 193.496 191.486 193.695 191.887C193.897 192.285 194.178 192.588 194.536 192.797C194.893 193.002 195.309 193.105 195.783 193.105C196.092 193.105 196.37 193.062 196.619 192.976C196.871 192.886 197.088 192.754 197.27 192.578C197.452 192.399 197.593 192.177 197.692 191.912L198.826 192.23C198.707 192.615 198.506 192.953 198.224 193.244C197.943 193.533 197.595 193.758 197.18 193.92C196.766 194.08 196.3 194.159 195.783 194.159ZM200.73 194V186.364H201.864V187.517H201.943C202.082 187.139 202.334 186.833 202.699 186.597C203.063 186.362 203.474 186.244 203.932 186.244C204.018 186.244 204.126 186.246 204.255 186.249C204.384 186.253 204.482 186.258 204.548 186.264V187.457C204.509 187.447 204.417 187.433 204.275 187.413C204.136 187.389 203.988 187.378 203.832 187.378C203.461 187.378 203.13 187.456 202.838 187.612C202.55 187.764 202.321 187.976 202.152 188.248C201.986 188.516 201.903 188.823 201.903 189.168V194H200.73ZM207.112 189.406V194H205.939V186.364H207.073V187.557H207.172C207.351 187.169 207.623 186.857 207.987 186.622C208.352 186.384 208.823 186.264 209.399 186.264C209.916 186.264 210.369 186.37 210.757 186.582C211.144 186.791 211.446 187.109 211.661 187.537C211.877 187.961 211.985 188.498 211.985 189.148V194H210.811V189.227C210.811 188.627 210.655 188.16 210.344 187.825C210.032 187.487 209.605 187.318 209.061 187.318C208.687 187.318 208.352 187.399 208.057 187.562C207.765 187.724 207.535 187.961 207.366 188.273C207.197 188.584 207.112 188.962 207.112 189.406ZM216.376 194.179C215.892 194.179 215.453 194.088 215.058 193.906C214.664 193.72 214.351 193.453 214.119 193.105C213.887 192.754 213.771 192.33 213.771 191.832C213.771 191.395 213.857 191.04 214.029 190.768C214.201 190.493 214.432 190.278 214.72 190.122C215.009 189.966 215.327 189.85 215.675 189.774C216.026 189.695 216.379 189.632 216.734 189.585C217.198 189.526 217.574 189.481 217.862 189.451C218.154 189.418 218.366 189.363 218.499 189.287C218.634 189.211 218.702 189.078 218.702 188.889V188.849C218.702 188.359 218.568 187.978 218.3 187.706C218.035 187.434 217.632 187.298 217.092 187.298C216.531 187.298 216.092 187.421 215.774 187.666C215.456 187.911 215.232 188.173 215.103 188.452L213.989 188.054C214.188 187.59 214.453 187.229 214.785 186.97C215.12 186.708 215.484 186.526 215.879 186.423C216.276 186.317 216.667 186.264 217.052 186.264C217.297 186.264 217.579 186.294 217.897 186.354C218.219 186.41 218.528 186.528 218.827 186.707C219.128 186.886 219.379 187.156 219.577 187.517C219.776 187.878 219.876 188.362 219.876 188.969V194H218.702V192.966H218.643C218.563 193.132 218.431 193.309 218.245 193.498C218.059 193.687 217.813 193.848 217.504 193.98C217.196 194.113 216.82 194.179 216.376 194.179ZM216.555 193.125C217.019 193.125 217.41 193.034 217.728 192.852C218.049 192.669 218.291 192.434 218.454 192.146C218.62 191.857 218.702 191.554 218.702 191.236V190.162C218.653 190.222 218.543 190.276 218.374 190.326C218.209 190.372 218.016 190.414 217.798 190.45C217.582 190.483 217.372 190.513 217.166 190.54C216.964 190.563 216.8 190.583 216.674 190.599C216.369 190.639 216.084 190.704 215.819 190.793C215.557 190.879 215.345 191.01 215.183 191.186C215.023 191.358 214.944 191.594 214.944 191.892C214.944 192.3 215.095 192.608 215.396 192.817C215.701 193.022 216.087 193.125 216.555 193.125ZM223.191 183.818V194H222.017V183.818H223.191Z" fill="#8F8484"/>
<rect x="85" y="223" width="136" height="3" rx="1.5" fill="#585858"/>
<rect x="85" y="234" width="87" height="3" rx="1.5" fill="#585858"/>
<g clip-path="url(#clip1_14_53)">
<path d="M58 223H66C66.7956 223 67.5587 223.316 68.1213 223.879C68.6839 224.441 69 225.204 69 226C69 226.796 68.6839 227.559 68.1213 228.121C67.5587 228.684 66.7956 229 66 229C66.7956 229 67.5587 229.316 68.1213 229.879C68.6839 230.441 69 231.204 69 232C69 232.796 68.6839 233.559 68.1213 234.121C67.5587 234.684 66.7956 235 66 235H58" stroke="#A9A9A9" stroke-width="2" stroke-linecap="round" stroke-linejoin="round"/>
<path d="M60 223V235" stroke="#A9A9A9" stroke-width="2" stroke-linecap="round" stroke-linejoin="round"/>
<path d="M60 229H66" stroke="#A9A9A9" stroke-width="2" stroke-linecap="round" stroke-linejoin="round"/>
<path d="M61 220V223" stroke="#A9A9A9" stroke-width="2" stroke-linecap="round" stroke-linejoin="round"/>
<path d="M65 220V223" stroke="#A9A9A9" stroke-width="2" stroke-linecap="round" stroke-linejoin="round"/>
<path d="M61 235V238" stroke="#A9A9A9" stroke-width="2" stroke-linecap="round" stroke-linejoin="round"/>
<path d="M65 235V238" stroke="#A9A9A9" stroke-width="2" stroke-linecap="round" stroke-linejoin="round"/>
</g>
<rect x="17.5" y="174.5" width="239" height="88" rx="3.5" stroke="#4D4D4D"/>
<rect x="42" y="281" width="190" height="34" rx="4" fill="#F4511E"/>
<path d="M66.233 304V293.818H69.6733C70.4688 293.818 71.1217 293.954 71.6321 294.226C72.1425 294.494 72.5204 294.864 72.7656 295.335C73.0109 295.805 73.1335 296.34 73.1335 296.94C73.1335 297.54 73.0109 298.072 72.7656 298.536C72.5204 299 72.1442 299.365 71.6371 299.63C71.13 299.892 70.482 300.023 69.6932 300.023H66.9091V298.909H69.6534C70.197 298.909 70.6345 298.83 70.9659 298.67C71.3007 298.511 71.5426 298.286 71.6918 297.994C71.8442 297.699 71.9205 297.348 71.9205 296.94C71.9205 296.533 71.8442 296.176 71.6918 295.871C71.5393 295.567 71.2957 295.331 70.9609 295.165C70.6262 294.996 70.1837 294.912 69.6335 294.912H67.4659V304H66.233ZM71.0256 299.426L73.5312 304H72.0994L69.6335 299.426H71.0256ZM75.188 304V293.818H81.3329V294.912H76.421V298.352H81.0147V299.446H76.421V302.906H81.4125V304H75.188ZM87.2541 300.818H88.6064L89.7399 302.31L90.0382 302.707L91.7285 304.955H90.3762L89.2626 303.463L88.9842 303.085L87.2541 300.818ZM92.1461 298.909C92.1461 299.983 91.9522 300.911 91.5645 301.693C91.1767 302.475 90.6447 303.079 89.9686 303.503C89.2924 303.927 88.5202 304.139 87.6518 304.139C86.7834 304.139 86.0112 303.927 85.335 303.503C84.6589 303.079 84.127 302.475 83.7392 301.693C83.3514 300.911 83.1575 299.983 83.1575 298.909C83.1575 297.835 83.3514 296.907 83.7392 296.125C84.127 295.343 84.6589 294.74 85.335 294.315C86.0112 293.891 86.7834 293.679 87.6518 293.679C88.5202 293.679 89.2924 293.891 89.9686 294.315C90.6447 294.74 91.1767 295.343 91.5645 296.125C91.9522 296.907 92.1461 297.835 92.1461 298.909ZM90.9529 298.909C90.9529 298.027 90.8055 297.283 90.5105 296.677C90.2188 296.07 89.8227 295.611 89.3223 295.3C88.8251 294.988 88.2683 294.832 87.6518 294.832C87.0353 294.832 86.4769 294.988 85.9764 295.3C85.4792 295.611 85.0832 296.07 84.7882 296.677C84.4965 297.283 84.3507 298.027 84.3507 298.909C84.3507 299.791 84.4965 300.535 84.7882 301.141C85.0832 301.748 85.4792 302.207 85.9764 302.518C86.4769 302.83 87.0353 302.986 87.6518 302.986C88.2683 302.986 88.8251 302.83 89.3223 302.518C89.8227 302.207 90.2188 301.748 90.5105 301.141C90.8055 300.535 90.9529 299.791 90.9529 298.909ZM100.901 293.818H102.134V300.56C102.134 301.256 101.97 301.877 101.642 302.424C101.317 302.968 100.858 303.397 100.265 303.712C99.6715 304.023 98.9754 304.179 98.1767 304.179C97.3779 304.179 96.6819 304.023 96.0886 303.712C95.4953 303.397 95.0346 302.968 94.7065 302.424C94.3817 301.877 94.2193 301.256 94.2193 300.56V293.818H95.4522V300.46C95.4522 300.957 95.5616 301.4 95.7804 301.788C95.9991 302.172 96.3107 302.475 96.715 302.697C97.1227 302.916 97.6099 303.026 98.1767 303.026C98.7434 303.026 99.2306 302.916 99.6383 302.697C100.046 302.475 100.358 302.172 100.573 301.788C100.792 301.4 100.901 300.957 100.901 300.46V293.818ZM104.596 304V293.818H110.741V294.912H105.829V298.352H110.423V299.446H105.829V302.906H110.821V304H104.596ZM118.532 296.364C118.472 295.86 118.23 295.469 117.806 295.19C117.382 294.912 116.861 294.773 116.245 294.773C115.794 294.773 115.4 294.846 115.061 294.991C114.727 295.137 114.465 295.338 114.276 295.593C114.09 295.848 113.998 296.138 113.998 296.463C113.998 296.735 114.062 296.969 114.191 297.164C114.324 297.356 114.493 297.517 114.699 297.646C114.904 297.772 115.119 297.877 115.345 297.96C115.57 298.039 115.777 298.104 115.966 298.153L117 298.432C117.266 298.501 117.56 298.598 117.885 298.72C118.213 298.843 118.527 299.01 118.825 299.222C119.127 299.431 119.375 299.7 119.571 300.028C119.766 300.356 119.864 300.759 119.864 301.236C119.864 301.786 119.72 302.283 119.431 302.727C119.146 303.171 118.729 303.524 118.179 303.786C117.632 304.048 116.967 304.179 116.185 304.179C115.456 304.179 114.824 304.061 114.291 303.826C113.761 303.591 113.343 303.263 113.038 302.842C112.736 302.421 112.566 301.932 112.526 301.375H113.799C113.832 301.759 113.961 302.078 114.186 302.33C114.415 302.578 114.703 302.764 115.051 302.886C115.403 303.006 115.781 303.065 116.185 303.065C116.656 303.065 117.078 302.989 117.453 302.837C117.827 302.681 118.124 302.465 118.343 302.19C118.561 301.912 118.671 301.587 118.671 301.216C118.671 300.878 118.576 300.603 118.387 300.391C118.199 300.179 117.95 300.006 117.642 299.874C117.333 299.741 117 299.625 116.642 299.526L115.39 299.168C114.594 298.939 113.964 298.612 113.5 298.188C113.036 297.764 112.804 297.209 112.804 296.523C112.804 295.953 112.958 295.455 113.267 295.031C113.578 294.604 113.996 294.272 114.52 294.037C115.047 293.798 115.635 293.679 116.284 293.679C116.941 293.679 117.524 293.797 118.034 294.032C118.545 294.264 118.949 294.582 119.248 294.987C119.549 295.391 119.708 295.85 119.725 296.364H118.532ZM121.334 294.912V293.818H128.971V294.912H125.769V304H124.536V294.912H121.334ZM138.51 300.818H139.862L140.996 302.31L141.294 302.707L142.984 304.955H141.632L140.518 303.463L140.24 303.085L138.51 300.818ZM143.402 298.909C143.402 299.983 143.208 300.911 142.82 301.693C142.433 302.475 141.901 303.079 141.224 303.503C140.548 303.927 139.776 304.139 138.908 304.139C138.039 304.139 137.267 303.927 136.591 303.503C135.915 303.079 135.383 302.475 134.995 301.693C134.607 300.911 134.413 299.983 134.413 298.909C134.413 297.835 134.607 296.907 134.995 296.125C135.383 295.343 135.915 294.74 136.591 294.315C137.267 293.891 138.039 293.679 138.908 293.679C139.776 293.679 140.548 293.891 141.224 294.315C141.901 294.74 142.433 295.343 142.82 296.125C143.208 296.907 143.402 297.835 143.402 298.909ZM142.209 298.909C142.209 298.027 142.061 297.283 141.766 296.677C141.475 296.07 141.079 295.611 140.578 295.3C140.081 294.988 139.524 294.832 138.908 294.832C138.291 294.832 137.733 294.988 137.232 295.3C136.735 295.611 136.339 296.07 136.044 296.677C135.752 297.283 135.607 298.027 135.607 298.909C135.607 299.791 135.752 300.535 136.044 301.141C136.339 301.748 136.735 302.207 137.232 302.518C137.733 302.83 138.291 302.986 138.908 302.986C139.524 302.986 140.081 302.83 140.578 302.518C141.079 302.207 141.475 301.748 141.766 301.141C142.061 300.535 142.209 299.791 142.209 298.909ZM152.157 293.818H153.39V300.56C153.39 301.256 153.226 301.877 152.898 302.424C152.573 302.968 152.114 303.397 151.521 303.712C150.927 304.023 150.231 304.179 149.433 304.179C148.634 304.179 147.938 304.023 147.344 303.712C146.751 303.397 146.29 302.968 145.962 302.424C145.638 301.877 145.475 301.256 145.475 300.56V293.818H146.708V300.46C146.708 300.957 146.817 301.4 147.036 301.788C147.255 302.172 147.567 302.475 147.971 302.697C148.379 302.916 148.866 303.026 149.433 303.026C149.999 303.026 150.487 302.916 150.894 302.697C151.302 302.475 151.613 302.172 151.829 301.788C152.048 301.4 152.157 300.957 152.157 300.46V293.818ZM164.443 298.909C164.443 299.983 164.249 300.911 163.861 301.693C163.474 302.475 162.942 303.079 162.265 303.503C161.589 303.927 160.817 304.139 159.949 304.139C159.08 304.139 158.308 303.927 157.632 303.503C156.956 303.079 156.424 302.475 156.036 301.693C155.648 300.911 155.454 299.983 155.454 298.909C155.454 297.835 155.648 296.907 156.036 296.125C156.424 295.343 156.956 294.74 157.632 294.315C158.308 293.891 159.08 293.679 159.949 293.679C160.817 293.679 161.589 293.891 162.265 294.315C162.942 294.74 163.474 295.343 163.861 296.125C164.249 296.907 164.443 297.835 164.443 298.909ZM163.25 298.909C163.25 298.027 163.102 297.283 162.807 296.677C162.516 296.07 162.12 295.611 161.619 295.3C161.122 294.988 160.565 294.832 159.949 294.832C159.332 294.832 158.774 294.988 158.273 295.3C157.776 295.611 157.38 296.07 157.085 296.677C156.793 297.283 156.648 298.027 156.648 298.909C156.648 299.791 156.793 300.535 157.085 301.141C157.38 301.748 157.776 302.207 158.273 302.518C158.774 302.83 159.332 302.986 159.949 302.986C160.565 302.986 161.122 302.83 161.619 302.518C162.12 302.207 162.516 301.748 162.807 301.141C163.102 300.535 163.25 299.791 163.25 298.909ZM165.536 294.912V293.818H173.172V294.912H169.97V304H168.737V294.912H165.536ZM175.075 304V293.818H181.22V294.912H176.308V298.352H180.901V299.446H176.308V302.906H181.299V304H175.075Z" fill="white"/>
<g clip-path="url(#clip2_14_53)">
<path d="M196.25 292.833V304.167C196.25 304.293 196.284 304.416 196.347 304.525C196.411 304.634 196.503 304.724 196.613 304.785C196.723 304.847 196.847 304.878 196.973 304.875C197.099 304.872 197.222 304.836 197.33 304.77L206.538 299.103C206.641 299.04 206.726 298.951 206.785 298.846C206.844 298.74 206.875 298.621 206.875 298.5C206.875 298.379 206.844 298.26 206.785 298.154C206.726 298.049 206.641 297.96 206.538 297.896L197.33 292.23C197.222 292.164 197.099 292.128 196.973 292.125C196.847 292.122 196.723 292.153 196.613 292.215C196.503 292.276 196.411 292.366 196.347 292.475C196.284 292.584 196.25 292.707 196.25 292.833Z" fill="white"/>
</g>
<rect x="32" y="369" width="18" height="18" rx="9" fill="#444242"/>
<g clip-path="url(#clip3_14_53)">
<path d="M41.5834 382.667V373.333L38.6667 376.25" stroke="#858585" stroke-width="2" stroke-linecap="round" stroke-linejoin="round"/>
</g>
<rect x="96.2856" y="369" width="18" height="18" rx="9" fill="#444242"/>
<rect x="160.572" y="369" width="18" height="18" rx="9" fill="#444242"/>
<g clip-path="url(#clip4_14_53)">
<path d="M170 378C170.462 378 170.913 377.863 171.296 377.607C171.68 377.35 171.979 376.986 172.156 376.56C172.332 376.133 172.379 375.664 172.289 375.211C172.199 374.759 171.976 374.343 171.65 374.017C171.324 373.69 170.908 373.468 170.455 373.378C170.003 373.288 169.534 373.334 169.107 373.511C168.681 373.688 168.316 373.987 168.06 374.37C167.804 374.754 167.667 375.205 167.667 375.667" stroke="#858585" stroke-width="2" stroke-linecap="round" stroke-linejoin="round"/>
<path d="M167.667 380.333C167.667 380.795 167.804 381.246 168.06 381.63C168.316 382.013 168.681 382.312 169.107 382.489C169.534 382.666 170.003 382.712 170.455 382.622C170.908 382.532 171.324 382.31 171.65 381.983C171.976 381.657 172.199 381.241 172.289 380.789C172.379 380.336 172.332 379.867 172.156 379.44C171.979 379.014 171.68 378.65 171.296 378.393C170.913 378.137 170.462 378 170 378" stroke="#858585" stroke-width="2" stroke-linecap="round" stroke-linejoin="round"/>
</g>
<rect x="224.857" y="369" width="18" height="18" rx="9" fill="#444242"/>
<g clip-path="url(#clip5_14_53)">
<path d="M235.75 382.667V373.917L231.083 380.333H236.917" stroke="#858585" stroke-width="2" stroke-linecap="round" stroke-linejoin="round"/>
</g>
<path d="M52.5715 378H93.7144" stroke="#444242"/>
<path d="M116.857 378H158" stroke="#444242"/>
<path d="M181.143 378H222.286" stroke="#444242"/>
<g clip-path="url(#clip6_14_53)">
<path d="M102.667 375.667C102.667 375.048 102.913 374.454 103.35 374.017C103.788 373.579 104.381 373.333 105 373.333C105.619 373.333 106.212 373.579 106.65 374.017C107.088 374.454 107.333 375.048 107.333 375.667C107.333 376.307 107.004 376.848 106.657 377.309L102.667 382.667H107.333" stroke="#858585" stroke-width="2" stroke-linecap="round" stroke-linejoin="round"/>
</g>
<defs>
<clipPath id="clip0_14_53">
<rect width="36" height="36" fill="white" transform="translate(17 128)"/>
</clipPath>
<clipPath id="clip1_14_53">
<rect width="24" height="24" fill="white" transform="translate(52 217)"/>
</clipPath>
<clipPath id="clip2_14_53">
<rect width="17" height="17" fill="white" transform="translate(192 290)"/>
</clipPath>
<clipPath id="clip3_14_53">
<rect width="14" height="14" fill="white" transform="translate(34 371)"/>
</clipPath>
<clipPath id="clip4_14_53">
<rect width="14" height="14" fill="white" transform="translate(163 371)"/>
</clipPath>
<clipPath id="clip5_14_53">
<rect width="14" height="14" fill="white" transform="translate(227 371)"/>
</clipPath>
<clipPath id="clip6_14_53">
<rect width="14" height="14" fill="white" transform="translate(98 371)"/>
</clipPath>
</defs>
</svg>
