<svg width="274" height="478" viewBox="0 0 274 478" fill="none" xmlns="http://www.w3.org/2000/svg">
<path d="M0 0H266C270.418 0 274 3.58172 274 8V470C274 474.418 270.418 478 266 478H0V0Z" fill="#212121"/>
<path d="M23.4716 77.5625C23.4186 77.0663 23.1951 76.6799 22.8011 76.4034C22.411 76.1269 21.9034 75.9886 21.2784 75.9886C20.839 75.9886 20.4621 76.0549 20.1477 76.1875C19.8333 76.3201 19.5928 76.5 19.4261 76.7273C19.2595 76.9545 19.1742 77.214 19.1705 77.5057C19.1705 77.7481 19.2254 77.9583 19.3352 78.1364C19.4489 78.3144 19.6023 78.4659 19.7955 78.5909C19.9886 78.7121 20.2027 78.8144 20.4375 78.8977C20.6723 78.9811 20.9091 79.0511 21.1477 79.108L22.2386 79.3807C22.678 79.483 23.1004 79.6212 23.5057 79.7955C23.9148 79.9697 24.2803 80.1894 24.6023 80.4545C24.928 80.7197 25.1856 81.0398 25.375 81.4148C25.5644 81.7898 25.6591 82.2292 25.6591 82.733C25.6591 83.4148 25.4848 84.0152 25.1364 84.5341C24.7879 85.0492 24.2841 85.4527 23.625 85.7443C22.9697 86.0322 22.1761 86.1761 21.2443 86.1761C20.339 86.1761 19.553 86.036 18.8864 85.7557C18.2235 85.4754 17.7045 85.0663 17.3295 84.5284C16.9583 83.9905 16.7576 83.3352 16.7273 82.5625H18.8011C18.8314 82.9678 18.9564 83.3049 19.1761 83.5739C19.3958 83.8428 19.6818 84.0436 20.0341 84.1761C20.3902 84.3087 20.7879 84.375 21.2273 84.375C21.6856 84.375 22.0871 84.3068 22.4318 84.1705C22.7803 84.0303 23.053 83.8371 23.25 83.5909C23.447 83.3409 23.5473 83.0492 23.5511 82.7159C23.5473 82.4129 23.4583 82.1629 23.2841 81.9659C23.1098 81.7652 22.8655 81.5985 22.5511 81.4659C22.2405 81.3295 21.8769 81.2083 21.4602 81.1023L20.1364 80.7614C19.178 80.5152 18.4205 80.142 17.8636 79.642C17.3106 79.1383 17.0341 78.4697 17.0341 77.6364C17.0341 76.9508 17.2197 76.3504 17.5909 75.8352C17.9659 75.3201 18.4754 74.9205 19.1193 74.6364C19.7633 74.3485 20.4924 74.2045 21.3068 74.2045C22.1326 74.2045 22.8561 74.3485 23.4773 74.6364C24.1023 74.9205 24.5928 75.3163 24.9489 75.8239C25.3049 76.3277 25.4886 76.9072 25.5 77.5625H23.4716ZM31.3111 86.1705C30.4361 86.1705 29.6804 85.9886 29.044 85.625C28.4115 85.2576 27.9247 84.7386 27.5838 84.0682C27.2429 83.3939 27.0724 82.6004 27.0724 81.6875C27.0724 80.7898 27.2429 80.0019 27.5838 79.3239C27.9285 78.642 28.4096 78.1117 29.027 77.733C29.6444 77.3504 30.3698 77.1591 31.2031 77.1591C31.741 77.1591 32.2486 77.2462 32.7259 77.4205C33.2069 77.5909 33.6312 77.8561 33.9986 78.2159C34.3698 78.5758 34.6615 79.0341 34.8736 79.5909C35.0857 80.1439 35.1918 80.803 35.1918 81.5682V82.1989H28.0384V80.8125H33.2202C33.2164 80.4186 33.1312 80.0682 32.9645 79.7614C32.7978 79.4508 32.5649 79.2064 32.2656 79.0284C31.9702 78.8504 31.6255 78.7614 31.2315 78.7614C30.8111 78.7614 30.4418 78.8636 30.1236 79.0682C29.8054 79.2689 29.5573 79.5341 29.3793 79.8636C29.205 80.1894 29.116 80.5473 29.1122 80.9375V82.1477C29.1122 82.6553 29.205 83.0909 29.3906 83.4545C29.5762 83.8144 29.8357 84.0909 30.169 84.2841C30.5024 84.4735 30.8925 84.5682 31.3395 84.5682C31.6387 84.5682 31.9096 84.5265 32.152 84.4432C32.3944 84.3561 32.6046 84.2292 32.7827 84.0625C32.9607 83.8958 33.0952 83.6894 33.1861 83.4432L35.1065 83.6591C34.9853 84.1667 34.7543 84.6098 34.4134 84.9886C34.0762 85.3636 33.6444 85.6553 33.1179 85.8636C32.5914 86.0682 31.9891 86.1705 31.3111 86.1705ZM38.9886 74.3636V86H36.9318V74.3636H38.9886ZM44.9673 86.1705C44.0923 86.1705 43.3366 85.9886 42.7003 85.625C42.0677 85.2576 41.581 84.7386 41.2401 84.0682C40.8991 83.3939 40.7287 82.6004 40.7287 81.6875C40.7287 80.7898 40.8991 80.0019 41.2401 79.3239C41.5848 78.642 42.0658 78.1117 42.6832 77.733C43.3007 77.3504 44.026 77.1591 44.8594 77.1591C45.3973 77.1591 45.9048 77.2462 46.3821 77.4205C46.8632 77.5909 47.2874 77.8561 47.6548 78.2159C48.026 78.5758 48.3177 79.0341 48.5298 79.5909C48.742 80.1439 48.848 80.803 48.848 81.5682V82.1989H41.6946V80.8125H46.8764C46.8726 80.4186 46.7874 80.0682 46.6207 79.7614C46.4541 79.4508 46.2211 79.2064 45.9219 79.0284C45.6264 78.8504 45.2817 78.7614 44.8878 78.7614C44.4673 78.7614 44.098 78.8636 43.7798 79.0682C43.4616 79.2689 43.2135 79.5341 43.0355 79.8636C42.8613 80.1894 42.7723 80.5473 42.7685 80.9375V82.1477C42.7685 82.6553 42.8613 83.0909 43.0469 83.4545C43.2325 83.8144 43.492 84.0909 43.8253 84.2841C44.1586 84.4735 44.5488 84.5682 44.9957 84.5682C45.295 84.5682 45.5658 84.5265 45.8082 84.4432C46.0507 84.3561 46.2609 84.2292 46.4389 84.0625C46.617 83.8958 46.7514 83.6894 46.8423 83.4432L48.7628 83.6591C48.6416 84.1667 48.4105 84.6098 48.0696 84.9886C47.7325 85.3636 47.3007 85.6553 46.7741 85.8636C46.2476 86.0682 45.6454 86.1705 44.9673 86.1705ZM54.3949 86.1705C53.5237 86.1705 52.7756 85.9792 52.1506 85.5966C51.5294 85.214 51.0502 84.6856 50.7131 84.0114C50.3797 83.3333 50.2131 82.553 50.2131 81.6705C50.2131 80.7841 50.3835 80.0019 50.7244 79.3239C51.0653 78.642 51.5464 78.1117 52.1676 77.733C52.7926 77.3504 53.5313 77.1591 54.3835 77.1591C55.0919 77.1591 55.7188 77.2898 56.2642 77.5511C56.8134 77.8087 57.2509 78.1742 57.5767 78.6477C57.9025 79.1174 58.0881 79.6667 58.1335 80.2955H56.1676C56.0881 79.875 55.8987 79.5246 55.5994 79.2443C55.304 78.9602 54.9081 78.8182 54.4119 78.8182C53.9915 78.8182 53.6222 78.9318 53.304 79.1591C52.9858 79.3826 52.7377 79.7045 52.5597 80.125C52.3854 80.5455 52.2983 81.0492 52.2983 81.6364C52.2983 82.2311 52.3854 82.7424 52.5597 83.1705C52.7339 83.5947 52.9782 83.9223 53.2926 84.1534C53.6108 84.3807 53.9839 84.4943 54.4119 84.4943C54.715 84.4943 54.9858 84.4375 55.2244 84.3239C55.4669 84.2064 55.6695 84.0379 55.8324 83.8182C55.9953 83.5985 56.107 83.3314 56.1676 83.017H58.1335C58.0843 83.6345 57.9025 84.1818 57.5881 84.6591C57.2737 85.1326 56.8456 85.5038 56.304 85.7727C55.7623 86.0379 55.1259 86.1705 54.3949 86.1705ZM64.1804 77.2727V78.8636H59.1634V77.2727H64.1804ZM60.402 75.1818H62.4588V83.375C62.4588 83.6515 62.5005 83.8636 62.5838 84.0114C62.6709 84.1553 62.7846 84.2538 62.9247 84.3068C63.0649 84.3598 63.2202 84.3864 63.3906 84.3864C63.5194 84.3864 63.6368 84.3769 63.7429 84.358C63.8527 84.339 63.9361 84.322 63.9929 84.3068L64.3395 85.9148C64.2296 85.9527 64.0724 85.9943 63.8679 86.0398C63.6671 86.0852 63.4209 86.1117 63.1293 86.1193C62.6141 86.1345 62.1501 86.0568 61.7372 85.8864C61.3243 85.7121 60.9967 85.4432 60.7543 85.0795C60.5156 84.7159 60.3982 84.2614 60.402 83.7159V75.1818ZM72.3807 86.1761C71.8277 86.1761 71.3295 86.0777 70.8864 85.8807C70.447 85.6799 70.0985 85.3845 69.8409 84.9943C69.5871 84.6042 69.4602 84.1231 69.4602 83.5511C69.4602 83.0587 69.5511 82.6515 69.733 82.3295C69.9148 82.0076 70.1629 81.75 70.4773 81.5568C70.7917 81.3636 71.1458 81.2178 71.5398 81.1193C71.9375 81.017 72.3485 80.9432 72.7727 80.8977C73.2841 80.8447 73.6989 80.7973 74.017 80.7557C74.3352 80.7102 74.5663 80.642 74.7102 80.5511C74.858 80.4564 74.9318 80.3106 74.9318 80.1136V80.0795C74.9318 79.6515 74.8049 79.3201 74.5511 79.0852C74.2973 78.8504 73.9318 78.733 73.4545 78.733C72.9508 78.733 72.5511 78.8428 72.2557 79.0625C71.964 79.2822 71.767 79.5417 71.6648 79.8409L69.7443 79.5682C69.8958 79.0379 70.1458 78.5947 70.4943 78.2386C70.8428 77.8788 71.2689 77.6098 71.7727 77.4318C72.2765 77.25 72.8333 77.1591 73.4432 77.1591C73.8636 77.1591 74.2822 77.2083 74.6989 77.3068C75.1155 77.4053 75.4962 77.5682 75.8409 77.7955C76.1856 78.0189 76.4621 78.3239 76.6705 78.7102C76.8826 79.0966 76.9886 79.5795 76.9886 80.1591V86H75.0114V84.8011H74.9432C74.8182 85.0436 74.642 85.2708 74.4148 85.483C74.1913 85.6913 73.9091 85.8598 73.5682 85.9886C73.2311 86.1136 72.8352 86.1761 72.3807 86.1761ZM72.9148 84.6648C73.3277 84.6648 73.6856 84.5833 73.9886 84.4205C74.2917 84.2538 74.5246 84.0341 74.6875 83.7614C74.8542 83.4886 74.9375 83.1913 74.9375 82.8693V81.8409C74.8731 81.8939 74.7633 81.9432 74.608 81.9886C74.4564 82.0341 74.286 82.0739 74.0966 82.108C73.9072 82.142 73.7197 82.1723 73.5341 82.1989C73.3485 82.2254 73.1875 82.2481 73.0511 82.267C72.7443 82.3087 72.4697 82.3769 72.2273 82.4716C71.9848 82.5663 71.7936 82.6989 71.6534 82.8693C71.5133 83.036 71.4432 83.2519 71.4432 83.517C71.4432 83.8958 71.5814 84.1818 71.858 84.375C72.1345 84.5682 72.4867 84.6648 72.9148 84.6648ZM83.1165 74.3636H85.696L89.1506 82.7955H89.2869L92.7415 74.3636H95.321V86H93.2983V78.0057H93.1903L89.9744 85.9659H88.4631L85.2472 77.9886H85.1392V86H83.1165V74.3636ZM100.037 86.1761C99.4839 86.1761 98.9858 86.0777 98.5426 85.8807C98.1032 85.6799 97.7547 85.3845 97.4972 84.9943C97.2434 84.6042 97.1165 84.1231 97.1165 83.5511C97.1165 83.0587 97.2074 82.6515 97.3892 82.3295C97.571 82.0076 97.8191 81.75 98.1335 81.5568C98.4479 81.3636 98.8021 81.2178 99.196 81.1193C99.5938 81.017 100.005 80.9432 100.429 80.8977C100.94 80.8447 101.355 80.7973 101.673 80.7557C101.991 80.7102 102.223 80.642 102.366 80.5511C102.514 80.4564 102.588 80.3106 102.588 80.1136V80.0795C102.588 79.6515 102.461 79.3201 102.207 79.0852C101.954 78.8504 101.588 78.733 101.111 78.733C100.607 78.733 100.207 78.8428 99.9119 79.0625C99.6203 79.2822 99.4233 79.5417 99.321 79.8409L97.4006 79.5682C97.5521 79.0379 97.8021 78.5947 98.1506 78.2386C98.4991 77.8788 98.9252 77.6098 99.429 77.4318C99.9328 77.25 100.49 77.1591 101.099 77.1591C101.52 77.1591 101.938 77.2083 102.355 77.3068C102.772 77.4053 103.152 77.5682 103.497 77.7955C103.842 78.0189 104.118 78.3239 104.327 78.7102C104.539 79.0966 104.645 79.5795 104.645 80.1591V86H102.668V84.8011H102.599C102.474 85.0436 102.298 85.2708 102.071 85.483C101.848 85.6913 101.565 85.8598 101.224 85.9886C100.887 86.1136 100.491 86.1761 100.037 86.1761ZM100.571 84.6648C100.984 84.6648 101.342 84.5833 101.645 84.4205C101.948 84.2538 102.181 84.0341 102.344 83.7614C102.51 83.4886 102.594 83.1913 102.594 82.8693V81.8409C102.529 81.8939 102.42 81.9432 102.264 81.9886C102.113 82.0341 101.942 82.0739 101.753 82.108C101.563 82.142 101.376 82.1723 101.19 82.1989C101.005 82.2254 100.844 82.2481 100.707 82.267C100.401 82.3087 100.126 82.3769 99.8835 82.4716C99.6411 82.5663 99.4498 82.6989 99.3097 82.8693C99.1695 83.036 99.0994 83.2519 99.0994 83.517C99.0994 83.8958 99.2377 84.1818 99.5142 84.375C99.7907 84.5682 100.143 84.6648 100.571 84.6648ZM108.588 83.2614L108.582 80.7784H108.912L112.048 77.2727H114.452L110.594 81.5682H110.168L108.588 83.2614ZM106.713 86V74.3636H108.77V86H106.713ZM112.19 86L109.349 82.0284L110.736 80.5795L114.651 86H112.19ZM119.327 86.1705C118.452 86.1705 117.696 85.9886 117.06 85.625C116.427 85.2576 115.94 84.7386 115.599 84.0682C115.259 83.3939 115.088 82.6004 115.088 81.6875C115.088 80.7898 115.259 80.0019 115.599 79.3239C115.944 78.642 116.425 78.1117 117.043 77.733C117.66 77.3504 118.385 77.1591 119.219 77.1591C119.757 77.1591 120.264 77.2462 120.741 77.4205C121.223 77.5909 121.647 77.8561 122.014 78.2159C122.385 78.5758 122.677 79.0341 122.889 79.5909C123.101 80.1439 123.207 80.803 123.207 81.5682V82.1989H116.054V80.8125H121.236C121.232 80.4186 121.147 80.0682 120.98 79.7614C120.813 79.4508 120.58 79.2064 120.281 79.0284C119.986 78.8504 119.641 78.7614 119.247 78.7614C118.827 78.7614 118.457 78.8636 118.139 79.0682C117.821 79.2689 117.573 79.5341 117.395 79.8636C117.221 80.1894 117.132 80.5473 117.128 80.9375V82.1477C117.128 82.6553 117.221 83.0909 117.406 83.4545C117.592 83.8144 117.851 84.0909 118.185 84.2841C118.518 84.4735 118.908 84.5682 119.355 84.5682C119.654 84.5682 119.925 84.5265 120.168 84.4432C120.41 84.3561 120.62 84.2292 120.798 84.0625C120.976 83.8958 121.111 83.6894 121.202 83.4432L123.122 83.6591C123.001 84.1667 122.77 84.6098 122.429 84.9886C122.092 85.3636 121.66 85.6553 121.134 85.8636C120.607 86.0682 120.005 86.1705 119.327 86.1705ZM124.947 86V77.2727H126.942V78.7273H127.033C127.192 78.2235 127.464 77.8352 127.851 77.5625C128.241 77.286 128.686 77.1477 129.186 77.1477C129.3 77.1477 129.427 77.1534 129.567 77.1648C129.711 77.1723 129.83 77.1856 129.925 77.2045V79.0966C129.838 79.0663 129.699 79.0398 129.51 79.017C129.324 78.9905 129.144 78.9773 128.97 78.9773C128.595 78.9773 128.258 79.0587 127.959 79.2216C127.663 79.3807 127.43 79.6023 127.26 79.8864C127.089 80.1705 127.004 80.4981 127.004 80.8693V86H124.947Z" fill="#8F8484"/>
<rect x="17" y="103" width="240" height="84" rx="7" fill="#1C1C1C" stroke="#F4511E" stroke-width="2"/>
<path d="M42.25 121.25C42.25 120.322 42.6187 119.432 43.2751 118.775C43.9315 118.119 44.8217 117.75 45.75 117.75C46.6783 117.75 47.5685 118.119 48.2249 118.775C48.8813 119.432 49.25 120.322 49.25 121.25C49.25 122.178 48.8813 123.068 48.2249 123.725C47.5685 124.381 46.6783 124.75 45.75 124.75C44.8217 124.75 43.9315 124.381 43.2751 123.725C42.6187 123.068 42.25 122.178 42.25 121.25ZM52.75 121.25C52.75 120.322 53.1188 119.432 53.7751 118.775C54.4315 118.119 55.3217 117.75 56.25 117.75C57.1783 117.75 58.0685 118.119 58.7249 118.775C59.3813 119.432 59.75 120.322 59.75 121.25C59.75 122.178 59.3813 123.068 58.7249 123.725C58.0685 124.381 57.1783 124.75 56.25 124.75C55.3217 124.75 54.4315 124.381 53.7751 123.725C53.1188 123.068 52.75 122.178 52.75 121.25ZM52.75 152.75C52.75 151.822 53.1188 150.932 53.7751 150.275C54.4315 149.619 55.3217 149.25 56.25 149.25C57.1783 149.25 58.0685 149.619 58.7249 150.275C59.3813 150.932 59.75 151.822 59.75 152.75C59.75 153.678 59.3813 154.569 58.7249 155.225C58.0685 155.881 57.1783 156.25 56.25 156.25C55.3217 156.25 54.4315 155.881 53.7751 155.225C53.1188 154.569 52.75 153.678 52.75 152.75ZM42.25 152.75C42.25 151.822 42.6187 150.932 43.2751 150.275C43.9315 149.619 44.8217 149.25 45.75 149.25C46.6783 149.25 47.5685 149.619 48.2249 150.275C48.8813 150.932 49.25 151.822 49.25 152.75C49.25 153.678 48.8813 154.569 48.2249 155.225C47.5685 155.881 46.6783 156.25 45.75 156.25C44.8217 156.25 43.9315 155.881 43.2751 155.225C42.6187 154.569 42.25 153.678 42.25 152.75ZM31.75 131.75C31.75 130.822 32.1187 129.932 32.7751 129.275C33.4315 128.619 34.3217 128.25 35.25 128.25C36.1783 128.25 37.0685 128.619 37.7249 129.275C38.3813 129.932 38.75 130.822 38.75 131.75C38.75 132.678 38.3813 133.568 37.7249 134.225C37.0685 134.881 36.1783 135.25 35.25 135.25C34.3217 135.25 33.4315 134.881 32.7751 134.225C32.1187 133.568 31.75 132.678 31.75 131.75ZM63.25 131.75C63.25 130.822 63.6188 129.932 64.2751 129.275C64.9315 128.619 65.8217 128.25 66.75 128.25C67.6783 128.25 68.5685 128.619 69.2249 129.275C69.8813 129.932 70.25 130.822 70.25 131.75C70.25 132.678 69.8813 133.568 69.2249 134.225C68.5685 134.881 67.6783 135.25 66.75 135.25C65.8217 135.25 64.9315 134.881 64.2751 134.225C63.6188 133.568 63.25 132.678 63.25 131.75ZM63.25 142.25C63.25 141.322 63.6188 140.432 64.2751 139.775C64.9315 139.119 65.8217 138.75 66.75 138.75C67.6783 138.75 68.5685 139.119 69.2249 139.775C69.8813 140.432 70.25 141.322 70.25 142.25C70.25 143.178 69.8813 144.068 69.2249 144.725C68.5685 145.381 67.6783 145.75 66.75 145.75C65.8217 145.75 64.9315 145.381 64.2751 144.725C63.6188 144.068 63.25 143.178 63.25 142.25ZM31.75 142.25C31.75 141.322 32.1187 140.432 32.7751 139.775C33.4315 139.119 34.3217 138.75 35.25 138.75C36.1783 138.75 37.0685 139.119 37.7249 139.775C38.3813 140.432 38.75 141.322 38.75 142.25C38.75 143.178 38.3813 144.068 37.7249 144.725C37.0685 145.381 36.1783 145.75 35.25 145.75C34.3217 145.75 33.4315 145.381 32.7751 144.725C32.1187 144.068 31.75 143.178 31.75 142.25Z" fill="#5B5B5B"/>
<path d="M30 116H40.5V121.25L30 116ZM72 116V126.5H66.75L72 116ZM72 158H61.5V152.75L72 158ZM30 158V147.5H35.25L30 158Z" fill="#C8C1EA"/>
<path d="M40.5 126.5H51V137H40.5V126.5ZM44 136H50V130H44V136ZM61.5 126.5V137H51V126.5H61.5ZM52 130V136H58V130H52ZM61.5 147.5H51V137H61.5V147.5ZM58 138H52V144H58V138ZM40.5 147.5V137H51V147.5H40.5ZM50 144V138H44V144H50Z" fill="#9184D6"/>
<path d="M91.0462 116.818V127H89.2017V118.613H89.142L86.7607 120.134V118.444L89.2912 116.818H91.0462ZM93.6314 127V125.668L97.1662 122.202C97.5043 121.861 97.786 121.558 98.0114 121.293C98.2367 121.027 98.4058 120.771 98.5185 120.522C98.6312 120.273 98.6875 120.008 98.6875 119.727C98.6875 119.405 98.6146 119.13 98.4688 118.901C98.3229 118.669 98.1224 118.49 97.8672 118.364C97.612 118.238 97.322 118.175 96.9972 118.175C96.6624 118.175 96.3691 118.245 96.1172 118.384C95.8653 118.52 95.6697 118.714 95.5305 118.966C95.3946 119.218 95.3267 119.518 95.3267 119.866H93.5717C93.5717 119.219 93.7192 118.658 94.0142 118.18C94.3092 117.703 94.7152 117.334 95.2322 117.072C95.7526 116.81 96.3492 116.679 97.022 116.679C97.7048 116.679 98.3047 116.807 98.8217 117.062C99.3388 117.317 99.7398 117.667 100.025 118.111C100.313 118.555 100.457 119.062 100.457 119.632C100.457 120.013 100.384 120.388 100.239 120.756C100.093 121.124 99.8359 121.531 99.468 121.979C99.1035 122.426 98.5914 122.968 97.9318 123.604L96.1768 125.389V125.459H100.612V127H93.6314ZM105.981 127.139C105.265 127.139 104.629 127.017 104.072 126.771C103.518 126.526 103.081 126.185 102.759 125.747C102.438 125.31 102.267 124.804 102.247 124.231H104.116C104.133 124.506 104.224 124.746 104.39 124.952C104.556 125.154 104.776 125.311 105.051 125.424C105.326 125.537 105.634 125.593 105.976 125.593C106.34 125.593 106.664 125.53 106.945 125.404C107.227 125.275 107.447 125.096 107.607 124.867C107.766 124.638 107.844 124.375 107.84 124.077C107.844 123.768 107.764 123.497 107.602 123.261C107.439 123.026 107.204 122.842 106.896 122.71C106.591 122.577 106.223 122.511 105.792 122.511H104.892V121.089H105.792C106.147 121.089 106.456 121.027 106.722 120.905C106.99 120.782 107.201 120.61 107.353 120.388C107.505 120.162 107.58 119.902 107.577 119.607C107.58 119.319 107.515 119.069 107.383 118.857C107.254 118.641 107.07 118.474 106.831 118.354C106.596 118.235 106.319 118.175 106.001 118.175C105.689 118.175 105.401 118.232 105.136 118.344C104.871 118.457 104.657 118.618 104.494 118.827C104.332 119.032 104.246 119.277 104.236 119.562H102.461C102.474 118.992 102.638 118.492 102.953 118.061C103.271 117.627 103.696 117.289 104.226 117.047C104.756 116.802 105.351 116.679 106.011 116.679C106.69 116.679 107.28 116.807 107.781 117.062C108.284 117.314 108.674 117.653 108.949 118.081C109.224 118.509 109.362 118.981 109.362 119.498C109.365 120.071 109.196 120.552 108.854 120.94C108.516 121.327 108.072 121.581 107.522 121.7V121.78C108.238 121.879 108.786 122.144 109.168 122.575C109.552 123.003 109.743 123.535 109.739 124.171C109.739 124.741 109.577 125.252 109.252 125.702C108.931 126.15 108.487 126.501 107.92 126.756C107.356 127.012 106.71 127.139 105.981 127.139ZM111.446 127V125.668L114.981 122.202C115.319 121.861 115.6 121.558 115.826 121.293C116.051 121.027 116.22 120.771 116.333 120.522C116.446 120.273 116.502 120.008 116.502 119.727C116.502 119.405 116.429 119.13 116.283 118.901C116.137 118.669 115.937 118.49 115.682 118.364C115.426 118.238 115.136 118.175 114.812 118.175C114.477 118.175 114.184 118.245 113.932 118.384C113.68 118.52 113.484 118.714 113.345 118.966C113.209 119.218 113.141 119.518 113.141 119.866H111.386C111.386 119.219 111.534 118.658 111.829 118.18C112.124 117.703 112.53 117.334 113.047 117.072C113.567 116.81 114.164 116.679 114.836 116.679C115.519 116.679 116.119 116.807 116.636 117.062C117.153 117.317 117.554 117.667 117.839 118.111C118.128 118.555 118.272 119.062 118.272 119.632C118.272 120.013 118.199 120.388 118.053 120.756C117.907 121.124 117.65 121.531 117.282 121.979C116.918 122.426 116.406 122.968 115.746 123.604L113.991 125.389V125.459H118.426V127H111.446ZM121.27 127.109C120.968 127.109 120.71 127.003 120.494 126.791C120.279 126.579 120.173 126.321 120.176 126.016C120.173 125.717 120.279 125.462 120.494 125.25C120.71 125.038 120.968 124.932 121.27 124.932C121.561 124.932 121.815 125.038 122.03 125.25C122.249 125.462 122.36 125.717 122.363 126.016C122.36 126.218 122.307 126.402 122.204 126.567C122.105 126.733 121.972 126.866 121.807 126.965C121.644 127.061 121.465 127.109 121.27 127.109ZM125.33 127.109C125.029 127.109 124.77 127.003 124.555 126.791C124.339 126.579 124.233 126.321 124.237 126.016C124.233 125.717 124.339 125.462 124.555 125.25C124.77 125.038 125.029 124.932 125.33 124.932C125.622 124.932 125.875 125.038 126.091 125.25C126.31 125.462 126.421 125.717 126.424 126.016C126.421 126.218 126.368 126.402 126.265 126.567C126.165 126.733 126.033 126.866 125.867 126.965C125.705 127.061 125.526 127.109 125.33 127.109ZM129.391 127.109C129.089 127.109 128.831 127.003 128.615 126.791C128.4 126.579 128.294 126.321 128.297 126.016C128.294 125.717 128.4 125.462 128.615 125.25C128.831 125.038 129.089 124.932 129.391 124.932C129.682 124.932 129.936 125.038 130.151 125.25C130.37 125.462 130.481 125.717 130.485 126.016C130.481 126.218 130.428 126.402 130.325 126.567C130.226 126.733 130.093 126.866 129.928 126.965C129.765 127.061 129.586 127.109 129.391 127.109ZM136.156 119.364V120.756H131.766V119.364H136.156ZM132.85 117.534H134.65V124.703C134.65 124.945 134.686 125.131 134.759 125.26C134.835 125.386 134.935 125.472 135.057 125.518C135.18 125.565 135.316 125.588 135.465 125.588C135.578 125.588 135.68 125.58 135.773 125.563C135.869 125.547 135.942 125.532 135.992 125.518L136.295 126.925C136.199 126.959 136.061 126.995 135.882 127.035C135.707 127.075 135.491 127.098 135.236 127.104C134.785 127.118 134.379 127.05 134.018 126.901C133.657 126.748 133.37 126.513 133.158 126.195C132.949 125.876 132.846 125.479 132.85 125.001V117.534ZM141.295 127.139C140.579 127.139 139.943 127.017 139.386 126.771C138.833 126.526 138.395 126.185 138.074 125.747C137.752 125.31 137.581 124.804 137.562 124.231H139.431C139.448 124.506 139.539 124.746 139.704 124.952C139.87 125.154 140.09 125.311 140.366 125.424C140.641 125.537 140.949 125.593 141.29 125.593C141.655 125.593 141.978 125.53 142.26 125.404C142.541 125.275 142.762 125.096 142.921 124.867C143.08 124.638 143.158 124.375 143.155 124.077C143.158 123.768 143.078 123.497 142.916 123.261C142.754 123.026 142.518 122.842 142.21 122.71C141.905 122.577 141.537 122.511 141.106 122.511H140.206V121.089H141.106C141.461 121.089 141.771 121.027 142.036 120.905C142.305 120.782 142.515 120.61 142.667 120.388C142.82 120.162 142.894 119.902 142.891 119.607C142.894 119.319 142.83 119.069 142.697 118.857C142.568 118.641 142.384 118.474 142.145 118.354C141.91 118.235 141.633 118.175 141.315 118.175C141.004 118.175 140.715 118.232 140.45 118.344C140.185 118.457 139.971 118.618 139.809 118.827C139.646 119.032 139.56 119.277 139.55 119.562H137.775C137.789 118.992 137.953 118.492 138.268 118.061C138.586 117.627 139.01 117.289 139.54 117.047C140.071 116.802 140.666 116.679 141.325 116.679C142.005 116.679 142.595 116.807 143.095 117.062C143.599 117.314 143.988 117.653 144.263 118.081C144.538 118.509 144.676 118.981 144.676 119.498C144.679 120.071 144.51 120.552 144.169 120.94C143.831 121.327 143.387 121.581 142.836 121.7V121.78C143.552 121.879 144.101 122.144 144.482 122.575C144.867 123.003 145.057 123.535 145.054 124.171C145.054 124.741 144.891 125.252 144.567 125.702C144.245 126.15 143.801 126.501 143.234 126.756C142.671 127.012 142.024 127.139 141.295 127.139ZM152.816 121.382L151.175 121.561C151.129 121.395 151.047 121.24 150.931 121.094C150.819 120.948 150.666 120.83 150.474 120.741C150.282 120.651 150.047 120.607 149.768 120.607C149.394 120.607 149.079 120.688 148.824 120.85C148.572 121.013 148.447 121.223 148.451 121.482C148.447 121.704 148.529 121.884 148.694 122.023C148.863 122.163 149.142 122.277 149.529 122.366L150.832 122.645C151.555 122.801 152.092 123.048 152.443 123.386C152.797 123.724 152.976 124.166 152.98 124.713C152.976 125.194 152.836 125.618 152.557 125.986C152.282 126.35 151.899 126.635 151.409 126.841C150.918 127.046 150.355 127.149 149.718 127.149C148.784 127.149 148.031 126.954 147.461 126.562C146.891 126.168 146.551 125.62 146.442 124.917L148.197 124.748C148.277 125.093 148.446 125.353 148.704 125.528C148.963 125.704 149.299 125.792 149.713 125.792C150.141 125.792 150.484 125.704 150.743 125.528C151.004 125.353 151.135 125.136 151.135 124.877C151.135 124.658 151.051 124.478 150.882 124.335C150.716 124.193 150.458 124.083 150.106 124.007L148.804 123.734C148.071 123.581 147.529 123.324 147.178 122.963C146.827 122.598 146.653 122.138 146.656 121.581C146.653 121.11 146.78 120.703 147.039 120.358C147.301 120.01 147.663 119.741 148.127 119.553C148.595 119.36 149.133 119.264 149.743 119.264C150.638 119.264 151.342 119.455 151.856 119.836C152.373 120.217 152.693 120.732 152.816 121.382ZM158.277 119.364V120.756H153.887V119.364H158.277ZM154.971 117.534H156.771V124.703C156.771 124.945 156.807 125.131 156.88 125.26C156.956 125.386 157.056 125.472 157.178 125.518C157.301 125.565 157.437 125.588 157.586 125.588C157.699 125.588 157.801 125.58 157.894 125.563C157.99 125.547 158.063 125.532 158.113 125.518L158.416 126.925C158.32 126.959 158.183 126.995 158.004 127.035C157.828 127.075 157.612 127.098 157.357 127.104C156.906 127.118 156.5 127.05 156.139 126.901C155.778 126.748 155.491 126.513 155.279 126.195C155.07 125.876 154.968 125.479 154.971 125.001V117.534Z" fill="white"/>
<rect x="86" y="162" width="31" height="16" rx="8" fill="#306338"/>
<g clip-path="url(#clip0_14_52)">
<path d="M98.3334 172.917C98.3334 173.071 98.3948 173.22 98.5042 173.329C98.6136 173.439 98.762 173.5 98.9167 173.5C99.0714 173.5 99.2198 173.439 99.3292 173.329C99.4386 173.22 99.5 173.071 99.5 172.917C99.5 172.762 99.4386 172.614 99.3292 172.504C99.2198 172.395 99.0714 172.333 98.9167 172.333C98.762 172.333 98.6136 172.395 98.5042 172.504C98.3948 172.614 98.3334 172.762 98.3334 172.917Z" stroke="#C9FFD2" stroke-width="2" stroke-linecap="round" stroke-linejoin="round"/>
<path d="M92.5 167.083C92.5 167.238 92.5615 167.386 92.6709 167.496C92.7803 167.605 92.9286 167.667 93.0833 167.667C93.238 167.667 93.3864 167.605 93.4958 167.496C93.6052 167.386 93.6667 167.238 93.6667 167.083C93.6667 166.929 93.6052 166.78 93.4958 166.671C93.3864 166.561 93.238 166.5 93.0833 166.5C92.9286 166.5 92.7803 166.561 92.6709 166.671C92.5615 166.78 92.5 166.929 92.5 167.083Z" stroke="#C9FFD2" stroke-width="2" stroke-linecap="round" stroke-linejoin="round"/>
<path d="M92.5 173.5L99.5 166.5" stroke="#C9FFD2" stroke-width="2" stroke-linecap="round" stroke-linejoin="round"/>
</g>
<rect x="103" y="169" width="10" height="2" rx="1" fill="#C9FFD2"/>
<rect x="124" y="162" width="31" height="16" rx="8" fill="#306338"/>
<g clip-path="url(#clip1_14_52)">
<path d="M126.75 170C126.75 170.689 126.886 171.372 127.15 172.009C127.413 172.646 127.8 173.225 128.288 173.712C128.775 174.2 129.354 174.587 129.991 174.85C130.628 175.114 131.311 175.25 132 175.25C132.689 175.25 133.372 175.114 134.009 174.85C134.646 174.587 135.225 174.2 135.712 173.712C136.2 173.225 136.587 172.646 136.85 172.009C137.114 171.372 137.25 170.689 137.25 170C137.25 169.311 137.114 168.628 136.85 167.991C136.587 167.354 136.2 166.775 135.712 166.288C135.225 165.8 134.646 165.413 134.009 165.15C133.372 164.886 132.689 164.75 132 164.75C131.311 164.75 130.628 164.886 129.991 165.15C129.354 165.413 128.775 165.8 128.288 166.288C127.8 166.775 127.413 167.354 127.15 167.991C126.886 168.628 126.75 169.311 126.75 170Z" stroke="#C9FFD2" stroke-width="1.25" stroke-linecap="round" stroke-linejoin="round"/>
<path d="M132 170L133.75 171.167" stroke="#C9FFD2" stroke-width="1.25" stroke-linecap="round" stroke-linejoin="round"/>
<path d="M132 167.083V170" stroke="#C9FFD2" stroke-width="1.25" stroke-linecap="round" stroke-linejoin="round"/>
</g>
<rect x="140" y="169" width="10" height="2" rx="1" fill="#C9FFD2"/>
<rect x="86" y="137" width="136" height="3" rx="1.5" fill="#585858"/>
<rect x="86" y="148" width="87" height="3" rx="1.5" fill="#585858"/>
<rect x="242" y="93" width="23" height="23" rx="11.5" fill="#F4511E"/>
<g clip-path="url(#clip2_14_52)">
<path d="M247.75 105L251.5 108.75L259 101.25" stroke="white" stroke-width="2" stroke-linecap="round" stroke-linejoin="round"/>
</g>
<rect x="16.5" y="198.5" width="241" height="85" rx="7.5" fill="#212121" stroke="#434343"/>
<path d="M51 212V222.5H40.5L51 212ZM61.5 222.5H51V212L61.5 222.5ZM51 254V243.5H61.5L51 254ZM40.5 243.5H51V254L40.5 243.5ZM40.5 222.5V233H30L40.5 222.5ZM72 233H61.5V222.5L72 233ZM61.5 243.5V233H72L61.5 243.5ZM30 233H40.5V243.5L30 233ZM40.5 222.5H51V233H40.5V222.5ZM44 232H50V226H44V232ZM61.5 222.5V233H51V222.5H61.5ZM52 226V232H58V226H52ZM61.5 243.5H51V233H61.5V243.5ZM58 234H52V240H58V234ZM40.5 243.5V233H51V243.5H40.5ZM50 240V234H44V240H50Z" fill="#CCBF66"/>
<path d="M31.75 217.25C31.75 216.322 32.1187 215.432 32.7751 214.775C33.4315 214.119 34.3217 213.75 35.25 213.75C36.1783 213.75 37.0685 214.119 37.7249 214.775C38.3813 215.432 38.75 216.322 38.75 217.25C38.75 218.178 38.3813 219.068 37.7249 219.725C37.0685 220.381 36.1783 220.75 35.25 220.75C34.3217 220.75 33.4315 220.381 32.7751 219.725C32.1187 219.068 31.75 218.178 31.75 217.25ZM63.25 217.25C63.25 216.322 63.6188 215.432 64.2751 214.775C64.9315 214.119 65.8217 213.75 66.75 213.75C67.6783 213.75 68.5685 214.119 69.2249 214.775C69.8813 215.432 70.25 216.322 70.25 217.25C70.25 218.178 69.8813 219.068 69.2249 219.725C68.5685 220.381 67.6783 220.75 66.75 220.75C65.8217 220.75 64.9315 220.381 64.2751 219.725C63.6188 219.068 63.25 218.178 63.25 217.25ZM63.25 248.75C63.25 247.822 63.6188 246.932 64.2751 246.275C64.9315 245.619 65.8217 245.25 66.75 245.25C67.6783 245.25 68.5685 245.619 69.2249 246.275C69.8813 246.932 70.25 247.822 70.25 248.75C70.25 249.678 69.8813 250.569 69.2249 251.225C68.5685 251.881 67.6783 252.25 66.75 252.25C65.8217 252.25 64.9315 251.881 64.2751 251.225C63.6188 250.569 63.25 249.678 63.25 248.75ZM31.75 248.75C31.75 247.822 32.1187 246.932 32.7751 246.275C33.4315 245.619 34.3217 245.25 35.25 245.25C36.1783 245.25 37.0685 245.619 37.7249 246.275C38.3813 246.932 38.75 247.822 38.75 248.75C38.75 249.678 38.3813 250.569 37.7249 251.225C37.0685 251.881 36.1783 252.25 35.25 252.25C34.3217 252.25 33.4315 251.881 32.7751 251.225C32.1187 250.569 31.75 249.678 31.75 248.75Z" fill="#E5DFB2"/>
<path d="M90.5589 223.139C89.843 223.139 89.2067 223.017 88.6499 222.771C88.0964 222.526 87.6589 222.185 87.3374 221.747C87.0159 221.31 86.8452 220.804 86.8253 220.231H88.6946C88.7112 220.506 88.8023 220.746 88.968 220.952C89.1338 221.154 89.3542 221.311 89.6293 221.424C89.9044 221.537 90.2126 221.593 90.554 221.593C90.9186 221.593 91.2417 221.53 91.5234 221.404C91.8052 221.275 92.0256 221.096 92.1847 220.867C92.3438 220.638 92.4216 220.375 92.4183 220.077C92.4216 219.768 92.3421 219.497 92.1797 219.261C92.0173 219.026 91.782 218.842 91.4737 218.71C91.1688 218.577 90.8009 218.511 90.37 218.511H89.4702V217.089H90.37C90.7247 217.089 91.0346 217.027 91.2997 216.905C91.5682 216.782 91.7786 216.61 91.9311 216.388C92.0836 216.162 92.1581 215.902 92.1548 215.607C92.1581 215.319 92.0935 215.069 91.9609 214.857C91.8317 214.641 91.6477 214.474 91.4091 214.354C91.1738 214.235 90.897 214.175 90.5788 214.175C90.2673 214.175 89.9789 214.232 89.7138 214.344C89.4486 214.457 89.2348 214.618 89.0724 214.827C88.91 215.032 88.8239 215.277 88.8139 215.562H87.0391C87.0523 214.992 87.2164 214.492 87.5312 214.061C87.8494 213.627 88.2737 213.289 88.804 213.047C89.3343 212.802 89.9292 212.679 90.5888 212.679C91.2682 212.679 91.8582 212.807 92.3587 213.062C92.8625 213.314 93.2519 213.653 93.527 214.081C93.8021 214.509 93.9396 214.981 93.9396 215.498C93.9429 216.071 93.7739 216.552 93.4325 216.94C93.0945 217.327 92.6503 217.581 92.1001 217.7V217.78C92.8161 217.879 93.3646 218.144 93.7457 218.575C94.1302 219.003 94.3208 219.535 94.3175 220.171C94.3175 220.741 94.1551 221.252 93.8303 221.702C93.5088 222.15 93.0646 222.501 92.4979 222.756C91.9344 223.012 91.2881 223.139 90.5589 223.139ZM95.84 221.111V219.644L100.16 212.818H101.383V214.906H100.638L97.7292 219.515V219.594H103.76V221.111H95.84ZM100.697 223V220.663L100.717 220.007V212.818H102.457V223H100.697ZM108.689 226.023C108.043 226.023 107.488 225.935 107.024 225.759C106.56 225.587 106.187 225.355 105.905 225.063C105.623 224.772 105.428 224.448 105.318 224.094L106.939 223.701C107.012 223.85 107.118 223.998 107.257 224.143C107.396 224.293 107.584 224.415 107.819 224.511C108.058 224.611 108.358 224.661 108.719 224.661C109.229 224.661 109.652 224.536 109.987 224.288C110.321 224.042 110.489 223.638 110.489 223.075V221.628H110.399C110.307 221.813 110.171 222.004 109.992 222.2C109.816 222.395 109.582 222.559 109.291 222.692C109.002 222.824 108.639 222.891 108.202 222.891C107.615 222.891 107.083 222.753 106.606 222.478C106.132 222.2 105.754 221.785 105.472 221.235C105.194 220.682 105.055 219.989 105.055 219.157C105.055 218.318 105.194 217.611 105.472 217.034C105.754 216.454 106.134 216.015 106.611 215.717C107.088 215.415 107.62 215.264 108.207 215.264C108.654 215.264 109.022 215.34 109.311 215.493C109.602 215.642 109.834 215.823 110.007 216.035C110.179 216.244 110.31 216.441 110.399 216.626H110.499V215.364H112.274V223.124C112.274 223.777 112.118 224.317 111.806 224.745C111.495 225.173 111.069 225.492 110.529 225.705C109.988 225.917 109.375 226.023 108.689 226.023ZM108.704 221.479C109.085 221.479 109.41 221.386 109.678 221.2C109.947 221.015 110.151 220.748 110.29 220.4C110.429 220.052 110.499 219.634 110.499 219.147C110.499 218.666 110.429 218.246 110.29 217.884C110.154 217.523 109.952 217.243 109.683 217.044C109.418 216.842 109.092 216.741 108.704 216.741C108.303 216.741 107.968 216.845 107.7 217.054C107.431 217.263 107.229 217.549 107.093 217.914C106.957 218.275 106.889 218.686 106.889 219.147C106.889 219.614 106.957 220.024 107.093 220.375C107.232 220.723 107.436 220.995 107.705 221.19C107.977 221.383 108.31 221.479 108.704 221.479ZM117.752 223.139C117.036 223.139 116.4 223.017 115.843 222.771C115.29 222.526 114.852 222.185 114.531 221.747C114.209 221.31 114.039 220.804 114.019 220.231H115.888C115.905 220.506 115.996 220.746 116.161 220.952C116.327 221.154 116.548 221.311 116.823 221.424C117.098 221.537 117.406 221.593 117.747 221.593C118.112 221.593 118.435 221.53 118.717 221.404C118.999 221.275 119.219 221.096 119.378 220.867C119.537 220.638 119.615 220.375 119.612 220.077C119.615 219.768 119.535 219.497 119.373 219.261C119.211 219.026 118.975 218.842 118.667 218.71C118.362 218.577 117.994 218.511 117.563 218.511H116.664V217.089H117.563C117.918 217.089 118.228 217.027 118.493 216.905C118.762 216.782 118.972 216.61 119.124 216.388C119.277 216.162 119.352 215.902 119.348 215.607C119.352 215.319 119.287 215.069 119.154 214.857C119.025 214.641 118.841 214.474 118.602 214.354C118.367 214.235 118.09 214.175 117.772 214.175C117.461 214.175 117.172 214.232 116.907 214.344C116.642 214.457 116.428 214.618 116.266 214.827C116.103 215.032 116.017 215.277 116.007 215.562H114.232C114.246 214.992 114.41 214.492 114.725 214.061C115.043 213.627 115.467 213.289 115.997 213.047C116.528 212.802 117.123 212.679 117.782 212.679C118.462 212.679 119.052 212.807 119.552 213.062C120.056 213.314 120.445 213.653 120.72 214.081C120.995 214.509 121.133 214.981 121.133 215.498C121.136 216.071 120.967 216.552 120.626 216.94C120.288 217.327 119.844 217.581 119.294 217.7V217.78C120.009 217.879 120.558 218.144 120.939 218.575C121.324 219.003 121.514 219.535 121.511 220.171C121.511 220.741 121.348 221.252 121.024 221.702C120.702 222.15 120.258 222.501 119.691 222.756C119.128 223.012 118.481 223.139 117.752 223.139ZM124.045 223.109C123.743 223.109 123.485 223.003 123.27 222.791C123.054 222.579 122.948 222.321 122.951 222.016C122.948 221.717 123.054 221.462 123.27 221.25C123.485 221.038 123.743 220.932 124.045 220.932C124.337 220.932 124.59 221.038 124.806 221.25C125.025 221.462 125.136 221.717 125.139 222.016C125.136 222.218 125.083 222.402 124.98 222.567C124.88 222.733 124.748 222.866 124.582 222.965C124.42 223.061 124.241 223.109 124.045 223.109ZM128.106 223.109C127.804 223.109 127.546 223.003 127.33 222.791C127.115 222.579 127.009 222.321 127.012 222.016C127.009 221.717 127.115 221.462 127.33 221.25C127.546 221.038 127.804 220.932 128.106 220.932C128.397 220.932 128.651 221.038 128.866 221.25C129.085 221.462 129.196 221.717 129.199 222.016C129.196 222.218 129.143 222.402 129.04 222.567C128.941 222.733 128.808 222.866 128.643 222.965C128.48 223.061 128.301 223.109 128.106 223.109ZM132.166 223.109C131.865 223.109 131.606 223.003 131.391 222.791C131.175 222.579 131.069 222.321 131.072 222.016C131.069 221.717 131.175 221.462 131.391 221.25C131.606 221.038 131.865 220.932 132.166 220.932C132.458 220.932 132.711 221.038 132.927 221.25C133.146 221.462 133.257 221.717 133.26 222.016C133.257 222.218 133.204 222.402 133.101 222.567C133.001 222.733 132.869 222.866 132.703 222.965C132.541 223.061 132.362 223.109 132.166 223.109ZM138.931 215.364V216.756H134.541V215.364H138.931ZM135.625 213.534H137.425V220.703C137.425 220.945 137.461 221.131 137.534 221.26C137.61 221.386 137.71 221.472 137.833 221.518C137.955 221.565 138.091 221.588 138.24 221.588C138.353 221.588 138.456 221.58 138.548 221.563C138.645 221.547 138.718 221.532 138.767 221.518L139.07 222.925C138.974 222.959 138.837 222.995 138.658 223.035C138.482 223.075 138.267 223.098 138.012 223.104C137.561 223.118 137.155 223.05 136.794 222.901C136.432 222.748 136.146 222.513 135.933 222.195C135.725 221.876 135.622 221.479 135.625 221.001V213.534ZM144.071 223.139C143.355 223.139 142.718 223.017 142.162 222.771C141.608 222.526 141.171 222.185 140.849 221.747C140.528 221.31 140.357 220.804 140.337 220.231H142.206C142.223 220.506 142.314 220.746 142.48 220.952C142.645 221.154 142.866 221.311 143.141 221.424C143.416 221.537 143.724 221.593 144.066 221.593C144.43 221.593 144.753 221.53 145.035 221.404C145.317 221.275 145.537 221.096 145.696 220.867C145.855 220.638 145.933 220.375 145.93 220.077C145.933 219.768 145.854 219.497 145.691 219.261C145.529 219.026 145.294 218.842 144.985 218.71C144.681 218.577 144.313 218.511 143.882 218.511H142.982V217.089H143.882C144.236 217.089 144.546 217.027 144.811 216.905C145.08 216.782 145.29 216.61 145.443 216.388C145.595 216.162 145.67 215.902 145.667 215.607C145.67 215.319 145.605 215.069 145.473 214.857C145.343 214.641 145.159 214.474 144.921 214.354C144.685 214.235 144.409 214.175 144.091 214.175C143.779 214.175 143.491 214.232 143.225 214.344C142.96 214.457 142.747 214.618 142.584 214.827C142.422 215.032 142.336 215.277 142.326 215.562H140.551C140.564 214.992 140.728 214.492 141.043 214.061C141.361 213.627 141.785 213.289 142.316 213.047C142.846 212.802 143.441 212.679 144.1 212.679C144.78 212.679 145.37 212.807 145.87 213.062C146.374 213.314 146.764 213.653 147.039 214.081C147.314 214.509 147.451 214.981 147.451 215.498C147.455 216.071 147.286 216.552 146.944 216.94C146.606 217.327 146.162 217.581 145.612 217.7V217.78C146.328 217.879 146.876 218.144 147.257 218.575C147.642 219.003 147.833 219.535 147.829 220.171C147.829 220.741 147.667 221.252 147.342 221.702C147.02 222.15 146.576 222.501 146.01 222.756C145.446 223.012 144.8 223.139 144.071 223.139ZM153.075 223.139C152.413 223.139 151.819 223.015 151.296 222.766C150.772 222.514 150.356 222.17 150.048 221.732C149.743 221.295 149.58 220.794 149.561 220.231H151.35C151.383 220.648 151.564 220.99 151.892 221.255C152.22 221.517 152.615 221.648 153.075 221.648C153.437 221.648 153.758 221.565 154.04 221.399C154.322 221.233 154.544 221.003 154.706 220.708C154.869 220.413 154.948 220.077 154.945 219.699C154.948 219.314 154.867 218.973 154.701 218.675C154.535 218.376 154.308 218.143 154.02 217.974C153.732 217.801 153.4 217.715 153.026 217.715C152.721 217.712 152.421 217.768 152.126 217.884C151.831 218 151.597 218.153 151.425 218.342L149.759 218.068L150.291 212.818H156.198V214.359H151.818L151.524 217.059H151.584C151.773 216.837 152.04 216.653 152.384 216.507C152.729 216.358 153.107 216.283 153.518 216.283C154.134 216.283 154.685 216.429 155.169 216.721C155.652 217.009 156.034 217.407 156.312 217.914C156.59 218.421 156.73 219.001 156.73 219.654C156.73 220.327 156.574 220.927 156.262 221.454C155.954 221.978 155.525 222.39 154.975 222.692C154.428 222.99 153.795 223.139 153.075 223.139ZM162.536 212.818V223H160.692V214.613H160.632L158.251 216.134V214.444L160.781 212.818H162.536Z" fill="white"/>
<rect x="86" y="258" width="31" height="16" rx="8" fill="#494949"/>
<g clip-path="url(#clip3_14_52)">
<path d="M98.3334 268.917C98.3334 269.071 98.3948 269.22 98.5042 269.329C98.6136 269.439 98.762 269.5 98.9167 269.5C99.0714 269.5 99.2198 269.439 99.3292 269.329C99.4386 269.22 99.5 269.071 99.5 268.917C99.5 268.762 99.4386 268.614 99.3292 268.504C99.2198 268.395 99.0714 268.333 98.9167 268.333C98.762 268.333 98.6136 268.395 98.5042 268.504C98.3948 268.614 98.3334 268.762 98.3334 268.917Z" stroke="#E4E4E4" stroke-width="2" stroke-linecap="round" stroke-linejoin="round"/>
<path d="M92.5 263.083C92.5 263.238 92.5615 263.386 92.6709 263.496C92.7803 263.605 92.9286 263.667 93.0833 263.667C93.238 263.667 93.3864 263.605 93.4958 263.496C93.6052 263.386 93.6667 263.238 93.6667 263.083C93.6667 262.929 93.6052 262.78 93.4958 262.671C93.3864 262.561 93.238 262.5 93.0833 262.5C92.9286 262.5 92.7803 262.561 92.6709 262.671C92.5615 262.78 92.5 262.929 92.5 263.083Z" stroke="#E4E4E4" stroke-width="2" stroke-linecap="round" stroke-linejoin="round"/>
<path d="M92.5 269.5L99.5 262.5" stroke="#E4E4E4" stroke-width="2" stroke-linecap="round" stroke-linejoin="round"/>
</g>
<rect x="103" y="265" width="10" height="2" rx="1" fill="#E4E4E4"/>
<rect x="124" y="258" width="31" height="16" rx="8" fill="#494949"/>
<g clip-path="url(#clip4_14_52)">
<path d="M126.75 266C126.75 266.689 126.886 267.372 127.15 268.009C127.413 268.646 127.8 269.225 128.288 269.712C128.775 270.2 129.354 270.587 129.991 270.85C130.628 271.114 131.311 271.25 132 271.25C132.689 271.25 133.372 271.114 134.009 270.85C134.646 270.587 135.225 270.2 135.712 269.712C136.2 269.225 136.587 268.646 136.85 268.009C137.114 267.372 137.25 266.689 137.25 266C137.25 265.311 137.114 264.628 136.85 263.991C136.587 263.354 136.2 262.775 135.712 262.288C135.225 261.8 134.646 261.413 134.009 261.15C133.372 260.886 132.689 260.75 132 260.75C131.311 260.75 130.628 260.886 129.991 261.15C129.354 261.413 128.775 261.8 128.288 262.288C127.8 262.775 127.413 263.354 127.15 263.991C126.886 264.628 126.75 265.311 126.75 266Z" stroke="#E4E4E4" stroke-width="1.25" stroke-linecap="round" stroke-linejoin="round"/>
<path d="M132 266L133.75 267.167" stroke="#E4E4E4" stroke-width="1.25" stroke-linecap="round" stroke-linejoin="round"/>
<path d="M132 263.083V266" stroke="#E4E4E4" stroke-width="1.25" stroke-linecap="round" stroke-linejoin="round"/>
</g>
<rect x="140" y="265" width="10" height="2" rx="1" fill="#E4E4E4"/>
<rect x="86" y="233" width="136" height="3" rx="1.5" fill="#585858"/>
<rect x="86" y="244" width="87" height="3" rx="1.5" fill="#585858"/>
<rect x="16.5" y="294.5" width="241" height="85" rx="7.5" fill="#212121" stroke="#434343"/>
<path d="M40.5 308H51V318.5L40.5 308ZM61.5 308V318.5H51L61.5 308ZM61.5 350H51V339.5L61.5 350ZM40.5 350V339.5H51L40.5 350ZM30 318.5H40.5V329L30 318.5ZM72 318.5V329H61.5L72 318.5ZM72 339.5H61.5V329L72 339.5ZM30 339.5V329H40.5L30 339.5Z" fill="#4C4C4C"/>
<path d="M30 308H40.5V313.25L30 308ZM72 308V318.5H66.75L72 308ZM72 350H61.5V344.75L72 350ZM30 350V339.5H35.25L30 350Z" fill="#E5E5E5"/>
<path d="M43 321H50V328H43V321ZM59 321V328H52V321H59ZM59 337H52V330H59V337ZM43 337V330H50V337H43Z" fill="#66CC6E"/>
<path d="M90.4396 308.679C90.9268 308.682 91.4008 308.768 91.8615 308.938C92.3255 309.103 92.7431 309.375 93.1143 309.753C93.4856 310.127 93.7805 310.629 93.9993 311.259C94.218 311.889 94.3274 312.668 94.3274 313.596C94.3307 314.471 94.2379 315.253 94.049 315.942C93.8634 316.629 93.5966 317.209 93.2486 317.683C92.9006 318.156 92.4813 318.518 91.9908 318.766C91.5002 319.015 90.9484 319.139 90.3352 319.139C89.6922 319.139 89.1222 319.013 88.625 318.761C88.1312 318.509 87.7318 318.165 87.4268 317.727C87.1219 317.29 86.9347 316.789 86.8651 316.226H88.6797C88.7725 316.63 88.9614 316.952 89.2464 317.19C89.5348 317.426 89.8977 317.543 90.3352 317.543C91.0412 317.543 91.5848 317.237 91.9659 316.624C92.3471 316.01 92.5376 315.159 92.5376 314.068H92.468C92.3056 314.36 92.0952 314.612 91.8366 314.824C91.5781 315.033 91.2848 315.193 90.9567 315.306C90.6319 315.419 90.2872 315.475 89.9226 315.475C89.326 315.475 88.7891 315.333 88.3118 315.048C87.8378 314.763 87.4616 314.371 87.1832 313.874C86.9081 313.377 86.7689 312.809 86.7656 312.169C86.7656 311.506 86.9181 310.911 87.223 310.384C87.5313 309.854 87.9605 309.436 88.5107 309.131C89.0608 308.823 89.7038 308.672 90.4396 308.679ZM90.4446 310.17C90.0866 310.17 89.7635 310.258 89.4751 310.434C89.1901 310.606 88.9647 310.842 88.799 311.14C88.6366 311.435 88.5554 311.765 88.5554 312.129C88.5587 312.491 88.6399 312.819 88.799 313.114C88.9614 313.409 89.1818 313.642 89.4602 313.815C89.742 313.987 90.0634 314.073 90.4247 314.073C90.6932 314.073 90.9434 314.022 91.1754 313.919C91.4074 313.816 91.6096 313.674 91.782 313.491C91.9576 313.306 92.0935 313.095 92.1896 312.86C92.2891 312.625 92.3371 312.376 92.3338 312.114C92.3338 311.766 92.2509 311.445 92.0852 311.15C91.9228 310.855 91.6991 310.618 91.4141 310.439C91.1323 310.26 90.8092 310.17 90.4446 310.17ZM99.5227 319.139C98.8598 319.139 98.2666 319.015 97.7429 318.766C97.2192 318.514 96.8033 318.17 96.495 317.732C96.1901 317.295 96.0277 316.794 96.0078 316.231H97.7976C97.8307 316.648 98.0114 316.99 98.3395 317.255C98.6676 317.517 99.062 317.648 99.5227 317.648C99.884 317.648 100.205 317.565 100.487 317.399C100.769 317.233 100.991 317.003 101.153 316.708C101.316 316.413 101.395 316.077 101.392 315.699C101.395 315.314 101.314 314.973 101.148 314.675C100.983 314.376 100.756 314.143 100.467 313.974C100.179 313.801 99.8475 313.715 99.473 313.715C99.1681 313.712 98.8681 313.768 98.5732 313.884C98.2782 314 98.0445 314.153 97.8722 314.342L96.2067 314.068L96.7386 308.818H102.645V310.359H98.2649L97.9716 313.059H98.0312C98.2202 312.837 98.487 312.653 98.8317 312.507C99.1764 312.358 99.5542 312.283 99.9652 312.283C100.582 312.283 101.132 312.429 101.616 312.721C102.1 313.009 102.481 313.407 102.759 313.914C103.038 314.421 103.177 315.001 103.177 315.654C103.177 316.327 103.021 316.927 102.71 317.454C102.401 317.978 101.972 318.39 101.422 318.692C100.875 318.99 100.242 319.139 99.5227 319.139ZM106.662 314.526V319H104.862V308.818H106.622V312.661H106.712C106.891 312.23 107.167 311.891 107.542 311.642C107.92 311.39 108.4 311.264 108.984 311.264C109.514 311.264 109.976 311.375 110.371 311.597C110.765 311.819 111.07 312.144 111.286 312.572C111.504 312.999 111.614 313.521 111.614 314.138V319H109.814V314.416C109.814 313.902 109.681 313.503 109.416 313.218C109.154 312.93 108.786 312.786 108.312 312.786C107.994 312.786 107.709 312.855 107.457 312.994C107.209 313.13 107.013 313.327 106.871 313.586C106.732 313.844 106.662 314.158 106.662 314.526ZM116.829 319.149C116.063 319.149 115.402 318.99 114.845 318.672C114.292 318.35 113.866 317.896 113.567 317.31C113.269 316.72 113.12 316.025 113.12 315.227C113.12 314.441 113.269 313.752 113.567 313.158C113.869 312.562 114.29 312.098 114.83 311.766C115.371 311.432 116.005 311.264 116.734 311.264C117.205 311.264 117.649 311.34 118.067 311.493C118.488 311.642 118.859 311.874 119.18 312.189C119.505 312.504 119.76 312.905 119.946 313.392C120.132 313.876 120.224 314.453 120.224 315.122V315.674H113.965V314.461H118.499C118.496 314.116 118.421 313.81 118.276 313.541C118.13 313.269 117.926 313.056 117.664 312.9C117.406 312.744 117.104 312.666 116.759 312.666C116.391 312.666 116.068 312.756 115.79 312.935C115.511 313.11 115.294 313.342 115.138 313.631C114.986 313.916 114.908 314.229 114.905 314.57V315.629C114.905 316.073 114.986 316.455 115.148 316.773C115.311 317.088 115.538 317.33 115.83 317.499C116.121 317.664 116.463 317.747 116.854 317.747C117.116 317.747 117.353 317.711 117.565 317.638C117.777 317.562 117.961 317.451 118.116 317.305C118.272 317.159 118.39 316.978 118.469 316.763L120.15 316.952C120.044 317.396 119.842 317.784 119.543 318.115C119.248 318.443 118.871 318.698 118.41 318.881C117.949 319.06 117.422 319.149 116.829 319.149ZM122.856 319.109C122.554 319.109 122.296 319.003 122.08 318.791C121.865 318.579 121.759 318.321 121.762 318.016C121.759 317.717 121.865 317.462 122.08 317.25C122.296 317.038 122.554 316.932 122.856 316.932C123.147 316.932 123.401 317.038 123.616 317.25C123.835 317.462 123.946 317.717 123.949 318.016C123.946 318.218 123.893 318.402 123.79 318.567C123.691 318.733 123.558 318.866 123.393 318.965C123.23 319.061 123.051 319.109 122.856 319.109ZM126.916 319.109C126.615 319.109 126.356 319.003 126.141 318.791C125.925 318.579 125.819 318.321 125.822 318.016C125.819 317.717 125.925 317.462 126.141 317.25C126.356 317.038 126.615 316.932 126.916 316.932C127.208 316.932 127.461 317.038 127.677 317.25C127.896 317.462 128.007 317.717 128.01 318.016C128.007 318.218 127.954 318.402 127.851 318.567C127.751 318.733 127.619 318.866 127.453 318.965C127.291 319.061 127.112 319.109 126.916 319.109ZM130.977 319.109C130.675 319.109 130.417 319.003 130.201 318.791C129.986 318.579 129.88 318.321 129.883 318.016C129.88 317.717 129.986 317.462 130.201 317.25C130.417 317.038 130.675 316.932 130.977 316.932C131.268 316.932 131.522 317.038 131.737 317.25C131.956 317.462 132.067 317.717 132.07 318.016C132.067 318.218 132.014 318.402 131.911 318.567C131.812 318.733 131.679 318.866 131.514 318.965C131.351 319.061 131.172 319.109 130.977 319.109ZM136.792 308.818V319H134.948V310.613H134.888L132.507 312.134V310.444L135.037 308.818H136.792ZM142.778 319.149C142.012 319.149 141.351 318.99 140.794 318.672C140.241 318.35 139.815 317.896 139.517 317.31C139.218 316.72 139.069 316.025 139.069 315.227C139.069 314.441 139.218 313.752 139.517 313.158C139.818 312.562 140.239 312.098 140.779 311.766C141.32 311.432 141.954 311.264 142.684 311.264C143.154 311.264 143.598 311.34 144.016 311.493C144.437 311.642 144.808 311.874 145.13 312.189C145.454 312.504 145.71 312.905 145.895 313.392C146.081 313.876 146.174 314.453 146.174 315.122V315.674H139.914V314.461H144.449C144.445 314.116 144.371 313.81 144.225 313.541C144.079 313.269 143.875 313.056 143.613 312.9C143.355 312.744 143.053 312.666 142.708 312.666C142.341 312.666 142.017 312.756 141.739 312.935C141.461 313.11 141.243 313.342 141.088 313.631C140.935 313.916 140.857 314.229 140.854 314.57V315.629C140.854 316.073 140.935 316.455 141.098 316.773C141.26 317.088 141.487 317.33 141.779 317.499C142.07 317.664 142.412 317.747 142.803 317.747C143.065 317.747 143.302 317.711 143.514 317.638C143.726 317.562 143.91 317.451 144.066 317.305C144.221 317.159 144.339 316.978 144.419 316.763L146.099 316.952C145.993 317.396 145.791 317.784 145.493 318.115C145.198 318.443 144.82 318.698 144.359 318.881C143.898 319.06 143.371 319.149 142.778 319.149ZM151.216 319.139C150.553 319.139 149.96 319.015 149.436 318.766C148.913 318.514 148.497 318.17 148.188 317.732C147.883 317.295 147.721 316.794 147.701 316.231H149.491C149.524 316.648 149.705 316.99 150.033 317.255C150.361 317.517 150.755 317.648 151.216 317.648C151.577 317.648 151.899 317.565 152.181 317.399C152.462 317.233 152.684 317.003 152.847 316.708C153.009 316.413 153.089 316.077 153.085 315.699C153.089 315.314 153.008 314.973 152.842 314.675C152.676 314.376 152.449 314.143 152.161 313.974C151.872 313.801 151.541 313.715 151.166 313.715C150.861 313.712 150.561 313.768 150.267 313.884C149.972 314 149.738 314.153 149.566 314.342L147.9 314.068L148.432 308.818H154.338V310.359H149.958L149.665 313.059H149.725C149.914 312.837 150.18 312.653 150.525 312.507C150.87 312.358 151.248 312.283 151.659 312.283C152.275 312.283 152.825 312.429 153.309 312.721C153.793 313.009 154.174 313.407 154.453 313.914C154.731 314.421 154.87 315.001 154.87 315.654C154.87 316.327 154.714 316.927 154.403 317.454C154.095 317.978 153.665 318.39 153.115 318.692C152.568 318.99 151.935 319.139 151.216 319.139ZM160.369 311.364V312.756H155.979V311.364H160.369ZM157.063 309.534H158.862V316.703C158.862 316.945 158.899 317.131 158.972 317.26C159.048 317.386 159.147 317.472 159.27 317.518C159.393 317.565 159.529 317.588 159.678 317.588C159.79 317.588 159.893 317.58 159.986 317.563C160.082 317.547 160.155 317.532 160.205 317.518L160.508 318.925C160.412 318.959 160.274 318.995 160.095 319.035C159.92 319.075 159.704 319.098 159.449 319.104C158.998 319.118 158.592 319.05 158.231 318.901C157.87 318.748 157.583 318.513 157.371 318.195C157.162 317.876 157.059 317.479 157.063 317.001V309.534Z" fill="white"/>
<rect x="86" y="354" width="31" height="16" rx="8" fill="#494949"/>
<g clip-path="url(#clip5_14_52)">
<path d="M98.3334 364.917C98.3334 365.071 98.3948 365.22 98.5042 365.329C98.6136 365.439 98.762 365.5 98.9167 365.5C99.0714 365.5 99.2198 365.439 99.3292 365.329C99.4386 365.22 99.5 365.071 99.5 364.917C99.5 364.762 99.4386 364.614 99.3292 364.504C99.2198 364.395 99.0714 364.333 98.9167 364.333C98.762 364.333 98.6136 364.395 98.5042 364.504C98.3948 364.614 98.3334 364.762 98.3334 364.917Z" stroke="#E4E4E4" stroke-width="2" stroke-linecap="round" stroke-linejoin="round"/>
<path d="M92.5 359.083C92.5 359.238 92.5615 359.386 92.6709 359.496C92.7803 359.605 92.9286 359.667 93.0833 359.667C93.238 359.667 93.3864 359.605 93.4958 359.496C93.6052 359.386 93.6667 359.238 93.6667 359.083C93.6667 358.929 93.6052 358.78 93.4958 358.671C93.3864 358.561 93.238 358.5 93.0833 358.5C92.9286 358.5 92.7803 358.561 92.6709 358.671C92.5615 358.78 92.5 358.929 92.5 359.083Z" stroke="#E4E4E4" stroke-width="2" stroke-linecap="round" stroke-linejoin="round"/>
<path d="M92.5 365.5L99.5 358.5" stroke="#E4E4E4" stroke-width="2" stroke-linecap="round" stroke-linejoin="round"/>
</g>
<rect x="103" y="361" width="10" height="2" rx="1" fill="#E4E4E4"/>
<rect x="124" y="354" width="31" height="16" rx="8" fill="#633030"/>
<g clip-path="url(#clip6_14_52)">
<path d="M126.75 362C126.75 362.689 126.886 363.372 127.15 364.009C127.413 364.646 127.8 365.225 128.288 365.712C128.775 366.2 129.354 366.587 129.991 366.85C130.628 367.114 131.311 367.25 132 367.25C132.689 367.25 133.372 367.114 134.009 366.85C134.646 366.587 135.225 366.2 135.712 365.712C136.2 365.225 136.587 364.646 136.85 364.009C137.114 363.372 137.25 362.689 137.25 362C137.25 361.311 137.114 360.628 136.85 359.991C136.587 359.354 136.2 358.775 135.712 358.288C135.225 357.8 134.646 357.413 134.009 357.15C133.372 356.886 132.689 356.75 132 356.75C131.311 356.75 130.628 356.886 129.991 357.15C129.354 357.413 128.775 357.8 128.288 358.288C127.8 358.775 127.413 359.354 127.15 359.991C126.886 360.628 126.75 361.311 126.75 362Z" stroke="#FFC9C9" stroke-width="1.25" stroke-linecap="round" stroke-linejoin="round"/>
<path d="M132 362L133.75 363.167" stroke="#FFC9C9" stroke-width="1.25" stroke-linecap="round" stroke-linejoin="round"/>
<path d="M132 359.083V362" stroke="#FFC9C9" stroke-width="1.25" stroke-linecap="round" stroke-linejoin="round"/>
</g>
<rect x="140" y="361" width="10" height="2" rx="1" fill="#FFC9C9"/>
<rect x="86" y="329" width="136" height="3" rx="1.5" fill="#585858"/>
<rect x="86" y="340" width="87" height="3" rx="1.5" fill="#585858"/>
<defs>
<clipPath id="clip0_14_52">
<rect width="14" height="14" fill="white" transform="translate(89 163)"/>
</clipPath>
<clipPath id="clip1_14_52">
<rect width="14" height="14" fill="white" transform="translate(125 163)"/>
</clipPath>
<clipPath id="clip2_14_52">
<rect width="18" height="18" fill="white" transform="translate(244 96)"/>
</clipPath>
<clipPath id="clip3_14_52">
<rect width="14" height="14" fill="white" transform="translate(89 259)"/>
</clipPath>
<clipPath id="clip4_14_52">
<rect width="14" height="14" fill="white" transform="translate(125 259)"/>
</clipPath>
<clipPath id="clip5_14_52">
<rect width="14" height="14" fill="white" transform="translate(89 355)"/>
</clipPath>
<clipPath id="clip6_14_52">
<rect width="14" height="14" fill="white" transform="translate(125 355)"/>
</clipPath>
</defs>
</svg>
